<mxfile host="app.diagrams.net" agent="Mozilla/5.0 (Windows NT 10.0; Win64; x64) AppleWebKit/537.36 (KHTML, like Gecko) Chrome/135.0.0.0 Safari/537.36" version="26.2.14" pages="2">
  <diagram name="Nav Flow" id="1OkFgVFrJQpf3LMZLYlo">
    <mxGraphModel dx="1942" dy="2888" grid="1" gridSize="10" guides="1" tooltips="1" connect="1" arrows="1" fold="1" page="1" pageScale="1" pageWidth="850" pageHeight="1100" math="0" shadow="0">
      <root>
        <mxCell id="0" />
        <mxCell id="1" parent="0" />
        <mxCell id="JcG6peoYhvuAuBua6gRS-1" value="" style="rounded=0;whiteSpace=wrap;html=1;" parent="1" vertex="1">
          <mxGeometry x="-287" y="-1250" width="6240" height="4913" as="geometry" />
        </mxCell>
        <mxCell id="JcG6peoYhvuAuBua6gRS-2" value="" style="rounded=0;whiteSpace=wrap;html=1;" parent="1" vertex="1">
          <mxGeometry x="40" y="160" width="760" height="600" as="geometry" />
        </mxCell>
        <mxCell id="JcG6peoYhvuAuBua6gRS-3" value="&lt;b&gt;&lt;font style=&quot;font-size: 24px;&quot;&gt;Local Link&lt;/font&gt;&lt;/b&gt;&lt;div&gt;&lt;b&gt;&lt;font style=&quot;font-size: 24px;&quot;&gt;&lt;br&gt;&lt;/font&gt;&lt;/b&gt;&lt;/div&gt;&lt;div&gt;&lt;b&gt;&lt;font style=&quot;font-size: 24px;&quot;&gt;&lt;br&gt;&lt;/font&gt;&lt;/b&gt;&lt;/div&gt;&lt;div&gt;&lt;b&gt;&lt;font style=&quot;font-size: 24px;&quot;&gt;Login&lt;/font&gt;&lt;/b&gt;&lt;/div&gt;" style="rounded=0;whiteSpace=wrap;html=1;fillColor=#d5e8d4;strokeColor=#82b366;" parent="1" vertex="1">
          <mxGeometry x="160" y="200" width="540" height="220" as="geometry" />
        </mxCell>
        <mxCell id="JcG6peoYhvuAuBua6gRS-4" value="&lt;span style=&quot;font-size: 16px;&quot;&gt;&lt;b&gt;Email or Phone&lt;/b&gt;&lt;/span&gt;" style="rounded=0;whiteSpace=wrap;html=1;" parent="1" vertex="1">
          <mxGeometry x="315" y="470" width="230" height="40" as="geometry" />
        </mxCell>
        <mxCell id="JcG6peoYhvuAuBua6gRS-5" value="&lt;span style=&quot;font-size: 16px;&quot;&gt;&lt;b&gt;Password&lt;/b&gt;&lt;/span&gt;" style="rounded=0;whiteSpace=wrap;html=1;" parent="1" vertex="1">
          <mxGeometry x="315" y="525" width="230" height="35" as="geometry" />
        </mxCell>
        <mxCell id="JcG6peoYhvuAuBua6gRS-6" style="edgeStyle=orthogonalEdgeStyle;rounded=0;orthogonalLoop=1;jettySize=auto;html=1;entryX=0;entryY=0.5;entryDx=0;entryDy=0;" parent="1" source="JcG6peoYhvuAuBua6gRS-8" target="JcG6peoYhvuAuBua6gRS-52" edge="1">
          <mxGeometry relative="1" as="geometry">
            <mxPoint x="2720" y="1910" as="targetPoint" />
          </mxGeometry>
        </mxCell>
        <mxCell id="JcG6peoYhvuAuBua6gRS-7" value="&lt;b&gt;&lt;font&gt;LINK CONFIRMATION&lt;/font&gt;&lt;/b&gt;" style="edgeLabel;html=1;align=center;verticalAlign=middle;resizable=0;points=[];labelBorderColor=light-dark(#f01919, #ededed);fontSize=18;textShadow=1;" parent="JcG6peoYhvuAuBua6gRS-6" vertex="1" connectable="0">
          <mxGeometry x="-0.0344" relative="1" as="geometry">
            <mxPoint x="-1" as="offset" />
          </mxGeometry>
        </mxCell>
        <mxCell id="JcG6peoYhvuAuBua6gRS-8" value="" style="rounded=0;whiteSpace=wrap;html=1;" parent="1" vertex="1">
          <mxGeometry x="1120" y="1610" width="760" height="600" as="geometry" />
        </mxCell>
        <mxCell id="JcG6peoYhvuAuBua6gRS-9" value="&lt;b&gt;&lt;font style=&quot;font-size: 24px;&quot;&gt;Local Link&lt;/font&gt;&lt;/b&gt;&lt;div&gt;&lt;b&gt;&lt;font style=&quot;font-size: 24px;&quot;&gt;&lt;br&gt;&lt;/font&gt;&lt;/b&gt;&lt;/div&gt;&lt;div&gt;&lt;b&gt;&lt;font style=&quot;font-size: 24px;&quot;&gt;&lt;br&gt;&lt;/font&gt;&lt;/b&gt;&lt;/div&gt;&lt;div&gt;&lt;b&gt;&lt;font style=&quot;font-size: 24px;&quot;&gt;Sign up&lt;/font&gt;&lt;/b&gt;&lt;/div&gt;" style="rounded=0;whiteSpace=wrap;html=1;fillColor=#d5e8d4;strokeColor=#82b366;" parent="1" vertex="1">
          <mxGeometry x="1230" y="1650" width="540" height="220" as="geometry" />
        </mxCell>
        <mxCell id="JcG6peoYhvuAuBua6gRS-10" value="&lt;span style=&quot;font-size: 16px;&quot;&gt;&lt;b&gt;New Password&lt;/b&gt;&lt;/span&gt;" style="rounded=0;whiteSpace=wrap;html=1;" parent="1" vertex="1">
          <mxGeometry x="1380" y="1960" width="230" height="40" as="geometry" />
        </mxCell>
        <mxCell id="JcG6peoYhvuAuBua6gRS-11" value="&lt;span style=&quot;font-size: 16px;&quot;&gt;&lt;b&gt;Confirm Password&lt;/b&gt;&lt;/span&gt;" style="rounded=0;whiteSpace=wrap;html=1;" parent="1" vertex="1">
          <mxGeometry x="1380" y="2010" width="230" height="40" as="geometry" />
        </mxCell>
        <mxCell id="JcG6peoYhvuAuBua6gRS-12" value="" style="rounded=0;whiteSpace=wrap;html=1;" parent="1" vertex="1">
          <mxGeometry x="500" y="-880" width="760" height="600" as="geometry" />
        </mxCell>
        <mxCell id="JcG6peoYhvuAuBua6gRS-13" value="&lt;b&gt;&lt;font style=&quot;font-size: 24px;&quot;&gt;Local Link&lt;/font&gt;&lt;/b&gt;&lt;div&gt;&lt;b&gt;&lt;font style=&quot;font-size: 24px;&quot;&gt;&lt;br&gt;&lt;/font&gt;&lt;/b&gt;&lt;/div&gt;&lt;div&gt;&lt;b&gt;&lt;font style=&quot;font-size: 24px;&quot;&gt;&lt;br&gt;&lt;/font&gt;&lt;/b&gt;&lt;/div&gt;&lt;div&gt;&lt;b&gt;&lt;font style=&quot;font-size: 24px;&quot;&gt;Forgot Password&lt;/font&gt;&lt;/b&gt;&lt;/div&gt;" style="rounded=0;whiteSpace=wrap;html=1;fillColor=#d5e8d4;strokeColor=#82b366;" parent="1" vertex="1">
          <mxGeometry x="610" y="-840" width="540" height="220" as="geometry" />
        </mxCell>
        <mxCell id="JcG6peoYhvuAuBua6gRS-14" value="&lt;span style=&quot;font-size: 16px;&quot;&gt;&lt;b&gt;Email or Phone&lt;/b&gt;&lt;/span&gt;" style="rounded=0;whiteSpace=wrap;html=1;" parent="1" vertex="1">
          <mxGeometry x="760" y="-590" width="240" height="50" as="geometry" />
        </mxCell>
        <mxCell id="JcG6peoYhvuAuBua6gRS-15" value="&lt;span style=&quot;font-size: 16px;&quot;&gt;&lt;b&gt;OTP&lt;/b&gt;&lt;/span&gt;" style="rounded=0;whiteSpace=wrap;html=1;" parent="1" vertex="1">
          <mxGeometry x="760" y="-460" width="240" height="50" as="geometry" />
        </mxCell>
        <mxCell id="JcG6peoYhvuAuBua6gRS-16" value="" style="rounded=0;whiteSpace=wrap;html=1;" parent="1" vertex="1">
          <mxGeometry x="1600" y="-880" width="760" height="600" as="geometry" />
        </mxCell>
        <mxCell id="JcG6peoYhvuAuBua6gRS-17" value="&lt;b&gt;&lt;font style=&quot;font-size: 24px;&quot;&gt;Local Link&lt;/font&gt;&lt;/b&gt;&lt;div&gt;&lt;b&gt;&lt;font style=&quot;font-size: 24px;&quot;&gt;&lt;br&gt;&lt;/font&gt;&lt;/b&gt;&lt;/div&gt;&lt;div&gt;&lt;b&gt;&lt;font style=&quot;font-size: 24px;&quot;&gt;&lt;br&gt;&lt;/font&gt;&lt;/b&gt;&lt;/div&gt;&lt;div&gt;&lt;b&gt;&lt;font style=&quot;font-size: 24px;&quot;&gt;Reset Password&lt;/font&gt;&lt;/b&gt;&lt;/div&gt;" style="rounded=0;whiteSpace=wrap;html=1;fillColor=#d5e8d4;strokeColor=#82b366;" parent="1" vertex="1">
          <mxGeometry x="1710" y="-840" width="540" height="220" as="geometry" />
        </mxCell>
        <mxCell id="JcG6peoYhvuAuBua6gRS-18" value="&lt;span style=&quot;font-size: 16px;&quot;&gt;&lt;b&gt;Password&lt;/b&gt;&lt;/span&gt;" style="rounded=0;whiteSpace=wrap;html=1;" parent="1" vertex="1">
          <mxGeometry x="1860" y="-590" width="240" height="50" as="geometry" />
        </mxCell>
        <mxCell id="JcG6peoYhvuAuBua6gRS-19" value="&lt;span style=&quot;font-size: 16px;&quot;&gt;&lt;b&gt;New Password&lt;/b&gt;&lt;/span&gt;" style="rounded=0;whiteSpace=wrap;html=1;" parent="1" vertex="1">
          <mxGeometry x="1860" y="-530" width="240" height="50" as="geometry" />
        </mxCell>
        <mxCell id="JcG6peoYhvuAuBua6gRS-20" value="" style="endArrow=classic;html=1;rounded=0;exitX=1;exitY=0.5;exitDx=0;exitDy=0;entryX=0.5;entryY=1;entryDx=0;entryDy=0;exitPerimeter=0;" parent="1" source="JcG6peoYhvuAuBua6gRS-27" target="JcG6peoYhvuAuBua6gRS-12" edge="1">
          <mxGeometry width="50" height="50" relative="1" as="geometry">
            <mxPoint x="515" y="600" as="sourcePoint" />
            <mxPoint x="680" y="560" as="targetPoint" />
            <Array as="points">
              <mxPoint x="880" y="600" />
            </Array>
          </mxGeometry>
        </mxCell>
        <mxCell id="JcG6peoYhvuAuBua6gRS-21" value="" style="endArrow=classic;html=1;rounded=0;entryX=0;entryY=0.5;entryDx=0;entryDy=0;exitX=1;exitY=0.5;exitDx=0;exitDy=0;" parent="1" source="JcG6peoYhvuAuBua6gRS-12" target="JcG6peoYhvuAuBua6gRS-16" edge="1">
          <mxGeometry width="50" height="50" relative="1" as="geometry">
            <mxPoint x="970" y="-320" as="sourcePoint" />
            <mxPoint x="1020" y="-370" as="targetPoint" />
          </mxGeometry>
        </mxCell>
        <mxCell id="JcG6peoYhvuAuBua6gRS-22" value="Submit" style="strokeWidth=1;shadow=0;dashed=0;align=center;html=1;shape=mxgraph.mockup.buttons.button;strokeColor=#666666;fontColor=#ffffff;mainText=;buttonStyle=round;fontSize=17;fontStyle=1;fillColor=#008cff;whiteSpace=wrap;" parent="1" vertex="1">
          <mxGeometry x="807.5" y="-390" width="137.5" height="40" as="geometry" />
        </mxCell>
        <mxCell id="JcG6peoYhvuAuBua6gRS-23" value="Send OTP" style="strokeWidth=1;shadow=0;dashed=0;align=center;html=1;shape=mxgraph.mockup.buttons.button;strokeColor=#d6b656;mainText=;buttonStyle=round;fontSize=17;fontStyle=1;fillColor=#fff2cc;whiteSpace=wrap;" parent="1" vertex="1">
          <mxGeometry x="820" y="-530" width="120" height="30" as="geometry" />
        </mxCell>
        <mxCell id="JcG6peoYhvuAuBua6gRS-24" style="edgeStyle=orthogonalEdgeStyle;rounded=0;orthogonalLoop=1;jettySize=auto;html=1;entryX=0.5;entryY=0;entryDx=0;entryDy=0;entryPerimeter=0;" parent="1" source="JcG6peoYhvuAuBua6gRS-25" target="JcG6peoYhvuAuBua6gRS-48" edge="1">
          <mxGeometry relative="1" as="geometry">
            <mxPoint x="422.39999999999964" y="1460" as="targetPoint" />
          </mxGeometry>
        </mxCell>
        <mxCell id="JcG6peoYhvuAuBua6gRS-25" value="&lt;span style=&quot;font-size: 12px;&quot;&gt;&lt;font style=&quot;font-size: 14px; color: rgb(0, 0, 0);&quot;&gt;&lt;span style=&quot;font-weight: normal;&quot;&gt;Don&#39;t have an account? &lt;/span&gt;Signup&lt;/font&gt;&lt;/span&gt;" style="strokeWidth=1;shadow=0;dashed=0;align=center;html=1;shape=mxgraph.mockup.buttons.button;strokeColor=#d79b00;mainText=;buttonStyle=round;fontSize=17;fontStyle=1;fillColor=#ffe6cc;whiteSpace=wrap;" parent="1" vertex="1">
          <mxGeometry x="330" y="700" width="180" height="40" as="geometry" />
        </mxCell>
        <mxCell id="JcG6peoYhvuAuBua6gRS-26" value="Login" style="strokeWidth=1;shadow=0;dashed=0;align=center;html=1;shape=mxgraph.mockup.buttons.button;strokeColor=#666666;fontColor=#ffffff;mainText=;buttonStyle=round;fontSize=17;fontStyle=1;fillColor=#008cff;whiteSpace=wrap;" parent="1" vertex="1">
          <mxGeometry x="351.25" y="620" width="137.5" height="40" as="geometry" />
        </mxCell>
        <mxCell id="JcG6peoYhvuAuBua6gRS-27" value="Forgot Password?" style="strokeWidth=1;shadow=0;dashed=0;align=center;html=1;shape=mxgraph.mockup.buttons.button;strokeColor=#d6b656;mainText=;buttonStyle=round;fontSize=17;fontStyle=1;fillColor=#fff2cc;whiteSpace=wrap;" parent="1" vertex="1">
          <mxGeometry x="340" y="590" width="160" height="20" as="geometry" />
        </mxCell>
        <mxCell id="JcG6peoYhvuAuBua6gRS-28" value="Confirm" style="strokeWidth=1;shadow=0;dashed=0;align=center;html=1;shape=mxgraph.mockup.buttons.button;strokeColor=#666666;fontColor=#ffffff;mainText=;buttonStyle=round;fontSize=17;fontStyle=1;fillColor=#008cff;whiteSpace=wrap;" parent="1" vertex="1">
          <mxGeometry x="1911.25" y="-460" width="137.5" height="40" as="geometry" />
        </mxCell>
        <mxCell id="JcG6peoYhvuAuBua6gRS-29" value="Submit" style="strokeWidth=1;shadow=0;dashed=0;align=center;html=1;shape=mxgraph.mockup.buttons.button;strokeColor=#666666;fontColor=#ffffff;mainText=;buttonStyle=round;fontSize=17;fontStyle=1;fillColor=#008cff;whiteSpace=wrap;" parent="1" vertex="1">
          <mxGeometry x="1426.25" y="2070" width="137.5" height="40" as="geometry" />
        </mxCell>
        <mxCell id="JcG6peoYhvuAuBua6gRS-30" value="&lt;font style=&quot;color: rgb(0, 0, 0); font-weight: normal;&quot;&gt;Already have an account?&amp;nbsp;&lt;/font&gt;&lt;div style=&quot;font-weight: 400;&quot;&gt;&lt;b&gt;&lt;font style=&quot;color: rgb(0, 0, 0);&quot;&gt;Login&lt;/font&gt;&lt;/b&gt;&lt;/div&gt;" style="strokeWidth=1;shadow=0;dashed=0;align=center;html=1;shape=mxgraph.mockup.buttons.button;strokeColor=#d79b00;mainText=;buttonStyle=round;fontSize=13;fontStyle=1;fillColor=#ffe6cc;whiteSpace=wrap;" parent="1" vertex="1">
          <mxGeometry x="1410" y="2145" width="180" height="50" as="geometry" />
        </mxCell>
        <mxCell id="JcG6peoYhvuAuBua6gRS-31" value="&lt;span style=&quot;font-size: 16px;&quot;&gt;&lt;b&gt;Email or Phone&lt;/b&gt;&lt;/span&gt;" style="rounded=0;whiteSpace=wrap;html=1;" parent="1" vertex="1">
          <mxGeometry x="1380" y="1900" width="230" height="45" as="geometry" />
        </mxCell>
        <mxCell id="JcG6peoYhvuAuBua6gRS-32" value="USER" style="shape=umlActor;verticalLabelPosition=bottom;verticalAlign=top;html=1;fontStyle=0;fillColor=#dae8fc;strokeColor=#000000;" parent="1" vertex="1">
          <mxGeometry x="-180" y="420" width="40" height="100" as="geometry" />
        </mxCell>
        <mxCell id="JcG6peoYhvuAuBua6gRS-33" value="" style="verticalLabelPosition=bottom;verticalAlign=top;html=1;shape=mxgraph.basic.diag_stripe;dx=10;" parent="1" vertex="1">
          <mxGeometry x="-140" y="410" width="160" height="60" as="geometry" />
        </mxCell>
        <mxCell id="JcG6peoYhvuAuBua6gRS-34" value="&lt;span style=&quot;background-color: rgb(158, 255, 198);&quot;&gt;&lt;b style=&quot;&quot;&gt;&lt;i style=&quot;&quot;&gt;&lt;font style=&quot;font-size: 30px;&quot;&gt;LOGIN PAGE&lt;/font&gt;&lt;/i&gt;&lt;/b&gt;&lt;/span&gt;" style="strokeWidth=2;html=1;shape=mxgraph.flowchart.multi-document;whiteSpace=wrap;" parent="1" vertex="1">
          <mxGeometry x="290" y="20" width="270" height="130" as="geometry" />
        </mxCell>
        <mxCell id="JcG6peoYhvuAuBua6gRS-35" value="&lt;span style=&quot;background-color: rgb(158, 255, 198);&quot;&gt;&lt;b style=&quot;&quot;&gt;&lt;i style=&quot;&quot;&gt;&lt;font style=&quot;font-size: 30px;&quot;&gt;FORGOT PASS PAGE&lt;/font&gt;&lt;/i&gt;&lt;/b&gt;&lt;/span&gt;" style="strokeWidth=2;html=1;shape=mxgraph.flowchart.multi-document;whiteSpace=wrap;" parent="1" vertex="1">
          <mxGeometry x="728.75" y="-1030" width="295" height="130" as="geometry" />
        </mxCell>
        <mxCell id="JcG6peoYhvuAuBua6gRS-36" value="&lt;span style=&quot;background-color: rgb(255, 170, 212);&quot;&gt;&lt;b style=&quot;&quot;&gt;&lt;i style=&quot;&quot;&gt;&lt;font style=&quot;font-size: 30px;&quot;&gt;LOGIN PAGE&lt;/font&gt;&lt;/i&gt;&lt;/b&gt;&lt;/span&gt;" style="strokeWidth=2;html=1;shape=mxgraph.flowchart.multi-document;whiteSpace=wrap;" parent="1" vertex="1">
          <mxGeometry x="2561.25" y="-645" width="270" height="130" as="geometry" />
        </mxCell>
        <mxCell id="JcG6peoYhvuAuBua6gRS-37" style="edgeStyle=orthogonalEdgeStyle;rounded=0;orthogonalLoop=1;jettySize=auto;html=1;entryX=0;entryY=0.5;entryDx=0;entryDy=0;entryPerimeter=0;" parent="1" source="JcG6peoYhvuAuBua6gRS-16" target="JcG6peoYhvuAuBua6gRS-36" edge="1">
          <mxGeometry relative="1" as="geometry" />
        </mxCell>
        <mxCell id="JcG6peoYhvuAuBua6gRS-38" style="edgeStyle=orthogonalEdgeStyle;rounded=0;orthogonalLoop=1;jettySize=auto;html=1;" parent="1" source="JcG6peoYhvuAuBua6gRS-39" target="JcG6peoYhvuAuBua6gRS-8" edge="1">
          <mxGeometry relative="1" as="geometry" />
        </mxCell>
        <mxCell id="JcG6peoYhvuAuBua6gRS-39" value="" style="rounded=0;whiteSpace=wrap;html=1;" parent="1" vertex="1">
          <mxGeometry x="30" y="1610" width="760" height="600" as="geometry" />
        </mxCell>
        <mxCell id="JcG6peoYhvuAuBua6gRS-40" value="&lt;b&gt;&lt;font style=&quot;font-size: 24px;&quot;&gt;Local Link&lt;/font&gt;&lt;/b&gt;&lt;div&gt;&lt;b&gt;&lt;font style=&quot;font-size: 24px;&quot;&gt;&lt;br&gt;&lt;/font&gt;&lt;/b&gt;&lt;/div&gt;&lt;div&gt;&lt;b&gt;&lt;font style=&quot;font-size: 24px;&quot;&gt;&lt;br&gt;&lt;/font&gt;&lt;/b&gt;&lt;/div&gt;&lt;div&gt;&lt;b&gt;&lt;font style=&quot;font-size: 24px;&quot;&gt;Sign up&lt;/font&gt;&lt;/b&gt;&lt;/div&gt;" style="rounded=0;whiteSpace=wrap;html=1;fillColor=#d5e8d4;strokeColor=#82b366;" parent="1" vertex="1">
          <mxGeometry x="140" y="1650" width="540" height="220" as="geometry" />
        </mxCell>
        <mxCell id="JcG6peoYhvuAuBua6gRS-41" value="CONTINUE" style="strokeWidth=1;shadow=0;dashed=0;align=center;html=1;shape=mxgraph.mockup.buttons.button;strokeColor=#666666;fontColor=#ffffff;mainText=;buttonStyle=round;fontSize=17;fontStyle=1;fillColor=#008cff;whiteSpace=wrap;" parent="1" vertex="1">
          <mxGeometry x="341.25" y="2080" width="137.5" height="40" as="geometry" />
        </mxCell>
        <mxCell id="JcG6peoYhvuAuBua6gRS-42" value="&lt;font style=&quot;color: rgb(0, 0, 0); font-weight: normal;&quot;&gt;Already have an account?&amp;nbsp;&lt;/font&gt;&lt;div style=&quot;font-weight: 400;&quot;&gt;&lt;b&gt;&lt;font style=&quot;color: rgb(0, 0, 0);&quot;&gt;Login&lt;/font&gt;&lt;/b&gt;&lt;/div&gt;" style="strokeWidth=1;shadow=0;dashed=0;align=center;html=1;shape=mxgraph.mockup.buttons.button;strokeColor=#d79b00;mainText=;buttonStyle=round;fontSize=13;fontStyle=1;fillColor=#ffe6cc;whiteSpace=wrap;" parent="1" vertex="1">
          <mxGeometry x="320" y="2145" width="180" height="50" as="geometry" />
        </mxCell>
        <mxCell id="JcG6peoYhvuAuBua6gRS-43" value="&lt;span style=&quot;font-size: 16px;&quot;&gt;&lt;b&gt;MERCHANT&lt;/b&gt;&lt;/span&gt;" style="rounded=0;whiteSpace=wrap;html=1;" parent="1" vertex="1">
          <mxGeometry x="290" y="1900" width="230" height="45" as="geometry" />
        </mxCell>
        <mxCell id="JcG6peoYhvuAuBua6gRS-44" value="&lt;span style=&quot;font-size: 16px;&quot;&gt;&lt;b&gt;CUSTOMER&lt;/b&gt;&lt;/span&gt;" style="rounded=0;whiteSpace=wrap;html=1;" parent="1" vertex="1">
          <mxGeometry x="290" y="1975" width="230" height="45" as="geometry" />
        </mxCell>
        <mxCell id="JcG6peoYhvuAuBua6gRS-45" value="&lt;span style=&quot;background-color: rgb(255, 170, 212);&quot;&gt;&lt;b style=&quot;&quot;&gt;&lt;i style=&quot;&quot;&gt;&lt;font style=&quot;font-size: 30px;&quot;&gt;LOGIN PAGE&lt;/font&gt;&lt;/i&gt;&lt;/b&gt;&lt;/span&gt;" style="strokeWidth=2;html=1;shape=mxgraph.flowchart.multi-document;whiteSpace=wrap;" parent="1" vertex="1">
          <mxGeometry x="275" y="2340" width="270" height="130" as="geometry" />
        </mxCell>
        <mxCell id="JcG6peoYhvuAuBua6gRS-46" style="edgeStyle=orthogonalEdgeStyle;rounded=0;orthogonalLoop=1;jettySize=auto;html=1;entryX=0.5;entryY=0;entryDx=0;entryDy=0;entryPerimeter=0;" parent="1" source="JcG6peoYhvuAuBua6gRS-42" target="JcG6peoYhvuAuBua6gRS-45" edge="1">
          <mxGeometry relative="1" as="geometry" />
        </mxCell>
        <mxCell id="JcG6peoYhvuAuBua6gRS-47" value="&lt;span style=&quot;background-color: rgb(158, 255, 198);&quot;&gt;&lt;b style=&quot;&quot;&gt;&lt;i style=&quot;&quot;&gt;&lt;font style=&quot;font-size: 30px;&quot;&gt;RESET PASS&lt;/font&gt;&lt;/i&gt;&lt;/b&gt;&lt;/span&gt;&lt;div&gt;&lt;span style=&quot;background-color: rgb(158, 255, 198);&quot;&gt;&lt;b style=&quot;&quot;&gt;&lt;i style=&quot;&quot;&gt;&lt;font style=&quot;font-size: 30px;&quot;&gt;PAGE&lt;/font&gt;&lt;/i&gt;&lt;/b&gt;&lt;/span&gt;&lt;/div&gt;" style="strokeWidth=2;html=1;shape=mxgraph.flowchart.multi-document;whiteSpace=wrap;" parent="1" vertex="1">
          <mxGeometry x="1832.5" y="-1030" width="295" height="130" as="geometry" />
        </mxCell>
        <mxCell id="JcG6peoYhvuAuBua6gRS-48" value="&lt;span style=&quot;background-color: rgb(158, 255, 198);&quot;&gt;&lt;b style=&quot;&quot;&gt;&lt;i style=&quot;&quot;&gt;&lt;font style=&quot;font-size: 30px;&quot;&gt;SIGN UP 1&lt;/font&gt;&lt;/i&gt;&lt;/b&gt;&lt;/span&gt;&lt;div&gt;&lt;span style=&quot;background-color: rgb(158, 255, 198);&quot;&gt;&lt;b style=&quot;&quot;&gt;&lt;i style=&quot;&quot;&gt;&lt;font style=&quot;font-size: 30px;&quot;&gt;PAGE&lt;/font&gt;&lt;/i&gt;&lt;/b&gt;&lt;/span&gt;&lt;/div&gt;" style="strokeWidth=2;html=1;shape=mxgraph.flowchart.multi-document;whiteSpace=wrap;" parent="1" vertex="1">
          <mxGeometry x="285" y="1470" width="270" height="130" as="geometry" />
        </mxCell>
        <mxCell id="JcG6peoYhvuAuBua6gRS-49" value="&lt;span style=&quot;background-color: rgb(158, 255, 198);&quot;&gt;&lt;b style=&quot;&quot;&gt;&lt;i style=&quot;&quot;&gt;&lt;font style=&quot;font-size: 30px;&quot;&gt;SIGN UP 2&lt;/font&gt;&lt;/i&gt;&lt;/b&gt;&lt;/span&gt;&lt;div&gt;&lt;span style=&quot;background-color: rgb(158, 255, 198);&quot;&gt;&lt;b style=&quot;&quot;&gt;&lt;i style=&quot;&quot;&gt;&lt;font style=&quot;font-size: 30px;&quot;&gt;PAGE&lt;/font&gt;&lt;/i&gt;&lt;/b&gt;&lt;/span&gt;&lt;/div&gt;" style="strokeWidth=2;html=1;shape=mxgraph.flowchart.multi-document;whiteSpace=wrap;" parent="1" vertex="1">
          <mxGeometry x="1360" y="1470" width="270" height="130" as="geometry" />
        </mxCell>
        <mxCell id="JcG6peoYhvuAuBua6gRS-50" value="&lt;span style=&quot;background-color: rgb(255, 170, 212);&quot;&gt;&lt;b style=&quot;&quot;&gt;&lt;i style=&quot;&quot;&gt;&lt;font style=&quot;font-size: 30px;&quot;&gt;LOGIN PAGE&lt;/font&gt;&lt;/i&gt;&lt;/b&gt;&lt;/span&gt;" style="strokeWidth=2;html=1;shape=mxgraph.flowchart.multi-document;whiteSpace=wrap;" parent="1" vertex="1">
          <mxGeometry x="1365" y="2320" width="270" height="130" as="geometry" />
        </mxCell>
        <mxCell id="JcG6peoYhvuAuBua6gRS-51" style="edgeStyle=orthogonalEdgeStyle;rounded=0;orthogonalLoop=1;jettySize=auto;html=1;exitX=0.5;exitY=1;exitDx=0;exitDy=0;entryX=0.5;entryY=0;entryDx=0;entryDy=0;entryPerimeter=0;" parent="1" source="JcG6peoYhvuAuBua6gRS-8" target="JcG6peoYhvuAuBua6gRS-50" edge="1">
          <mxGeometry relative="1" as="geometry" />
        </mxCell>
        <mxCell id="JcG6peoYhvuAuBua6gRS-52" value="" style="rounded=0;whiteSpace=wrap;html=1;" parent="1" vertex="1">
          <mxGeometry x="2750" y="1610" width="760" height="600" as="geometry" />
        </mxCell>
        <mxCell id="JcG6peoYhvuAuBua6gRS-53" value="&lt;b&gt;&lt;font style=&quot;font-size: 24px;&quot;&gt;Local Link&lt;/font&gt;&lt;/b&gt;&lt;div&gt;&lt;b&gt;&lt;font style=&quot;font-size: 24px;&quot;&gt;&lt;br&gt;&lt;/font&gt;&lt;/b&gt;&lt;/div&gt;&lt;div&gt;&lt;b&gt;&lt;font style=&quot;font-size: 24px;&quot;&gt;&lt;br&gt;&lt;/font&gt;&lt;/b&gt;&lt;/div&gt;&lt;div&gt;&lt;span style=&quot;font-size: 24px;&quot;&gt;&lt;b&gt;Profile Setup&lt;/b&gt;&lt;/span&gt;&lt;/div&gt;" style="rounded=0;whiteSpace=wrap;html=1;fillColor=#d5e8d4;strokeColor=#82b366;" parent="1" vertex="1">
          <mxGeometry x="2860" y="1660" width="540" height="220" as="geometry" />
        </mxCell>
        <mxCell id="JcG6peoYhvuAuBua6gRS-54" style="edgeStyle=orthogonalEdgeStyle;rounded=0;orthogonalLoop=1;jettySize=auto;html=1;" parent="1" source="JcG6peoYhvuAuBua6gRS-55" target="JcG6peoYhvuAuBua6gRS-59" edge="1">
          <mxGeometry relative="1" as="geometry" />
        </mxCell>
        <mxCell id="JcG6peoYhvuAuBua6gRS-55" value="&lt;i&gt;{RENDER}&lt;/i&gt;" style="rounded=0;whiteSpace=wrap;html=1;" parent="1" vertex="1">
          <mxGeometry x="3005" y="1910" width="250" height="140" as="geometry" />
        </mxCell>
        <mxCell id="JcG6peoYhvuAuBua6gRS-56" value="&lt;span style=&quot;background-color: rgb(158, 255, 198);&quot;&gt;&lt;b style=&quot;&quot;&gt;&lt;i style=&quot;&quot;&gt;&lt;font style=&quot;font-size: 30px;&quot;&gt;CUSTOMER/MERCHANT&amp;nbsp;&lt;/font&gt;&lt;/i&gt;&lt;/b&gt;&lt;/span&gt;&lt;div&gt;&lt;span style=&quot;background-color: rgb(158, 255, 198);&quot;&gt;&lt;b style=&quot;&quot;&gt;&lt;i style=&quot;&quot;&gt;&lt;font style=&quot;font-size: 30px;&quot;&gt;SETUP PAGE&lt;/font&gt;&lt;/i&gt;&lt;/b&gt;&lt;/span&gt;&lt;/div&gt;" style="strokeWidth=2;html=1;shape=mxgraph.flowchart.multi-document;whiteSpace=wrap;align=center;" parent="1" vertex="1">
          <mxGeometry x="2900" y="1450" width="492.5" height="150" as="geometry" />
        </mxCell>
        <mxCell id="JcG6peoYhvuAuBua6gRS-57" style="edgeStyle=orthogonalEdgeStyle;rounded=0;orthogonalLoop=1;jettySize=auto;html=1;entryX=0.5;entryY=0;entryDx=0;entryDy=0;" parent="1" source="JcG6peoYhvuAuBua6gRS-59" target="JcG6peoYhvuAuBua6gRS-64" edge="1">
          <mxGeometry relative="1" as="geometry">
            <mxPoint x="4000" y="2560" as="targetPoint" />
          </mxGeometry>
        </mxCell>
        <mxCell id="JcG6peoYhvuAuBua6gRS-58" style="edgeStyle=orthogonalEdgeStyle;rounded=0;orthogonalLoop=1;jettySize=auto;html=1;entryX=0;entryY=0.5;entryDx=0;entryDy=0;" parent="1" source="JcG6peoYhvuAuBua6gRS-59" target="JcG6peoYhvuAuBua6gRS-71" edge="1">
          <mxGeometry relative="1" as="geometry">
            <mxPoint x="4730" y="1980" as="targetPoint" />
          </mxGeometry>
        </mxCell>
        <mxCell id="JcG6peoYhvuAuBua6gRS-59" value="&lt;b&gt;&lt;font style=&quot;font-size: 18px;&quot;&gt;USER&lt;/font&gt;&lt;/b&gt;&lt;div&gt;&lt;b&gt;&lt;font style=&quot;font-size: 18px;&quot;&gt;TYPE&lt;/font&gt;&lt;/b&gt;&lt;/div&gt;" style="rhombus;whiteSpace=wrap;html=1;" parent="1" vertex="1">
          <mxGeometry x="3920" y="1887.5" width="160" height="185" as="geometry" />
        </mxCell>
        <mxCell id="JcG6peoYhvuAuBua6gRS-60" value="&lt;b style=&quot;forced-color-adjust: none; color: rgb(0, 0, 0); font-family: Helvetica; font-style: normal; font-variant-ligatures: normal; font-variant-caps: normal; letter-spacing: normal; orphans: 2; text-align: center; text-indent: 0px; text-transform: none; widows: 2; word-spacing: 0px; -webkit-text-stroke-width: 0px; white-space: normal; text-decoration-thickness: initial; text-decoration-style: initial; text-decoration-color: initial;&quot;&gt;&lt;i style=&quot;forced-color-adjust: none;&quot;&gt;&lt;font style=&quot;forced-color-adjust: none; font-size: 22px;&quot;&gt;CUSTOMER&lt;/font&gt;&lt;/i&gt;&lt;/b&gt;" style="text;whiteSpace=wrap;html=1;" parent="1" vertex="1">
          <mxGeometry x="3840" y="2240" width="140" height="40" as="geometry" />
        </mxCell>
        <mxCell id="JcG6peoYhvuAuBua6gRS-61" value="&lt;b style=&quot;forced-color-adjust: none; color: rgb(0, 0, 0); font-family: Helvetica; font-style: normal; font-variant-ligatures: normal; font-variant-caps: normal; letter-spacing: normal; orphans: 2; text-align: center; text-indent: 0px; text-transform: none; widows: 2; word-spacing: 0px; -webkit-text-stroke-width: 0px; white-space: normal; text-decoration-thickness: initial; text-decoration-style: initial; text-decoration-color: initial;&quot;&gt;&lt;i style=&quot;forced-color-adjust: none;&quot;&gt;&lt;font style=&quot;forced-color-adjust: none; font-size: 22px;&quot;&gt;MERCHANT&lt;/font&gt;&lt;/i&gt;&lt;/b&gt;" style="text;whiteSpace=wrap;html=1;" parent="1" vertex="1">
          <mxGeometry x="4280" y="1920" width="140" height="40" as="geometry" />
        </mxCell>
        <mxCell id="JcG6peoYhvuAuBua6gRS-62" style="edgeStyle=orthogonalEdgeStyle;rounded=0;orthogonalLoop=1;jettySize=auto;html=1;exitX=0.5;exitY=1;exitDx=0;exitDy=0;" parent="1" source="JcG6peoYhvuAuBua6gRS-60" target="JcG6peoYhvuAuBua6gRS-60" edge="1">
          <mxGeometry relative="1" as="geometry" />
        </mxCell>
        <mxCell id="JcG6peoYhvuAuBua6gRS-63" value="&lt;i&gt;&lt;u&gt;/setup-profile?type=customer&lt;/u&gt;&lt;/i&gt;&lt;div&gt;&lt;i&gt;&lt;u&gt;/setup-profile?type=merchant&lt;/u&gt;&lt;/i&gt;&lt;/div&gt;" style="text;html=1;align=center;verticalAlign=middle;resizable=0;points=[];autosize=1;strokeColor=none;fillColor=none;" parent="1" vertex="1">
          <mxGeometry x="2400" y="1870" width="180" height="40" as="geometry" />
        </mxCell>
        <mxCell id="JcG6peoYhvuAuBua6gRS-64" value="" style="rounded=0;whiteSpace=wrap;html=1;" parent="1" vertex="1">
          <mxGeometry x="3665" y="2540" width="670" height="410" as="geometry" />
        </mxCell>
        <mxCell id="JcG6peoYhvuAuBua6gRS-65" value="&lt;span style=&quot;font-size: 16px;&quot;&gt;&lt;b&gt;Full Name&lt;/b&gt;&lt;/span&gt;" style="rounded=0;whiteSpace=wrap;html=1;" parent="1" vertex="1">
          <mxGeometry x="3885" y="2610" width="230" height="40" as="geometry" />
        </mxCell>
        <mxCell id="JcG6peoYhvuAuBua6gRS-66" value="&lt;b style=&quot;font-size: 16px;&quot;&gt;HOME&lt;/b&gt;&lt;div&gt;&lt;b style=&quot;font-size: 16px;&quot;&gt;LOCATION ACCESS&lt;/b&gt;&lt;/div&gt;" style="ellipse;shape=doubleEllipse;whiteSpace=wrap;html=1;aspect=fixed;" parent="1" vertex="1">
          <mxGeometry x="3940" y="2730" width="110" height="110" as="geometry" />
        </mxCell>
        <mxCell id="JcG6peoYhvuAuBua6gRS-67" value="&lt;b style=&quot;forced-color-adjust: none; color: rgb(0, 0, 0); font-family: Helvetica; font-style: normal; font-variant-ligatures: normal; font-variant-caps: normal; letter-spacing: normal; orphans: 2; text-align: center; text-indent: 0px; text-transform: none; widows: 2; word-spacing: 0px; -webkit-text-stroke-width: 0px; white-space: normal; background-color: rgb(236, 236, 236); text-decoration-thickness: initial; text-decoration-style: initial; text-decoration-color: initial; font-size: 16px;&quot;&gt;(Display name)&lt;/b&gt;" style="text;whiteSpace=wrap;html=1;" parent="1" vertex="1">
          <mxGeometry x="4125" y="2610" width="125" height="40" as="geometry" />
        </mxCell>
        <mxCell id="JcG6peoYhvuAuBua6gRS-68" style="edgeStyle=orthogonalEdgeStyle;rounded=0;orthogonalLoop=1;jettySize=auto;html=1;entryX=0.5;entryY=0;entryDx=0;entryDy=0;" parent="1" source="JcG6peoYhvuAuBua6gRS-69" target="JcG6peoYhvuAuBua6gRS-70" edge="1">
          <mxGeometry relative="1" as="geometry">
            <mxPoint x="4020.000000000001" y="3140" as="targetPoint" />
          </mxGeometry>
        </mxCell>
        <mxCell id="JcG6peoYhvuAuBua6gRS-69" value="Submit" style="strokeWidth=1;shadow=0;dashed=0;align=center;html=1;shape=mxgraph.mockup.buttons.button;strokeColor=#666666;fontColor=#ffffff;mainText=;buttonStyle=round;fontSize=17;fontStyle=1;fillColor=#008cff;whiteSpace=wrap;" parent="1" vertex="1">
          <mxGeometry x="3931.25" y="2890" width="137.5" height="40" as="geometry" />
        </mxCell>
        <mxCell id="JcG6peoYhvuAuBua6gRS-70" value="&lt;span style=&quot;color: rgb(0, 0, 0); font-family: Helvetica; font-size: 17px; font-style: normal; font-variant-ligatures: normal; font-variant-caps: normal; font-weight: 700; letter-spacing: normal; orphans: 2; text-indent: 0px; text-transform: none; widows: 2; word-spacing: 0px; -webkit-text-stroke-width: 0px; white-space: normal; background-color: rgb(236, 236, 236); text-decoration-thickness: initial; text-decoration-style: initial; text-decoration-color: initial; float: none; display: inline !important;&quot;&gt;POST /api/customer/profile&lt;/span&gt;&lt;div&gt;&lt;span style=&quot;color: rgb(0, 0, 0); font-family: Helvetica; font-size: 17px; font-style: normal; font-variant-ligatures: normal; font-variant-caps: normal; font-weight: 700; letter-spacing: normal; orphans: 2; text-indent: 0px; text-transform: none; widows: 2; word-spacing: 0px; -webkit-text-stroke-width: 0px; white-space: normal; background-color: rgb(236, 236, 236); text-decoration-thickness: initial; text-decoration-style: initial; text-decoration-color: initial; float: none; display: inline !important;&quot;&gt;profile_complete = true&lt;/span&gt;&lt;/div&gt;" style="text;whiteSpace=wrap;html=1;align=center;" parent="1" vertex="1">
          <mxGeometry x="3875" y="3050" width="250" height="40" as="geometry" />
        </mxCell>
        <mxCell id="JcG6peoYhvuAuBua6gRS-71" value="" style="rounded=0;whiteSpace=wrap;html=1;" parent="1" vertex="1">
          <mxGeometry x="4650" y="1420" width="965" height="1119.25" as="geometry" />
        </mxCell>
        <mxCell id="JcG6peoYhvuAuBua6gRS-72" value="&lt;span style=&quot;font-size: 16px;&quot;&gt;&lt;b&gt;Full Name&lt;/b&gt;&lt;/span&gt;" style="rounded=0;whiteSpace=wrap;html=1;" parent="1" vertex="1">
          <mxGeometry x="5010" y="1460" width="230" height="40" as="geometry" />
        </mxCell>
        <mxCell id="JcG6peoYhvuAuBua6gRS-73" value="&lt;span style=&quot;font-size: 16px;&quot;&gt;&lt;b&gt;Shop Location&lt;/b&gt;&lt;/span&gt;" style="ellipse;shape=doubleEllipse;whiteSpace=wrap;html=1;aspect=fixed;" parent="1" vertex="1">
          <mxGeometry x="5077.5" y="1978" width="110" height="110" as="geometry" />
        </mxCell>
        <mxCell id="JcG6peoYhvuAuBua6gRS-74" value="&lt;b style=&quot;forced-color-adjust: none; color: rgb(0, 0, 0); font-family: Helvetica; font-style: normal; font-variant-ligatures: normal; font-variant-caps: normal; letter-spacing: normal; orphans: 2; text-align: center; text-indent: 0px; text-transform: none; widows: 2; word-spacing: 0px; -webkit-text-stroke-width: 0px; white-space: normal; background-color: rgb(236, 236, 236); text-decoration-thickness: initial; text-decoration-style: initial; text-decoration-color: initial; font-size: 16px;&quot;&gt;(Time Picker)&lt;/b&gt;" style="text;whiteSpace=wrap;html=1;" parent="1" vertex="1">
          <mxGeometry x="5255" y="2220" width="110" height="40" as="geometry" />
        </mxCell>
        <mxCell id="JcG6peoYhvuAuBua6gRS-75" style="edgeStyle=orthogonalEdgeStyle;rounded=0;orthogonalLoop=1;jettySize=auto;html=1;" parent="1" source="JcG6peoYhvuAuBua6gRS-76" target="JcG6peoYhvuAuBua6gRS-92" edge="1">
          <mxGeometry relative="1" as="geometry" />
        </mxCell>
        <mxCell id="JcG6peoYhvuAuBua6gRS-76" value="Submit" style="strokeWidth=1;shadow=0;dashed=0;align=center;html=1;shape=mxgraph.mockup.buttons.button;strokeColor=#666666;fontColor=#ffffff;mainText=;buttonStyle=round;fontSize=17;fontStyle=1;fillColor=#008cff;whiteSpace=wrap;" parent="1" vertex="1">
          <mxGeometry x="5056.25" y="2434.25" width="137.5" height="40" as="geometry" />
        </mxCell>
        <mxCell id="JcG6peoYhvuAuBua6gRS-77" value="&lt;span style=&quot;font-size: 16px;&quot;&gt;&lt;b&gt;Opening Hours&lt;/b&gt;&lt;/span&gt;" style="rounded=0;whiteSpace=wrap;html=1;" parent="1" vertex="1">
          <mxGeometry x="5017.5" y="2220" width="230" height="40" as="geometry" />
        </mxCell>
        <mxCell id="JcG6peoYhvuAuBua6gRS-78" value="&lt;span style=&quot;font-size: 16px;&quot;&gt;&lt;b&gt;Shop Name&lt;/b&gt;&lt;/span&gt;" style="rounded=0;whiteSpace=wrap;html=1;" parent="1" vertex="1">
          <mxGeometry x="5010" y="1525" width="230" height="40" as="geometry" />
        </mxCell>
        <mxCell id="JcG6peoYhvuAuBua6gRS-79" value="&lt;span style=&quot;font-size: 16px;&quot;&gt;&lt;b&gt;Shop Address&lt;/b&gt;&lt;/span&gt;" style="rounded=0;whiteSpace=wrap;html=1;" parent="1" vertex="1">
          <mxGeometry x="5017.5" y="2160" width="230" height="40" as="geometry" />
        </mxCell>
        <mxCell id="JcG6peoYhvuAuBua6gRS-80" value="&lt;span style=&quot;font-size: 16px;&quot;&gt;&lt;b&gt;Delivery Number&lt;/b&gt;&lt;/span&gt;" style="rounded=0;whiteSpace=wrap;html=1;" parent="1" vertex="1">
          <mxGeometry x="5017.5" y="2360" width="230" height="40" as="geometry" />
        </mxCell>
        <mxCell id="JcG6peoYhvuAuBua6gRS-81" value="" style="swimlane;shape=mxgraph.bootstrap.anchor;strokeColor=light-dark(#008cff, #ededed);fillColor=#ffffff;fontColor=#666666;fontStyle=0;childLayout=stackLayout;horizontal=1;startSize=0;horizontalStack=0;resizeParent=1;resizeParentMax=0;resizeLast=0;collapsible=0;marginBottom=0;whiteSpace=wrap;html=1;" parent="1" vertex="1">
          <mxGeometry x="5072.5" y="1750" width="120" height="48" as="geometry" />
        </mxCell>
        <mxCell id="JcG6peoYhvuAuBua6gRS-82" value="&lt;font style=&quot;color: rgb(128, 128, 128);&quot;&gt;Books&lt;/font&gt;" style="text;strokeColor=inherit;align=center;verticalAlign=middle;spacingLeft=10;spacingRight=10;overflow=hidden;points=[[0,0.5],[1,0.5]];portConstraint=eastwest;rotatable=0;whiteSpace=wrap;html=1;rSize=5;fillColor=inherit;fontColor=inherit;fontSize=17;fontStyle=1;" parent="JcG6peoYhvuAuBua6gRS-81" vertex="1">
          <mxGeometry width="120" height="24" as="geometry" />
        </mxCell>
        <mxCell id="JcG6peoYhvuAuBua6gRS-83" value="&lt;font style=&quot;background-color: light-dark(#ffffff, var(--ge-dark-color, #121212)); color: rgb(128, 128, 128);&quot;&gt;Fashion&lt;/font&gt;" style="text;strokeColor=inherit;align=center;verticalAlign=middle;spacingLeft=10;spacingRight=10;overflow=hidden;points=[[0,0.5],[1,0.5]];portConstraint=eastwest;rotatable=0;whiteSpace=wrap;html=1;rSize=5;fillColor=inherit;fontColor=inherit;fontSize=17;fontStyle=1;" parent="JcG6peoYhvuAuBua6gRS-81" vertex="1">
          <mxGeometry y="24" width="120" height="24" as="geometry" />
        </mxCell>
        <mxCell id="JcG6peoYhvuAuBua6gRS-84" value="&lt;span style=&quot;background-color: light-dark(#ffffff, var(--ge-dark-color, #121212));&quot;&gt;...&lt;/span&gt;" style="text;strokeColor=#008CFF;align=center;verticalAlign=middle;spacingLeft=10;spacingRight=10;overflow=hidden;points=[[0,0.5],[1,0.5]];portConstraint=eastwest;rotatable=0;whiteSpace=wrap;html=1;shape=mxgraph.mockup.bottomButton;rSize=10;fillColor=inherit;fontColor=inherit;fontSize=17;fontStyle=1;" parent="1" vertex="1">
          <mxGeometry x="5072.5" y="1823" width="120" height="23" as="geometry" />
        </mxCell>
        <mxCell id="JcG6peoYhvuAuBua6gRS-85" value="&lt;font style=&quot;background-color: light-dark(#ffffff, var(--ge-dark-color, #121212)); color: rgb(128, 128, 128);&quot;&gt;Electronics&lt;/font&gt;" style="text;strokeColor=#008CFF;align=center;verticalAlign=middle;spacingLeft=10;spacingRight=10;overflow=hidden;points=[[0,0.5],[1,0.5]];portConstraint=eastwest;rotatable=0;whiteSpace=wrap;html=1;rSize=5;fillColor=inherit;fontColor=inherit;fontSize=17;fontStyle=1;" parent="1" vertex="1">
          <mxGeometry x="5072.5" y="1798" width="120" height="25" as="geometry" />
        </mxCell>
        <mxCell id="JcG6peoYhvuAuBua6gRS-86" value="&lt;font color=&quot;#000000&quot;&gt;Select Shop Category&lt;/font&gt;" style="text;strokeColor=#008CFF;align=center;verticalAlign=middle;spacingLeft=10;spacingRight=10;overflow=hidden;points=[[0,0.5],[1,0.5]];portConstraint=eastwest;rotatable=0;whiteSpace=wrap;html=1;shape=mxgraph.mockup.topButton;rSize=10;fillColor=default;fontColor=#ffffff;fontSize=17;fontStyle=1;" parent="1" vertex="1">
          <mxGeometry x="5072.5" y="1673" width="120" height="50" as="geometry" />
        </mxCell>
        <mxCell id="JcG6peoYhvuAuBua6gRS-87" value="&lt;font color=&quot;#808080&quot;&gt;&lt;span style=&quot;background-color: rgb(255, 255, 255);&quot;&gt;Bakery&lt;/span&gt;&lt;/font&gt;" style="text;strokeColor=#008CFF;align=center;verticalAlign=middle;spacingLeft=10;spacingRight=10;overflow=hidden;points=[[0,0.5],[1,0.5]];portConstraint=eastwest;rotatable=0;whiteSpace=wrap;html=1;rSize=5;fillColor=inherit;fontColor=inherit;fontSize=17;fontStyle=1;" parent="1" vertex="1">
          <mxGeometry x="5072.5" y="1723" width="120" height="27" as="geometry" />
        </mxCell>
        <mxCell id="JcG6peoYhvuAuBua6gRS-88" value="&lt;span style=&quot;font-size: 16px;&quot;&gt;&lt;b&gt;Shop Description&lt;/b&gt;&lt;/span&gt;" style="rounded=0;whiteSpace=wrap;html=1;" parent="1" vertex="1">
          <mxGeometry x="5017.5" y="1895" width="230" height="40" as="geometry" />
        </mxCell>
        <mxCell id="JcG6peoYhvuAuBua6gRS-89" value="&lt;span style=&quot;font-size: 16px;&quot;&gt;&lt;b&gt;Delivery Available?&lt;/b&gt;&lt;/span&gt;" style="rounded=0;whiteSpace=wrap;html=1;" parent="1" vertex="1">
          <mxGeometry x="5017.5" y="2300" width="230" height="40" as="geometry" />
        </mxCell>
        <mxCell id="JcG6peoYhvuAuBua6gRS-90" value="&lt;span style=&quot;white-space: pre;&quot;&gt;&#x9;&lt;span style=&quot;white-space: pre;&quot;&gt;&#x9;&lt;/span&gt;&lt;/span&gt;Yes" style="strokeWidth=1;shadow=0;dashed=0;align=center;html=1;shape=mxgraph.mockup.buttons.onOffButton;gradientColor=none;strokeColor=#999999;buttonState=on;fillColor2=#008cff;fontColor=#ffffff;fontSize=17;mainText=;spacingRight=40;fontStyle=1;whiteSpace=wrap;flipH=1;" parent="1" vertex="1">
          <mxGeometry x="5265" y="2300" width="110" height="40" as="geometry" />
        </mxCell>
        <mxCell id="JcG6peoYhvuAuBua6gRS-91" value="&lt;b style=&quot;forced-color-adjust: none; color: rgb(0, 0, 0); font-family: Helvetica; font-style: normal; font-variant-ligatures: normal; font-variant-caps: normal; letter-spacing: normal; orphans: 2; text-align: center; text-indent: 0px; text-transform: none; widows: 2; word-spacing: 0px; -webkit-text-stroke-width: 0px; white-space: normal; background-color: rgb(236, 236, 236); text-decoration-thickness: initial; text-decoration-style: initial; text-decoration-color: initial; font-size: 16px;&quot;&gt;(if Delivery Available=Yes)&lt;/b&gt;" style="text;whiteSpace=wrap;html=1;" parent="1" vertex="1">
          <mxGeometry x="5255" y="2360" width="217.5" height="40" as="geometry" />
        </mxCell>
        <mxCell id="JcG6peoYhvuAuBua6gRS-92" value="&lt;span style=&quot;color: rgb(0, 0, 0); font-family: Helvetica; font-size: 17px; font-style: normal; font-variant-ligatures: normal; font-variant-caps: normal; font-weight: 700; letter-spacing: normal; orphans: 2; text-indent: 0px; text-transform: none; widows: 2; word-spacing: 0px; -webkit-text-stroke-width: 0px; white-space: normal; background-color: rgb(236, 236, 236); text-decoration-thickness: initial; text-decoration-style: initial; text-decoration-color: initial; float: none; display: inline !important;&quot;&gt;POST /api/merchant/profile&lt;/span&gt;&lt;div&gt;&lt;span style=&quot;color: rgb(0, 0, 0); font-family: Helvetica; font-size: 17px; font-style: normal; font-variant-ligatures: normal; font-variant-caps: normal; font-weight: 700; letter-spacing: normal; orphans: 2; text-indent: 0px; text-transform: none; widows: 2; word-spacing: 0px; -webkit-text-stroke-width: 0px; white-space: normal; background-color: rgb(236, 236, 236); text-decoration-thickness: initial; text-decoration-style: initial; text-decoration-color: initial; float: none; display: inline !important;&quot;&gt;profile_complete = true&lt;/span&gt;&lt;/div&gt;" style="text;whiteSpace=wrap;html=1;align=center;" parent="1" vertex="1">
          <mxGeometry x="5000" y="2639.25" width="250" height="40" as="geometry" />
        </mxCell>
        <mxCell id="JcG6peoYhvuAuBua6gRS-93" value="&lt;span style=&quot;background-color: rgb(255, 170, 212);&quot;&gt;&lt;b style=&quot;&quot;&gt;&lt;i style=&quot;&quot;&gt;&lt;font style=&quot;font-size: 30px;&quot;&gt;LOGIN PAGE&lt;/font&gt;&lt;/i&gt;&lt;/b&gt;&lt;/span&gt;" style="strokeWidth=2;html=1;shape=mxgraph.flowchart.multi-document;whiteSpace=wrap;" parent="1" vertex="1">
          <mxGeometry x="3865" y="3255" width="270" height="130" as="geometry" />
        </mxCell>
        <mxCell id="JcG6peoYhvuAuBua6gRS-94" style="edgeStyle=orthogonalEdgeStyle;rounded=0;orthogonalLoop=1;jettySize=auto;html=1;entryX=0.5;entryY=0;entryDx=0;entryDy=0;entryPerimeter=0;" parent="1" target="JcG6peoYhvuAuBua6gRS-93" edge="1">
          <mxGeometry relative="1" as="geometry">
            <mxPoint x="4000" y="3110" as="sourcePoint" />
          </mxGeometry>
        </mxCell>
        <mxCell id="JcG6peoYhvuAuBua6gRS-95" value="&lt;span style=&quot;background-color: rgb(255, 170, 212);&quot;&gt;&lt;b style=&quot;&quot;&gt;&lt;i style=&quot;&quot;&gt;&lt;font style=&quot;font-size: 30px;&quot;&gt;LOGIN PAGE&lt;/font&gt;&lt;/i&gt;&lt;/b&gt;&lt;/span&gt;" style="strokeWidth=2;html=1;shape=mxgraph.flowchart.multi-document;whiteSpace=wrap;" parent="1" vertex="1">
          <mxGeometry x="4990" y="2840" width="270" height="130" as="geometry" />
        </mxCell>
        <mxCell id="JcG6peoYhvuAuBua6gRS-96" style="edgeStyle=orthogonalEdgeStyle;rounded=0;orthogonalLoop=1;jettySize=auto;html=1;entryX=0.5;entryY=0;entryDx=0;entryDy=0;entryPerimeter=0;" parent="1" target="JcG6peoYhvuAuBua6gRS-95" edge="1">
          <mxGeometry relative="1" as="geometry">
            <mxPoint x="5125" y="2695" as="sourcePoint" />
          </mxGeometry>
        </mxCell>
        <mxCell id="JcG6peoYhvuAuBua6gRS-97" value="Send Link" style="strokeWidth=1;shadow=0;dashed=0;align=center;html=1;shape=mxgraph.mockup.buttons.button;strokeColor=#d6b656;mainText=;buttonStyle=round;fontSize=17;fontStyle=1;fillColor=#fff2cc;whiteSpace=wrap;" parent="1" vertex="1">
          <mxGeometry x="1620" y="1907.5" width="120" height="30" as="geometry" />
        </mxCell>
        <mxCell id="JcG6peoYhvuAuBua6gRS-98" value="&lt;span style=&quot;font-size: 16px;&quot;&gt;&lt;b&gt;Shop Number&lt;/b&gt;&lt;/span&gt;" style="rounded=0;whiteSpace=wrap;html=1;" parent="1" vertex="1">
          <mxGeometry x="5010" y="1590" width="230" height="40" as="geometry" />
        </mxCell>
        <mxCell id="JcG6peoYhvuAuBua6gRS-99" value="&lt;b style=&quot;forced-color-adjust: none; color: rgb(0, 0, 0); font-family: Helvetica; font-style: normal; font-variant-ligatures: normal; font-variant-caps: normal; letter-spacing: normal; orphans: 2; text-align: center; text-indent: 0px; text-transform: none; widows: 2; word-spacing: 0px; -webkit-text-stroke-width: 0px; white-space: normal; background-color: rgb(236, 236, 236); text-decoration-thickness: initial; text-decoration-style: initial; text-decoration-color: initial; font-size: 16px;&quot;&gt;(Display name)&lt;/b&gt;" style="text;whiteSpace=wrap;html=1;" parent="1" vertex="1">
          <mxGeometry x="5250" y="1460" width="125" height="40" as="geometry" />
        </mxCell>
        <mxCell id="JcG6peoYhvuAuBua6gRS-100" value="&lt;b&gt;MULTIPLE&lt;/b&gt;&lt;div&gt;&lt;b&gt;SHOPS?&lt;/b&gt;&lt;/div&gt;" style="rounded=1;whiteSpace=wrap;html=1;strokeWidth=2;fillWeight=4;hachureGap=8;hachureAngle=45;fillColor=#fff2cc;sketch=1;strokeColor=#d6b656;" parent="1" vertex="1">
          <mxGeometry x="5710" y="2434.25" width="120" height="60" as="geometry" />
        </mxCell>
        <mxCell id="JcG6peoYhvuAuBua6gRS-101" value="&lt;b&gt;HOLIDAY&lt;/b&gt;&lt;div&gt;&lt;b&gt;WEEKEND&lt;/b&gt;&lt;/div&gt;&lt;div&gt;&lt;b&gt;TIMINGS?&lt;/b&gt;&lt;/div&gt;" style="rounded=1;whiteSpace=wrap;html=1;strokeWidth=2;fillWeight=4;hachureGap=8;hachureAngle=45;fillColor=#fff2cc;sketch=1;strokeColor=#d6b656;" parent="1" vertex="1">
          <mxGeometry x="5710" y="2355" width="120" height="60" as="geometry" />
        </mxCell>
        <mxCell id="JcG6peoYhvuAuBua6gRS-102" value="&lt;b style=&quot;forced-color-adjust: none; color: rgb(0, 0, 0); font-family: Helvetica; font-style: normal; font-variant-ligatures: normal; font-variant-caps: normal; letter-spacing: normal; orphans: 2; text-align: center; text-indent: 0px; text-transform: none; widows: 2; word-spacing: 0px; -webkit-text-stroke-width: 0px; white-space: normal; background-color: rgb(236, 236, 236); text-decoration-thickness: initial; text-decoration-style: initial; text-decoration-color: initial; font-size: 16px;&quot;&gt;(Location Picker Map)&lt;/b&gt;" style="text;whiteSpace=wrap;html=1;" parent="1" vertex="1">
          <mxGeometry x="5255" y="2013" width="125" height="40" as="geometry" />
        </mxCell>
        <mxCell id="JcG6peoYhvuAuBua6gRS-103" value="&lt;b&gt;&lt;font style=&quot;font-size: 84px;&quot;&gt;Authentication Flow&lt;/font&gt;&lt;/b&gt;" style="text;html=1;align=center;verticalAlign=middle;whiteSpace=wrap;rounded=0;fillColor=#f8cecc;strokeColor=#b85450;" parent="1" vertex="1">
          <mxGeometry x="2304" y="-1403" width="1171" height="123" as="geometry" />
        </mxCell>
        <mxCell id="JcG6peoYhvuAuBua6gRS-104" value="" style="rounded=0;whiteSpace=wrap;html=1;" parent="1" vertex="1">
          <mxGeometry x="7073" y="-1250" width="6240" height="4913" as="geometry" />
        </mxCell>
        <mxCell id="JcG6peoYhvuAuBua6gRS-105" value="&lt;b&gt;&lt;font style=&quot;font-size: 84px;&quot;&gt;Customer Flow&lt;/font&gt;&lt;/b&gt;" style="text;html=1;align=center;verticalAlign=middle;whiteSpace=wrap;rounded=0;fillColor=#f8cecc;strokeColor=#b85450;" parent="1" vertex="1">
          <mxGeometry x="9664" y="-1403" width="1171" height="123" as="geometry" />
        </mxCell>
        <mxCell id="JcG6peoYhvuAuBua6gRS-106" value="" style="rounded=0;whiteSpace=wrap;html=1;" parent="1" vertex="1">
          <mxGeometry x="7073" y="4845" width="6240" height="4913" as="geometry" />
        </mxCell>
        <mxCell id="JcG6peoYhvuAuBua6gRS-107" value="&lt;b&gt;&lt;font style=&quot;font-size: 84px;&quot;&gt;Merchant Flow&lt;/font&gt;&lt;/b&gt;" style="text;html=1;align=center;verticalAlign=middle;whiteSpace=wrap;rounded=0;fillColor=#f8cecc;strokeColor=#b85450;" parent="1" vertex="1">
          <mxGeometry x="9664" y="4692" width="1171" height="123" as="geometry" />
        </mxCell>
      </root>
    </mxGraphModel>
  </diagram>
  <diagram name="Database" id="TfdBoVoxUxus_DEp2CZs">
    <mxGraphModel dx="2251" dy="2657" grid="0" gridSize="10" guides="1" tooltips="1" connect="1" arrows="1" fold="1" page="0" pageScale="1" pageWidth="850" pageHeight="1100" math="0" shadow="0">
      <root>
        <mxCell id="0" />
        <mxCell id="1" parent="0" />
        <mxCell id="zBhF5LTNXpOMRVjiwemU-160" value="users" style="shape=table;startSize=30;container=1;collapsible=0;childLayout=tableLayout;strokeColor=default;fontSize=16;fontFamily=Lucida Console;fontStyle=3" vertex="1" parent="1">
          <mxGeometry x="155" y="294" width="490.0833740234375" height="276.83349609375" as="geometry" />
        </mxCell>
        <mxCell id="zBhF5LTNXpOMRVjiwemU-161" value="" style="shape=tableRow;horizontal=0;startSize=0;swimlaneHead=0;swimlaneBody=0;strokeColor=inherit;top=0;left=0;bottom=0;right=0;collapsible=0;dropTarget=0;fillColor=none;points=[[0,0.5],[1,0.5]];portConstraint=eastwest;fontSize=16;" vertex="1" parent="zBhF5LTNXpOMRVjiwemU-160">
          <mxGeometry y="30" width="490.0833740234375" height="39" as="geometry" />
        </mxCell>
        <mxCell id="zBhF5LTNXpOMRVjiwemU-162" value="&lt;u&gt;&lt;b&gt;Field&lt;/b&gt;&lt;/u&gt;" style="shape=partialRectangle;html=1;whiteSpace=wrap;connectable=0;strokeColor=inherit;overflow=hidden;fillColor=none;top=0;left=0;bottom=0;right=0;pointerEvents=1;fontSize=16;" vertex="1" parent="zBhF5LTNXpOMRVjiwemU-161">
          <mxGeometry width="136" height="39" as="geometry">
            <mxRectangle width="136" height="39" as="alternateBounds" />
          </mxGeometry>
        </mxCell>
        <mxCell id="zBhF5LTNXpOMRVjiwemU-163" value="&lt;b&gt;&lt;u&gt;Type&lt;/u&gt;&lt;/b&gt;" style="shape=partialRectangle;html=1;whiteSpace=wrap;connectable=0;strokeColor=inherit;overflow=hidden;fillColor=none;top=0;left=0;bottom=0;right=0;pointerEvents=1;fontSize=16;" vertex="1" parent="zBhF5LTNXpOMRVjiwemU-161">
          <mxGeometry x="136" width="197" height="39" as="geometry">
            <mxRectangle width="197" height="39" as="alternateBounds" />
          </mxGeometry>
        </mxCell>
        <mxCell id="zBhF5LTNXpOMRVjiwemU-164" value="&lt;b&gt;&lt;u&gt;Notes&lt;/u&gt;&lt;/b&gt;" style="shape=partialRectangle;html=1;whiteSpace=wrap;connectable=0;strokeColor=inherit;overflow=hidden;fillColor=none;top=0;left=0;bottom=0;right=0;pointerEvents=1;fontSize=16;" vertex="1" parent="zBhF5LTNXpOMRVjiwemU-161">
          <mxGeometry x="333" width="157" height="39" as="geometry">
            <mxRectangle width="157" height="39" as="alternateBounds" />
          </mxGeometry>
        </mxCell>
        <mxCell id="zBhF5LTNXpOMRVjiwemU-173" style="shape=tableRow;horizontal=0;startSize=0;swimlaneHead=0;swimlaneBody=0;strokeColor=default;top=0;left=0;bottom=0;right=0;collapsible=0;dropTarget=0;fillColor=none;points=[[0,0.5],[1,0.5]];portConstraint=eastwest;fontSize=16;" vertex="1" parent="zBhF5LTNXpOMRVjiwemU-160">
          <mxGeometry y="69" width="490.0833740234375" height="26" as="geometry" />
        </mxCell>
        <mxCell id="zBhF5LTNXpOMRVjiwemU-174" value="&lt;b&gt;id&lt;/b&gt;" style="shape=partialRectangle;html=1;whiteSpace=wrap;connectable=0;strokeColor=#82b366;overflow=hidden;fillColor=#d5e8d4;top=0;left=0;bottom=0;right=0;pointerEvents=1;fontSize=12;" vertex="1" parent="zBhF5LTNXpOMRVjiwemU-173">
          <mxGeometry width="136" height="26" as="geometry">
            <mxRectangle width="136" height="26" as="alternateBounds" />
          </mxGeometry>
        </mxCell>
        <mxCell id="zBhF5LTNXpOMRVjiwemU-175" value="UUID" style="shape=partialRectangle;html=1;whiteSpace=wrap;connectable=0;strokeColor=#82b366;overflow=hidden;fillColor=#d5e8d4;top=0;left=0;bottom=0;right=0;pointerEvents=1;fontSize=12;fontStyle=1" vertex="1" parent="zBhF5LTNXpOMRVjiwemU-173">
          <mxGeometry x="136" width="197" height="26" as="geometry">
            <mxRectangle width="197" height="26" as="alternateBounds" />
          </mxGeometry>
        </mxCell>
        <mxCell id="zBhF5LTNXpOMRVjiwemU-176" value="&lt;div&gt;Primary key&lt;/div&gt;" style="shape=partialRectangle;html=1;whiteSpace=wrap;connectable=0;strokeColor=default;overflow=hidden;fillColor=#d5e8d4;top=0;left=0;bottom=0;right=0;pointerEvents=1;fontSize=14;labelBorderColor=none;" vertex="1" parent="zBhF5LTNXpOMRVjiwemU-173">
          <mxGeometry x="333" width="157" height="26" as="geometry">
            <mxRectangle width="157" height="26" as="alternateBounds" />
          </mxGeometry>
        </mxCell>
        <mxCell id="zBhF5LTNXpOMRVjiwemU-177" style="shape=tableRow;horizontal=0;startSize=0;swimlaneHead=0;swimlaneBody=0;strokeColor=inherit;top=0;left=0;bottom=0;right=0;collapsible=0;dropTarget=0;fillColor=none;points=[[0,0.5],[1,0.5]];portConstraint=eastwest;fontSize=16;" vertex="1" parent="zBhF5LTNXpOMRVjiwemU-160">
          <mxGeometry y="95" width="490.0833740234375" height="26" as="geometry" />
        </mxCell>
        <mxCell id="zBhF5LTNXpOMRVjiwemU-178" value="&lt;b&gt;email&lt;/b&gt;" style="shape=partialRectangle;html=1;whiteSpace=wrap;connectable=0;strokeColor=inherit;overflow=hidden;fillColor=none;top=0;left=0;bottom=0;right=0;pointerEvents=1;fontSize=12;" vertex="1" parent="zBhF5LTNXpOMRVjiwemU-177">
          <mxGeometry width="136" height="26" as="geometry">
            <mxRectangle width="136" height="26" as="alternateBounds" />
          </mxGeometry>
        </mxCell>
        <mxCell id="zBhF5LTNXpOMRVjiwemU-179" value="VARCHAR" style="shape=partialRectangle;html=1;whiteSpace=wrap;connectable=0;strokeColor=inherit;overflow=hidden;fillColor=none;top=0;left=0;bottom=0;right=0;pointerEvents=1;fontSize=12;fontStyle=1" vertex="1" parent="zBhF5LTNXpOMRVjiwemU-177">
          <mxGeometry x="136" width="197" height="26" as="geometry">
            <mxRectangle width="197" height="26" as="alternateBounds" />
          </mxGeometry>
        </mxCell>
        <mxCell id="zBhF5LTNXpOMRVjiwemU-180" value="&lt;div&gt;Unique (can be null)&lt;/div&gt;" style="shape=partialRectangle;html=1;whiteSpace=wrap;connectable=0;strokeColor=inherit;overflow=hidden;fillColor=none;top=0;left=0;bottom=0;right=0;pointerEvents=1;fontSize=14;" vertex="1" parent="zBhF5LTNXpOMRVjiwemU-177">
          <mxGeometry x="333" width="157" height="26" as="geometry">
            <mxRectangle width="157" height="26" as="alternateBounds" />
          </mxGeometry>
        </mxCell>
        <mxCell id="ULcYI1Vk56wWsks6WGYy-1" style="shape=tableRow;horizontal=0;startSize=0;swimlaneHead=0;swimlaneBody=0;strokeColor=inherit;top=0;left=0;bottom=0;right=0;collapsible=0;dropTarget=0;fillColor=none;points=[[0,0.5],[1,0.5]];portConstraint=eastwest;fontSize=16;" vertex="1" parent="zBhF5LTNXpOMRVjiwemU-160">
          <mxGeometry y="121" width="490.0833740234375" height="26" as="geometry" />
        </mxCell>
        <mxCell id="ULcYI1Vk56wWsks6WGYy-2" value="&lt;b&gt;phone&lt;/b&gt;" style="shape=partialRectangle;html=1;whiteSpace=wrap;connectable=0;strokeColor=inherit;overflow=hidden;fillColor=none;top=0;left=0;bottom=0;right=0;pointerEvents=1;fontSize=12;" vertex="1" parent="ULcYI1Vk56wWsks6WGYy-1">
          <mxGeometry width="136" height="26" as="geometry">
            <mxRectangle width="136" height="26" as="alternateBounds" />
          </mxGeometry>
        </mxCell>
        <mxCell id="ULcYI1Vk56wWsks6WGYy-3" value="VARCHAR" style="shape=partialRectangle;html=1;whiteSpace=wrap;connectable=0;strokeColor=inherit;overflow=hidden;fillColor=none;top=0;left=0;bottom=0;right=0;pointerEvents=1;fontSize=12;fontStyle=1" vertex="1" parent="ULcYI1Vk56wWsks6WGYy-1">
          <mxGeometry x="136" width="197" height="26" as="geometry">
            <mxRectangle width="197" height="26" as="alternateBounds" />
          </mxGeometry>
        </mxCell>
        <mxCell id="ULcYI1Vk56wWsks6WGYy-4" value="&lt;div&gt;Unique (can be null)&lt;/div&gt;" style="shape=partialRectangle;html=1;whiteSpace=wrap;connectable=0;strokeColor=inherit;overflow=hidden;fillColor=none;top=0;left=0;bottom=0;right=0;pointerEvents=1;fontSize=14;" vertex="1" parent="ULcYI1Vk56wWsks6WGYy-1">
          <mxGeometry x="333" width="157" height="26" as="geometry">
            <mxRectangle width="157" height="26" as="alternateBounds" />
          </mxGeometry>
        </mxCell>
        <mxCell id="zBhF5LTNXpOMRVjiwemU-181" style="shape=tableRow;horizontal=0;startSize=0;swimlaneHead=0;swimlaneBody=0;strokeColor=inherit;top=0;left=0;bottom=0;right=0;collapsible=0;dropTarget=0;fillColor=none;points=[[0,0.5],[1,0.5]];portConstraint=eastwest;fontSize=16;" vertex="1" parent="zBhF5LTNXpOMRVjiwemU-160">
          <mxGeometry y="147" width="490.0833740234375" height="26" as="geometry" />
        </mxCell>
        <mxCell id="zBhF5LTNXpOMRVjiwemU-182" value="password_hash" style="shape=partialRectangle;html=1;whiteSpace=wrap;connectable=0;strokeColor=inherit;overflow=hidden;fillColor=none;top=0;left=0;bottom=0;right=0;pointerEvents=1;fontSize=12;fontStyle=1" vertex="1" parent="zBhF5LTNXpOMRVjiwemU-181">
          <mxGeometry width="136" height="26" as="geometry">
            <mxRectangle width="136" height="26" as="alternateBounds" />
          </mxGeometry>
        </mxCell>
        <mxCell id="zBhF5LTNXpOMRVjiwemU-183" value="&lt;font style=&quot;font-size: 12px;&quot;&gt;VARCHAR&lt;/font&gt;" style="shape=partialRectangle;html=1;whiteSpace=wrap;connectable=0;strokeColor=inherit;overflow=hidden;fillColor=none;top=0;left=0;bottom=0;right=0;pointerEvents=1;fontSize=14;fontStyle=1" vertex="1" parent="zBhF5LTNXpOMRVjiwemU-181">
          <mxGeometry x="136" width="197" height="26" as="geometry">
            <mxRectangle width="197" height="26" as="alternateBounds" />
          </mxGeometry>
        </mxCell>
        <mxCell id="zBhF5LTNXpOMRVjiwemU-184" value="Hashed" style="shape=partialRectangle;html=1;whiteSpace=wrap;connectable=0;strokeColor=inherit;overflow=hidden;fillColor=none;top=0;left=0;bottom=0;right=0;pointerEvents=1;fontSize=14;" vertex="1" parent="zBhF5LTNXpOMRVjiwemU-181">
          <mxGeometry x="333" width="157" height="26" as="geometry">
            <mxRectangle width="157" height="26" as="alternateBounds" />
          </mxGeometry>
        </mxCell>
        <mxCell id="zBhF5LTNXpOMRVjiwemU-189" style="shape=tableRow;horizontal=0;startSize=0;swimlaneHead=0;swimlaneBody=0;strokeColor=inherit;top=0;left=0;bottom=0;right=0;collapsible=0;dropTarget=0;fillColor=none;points=[[0,0.5],[1,0.5]];portConstraint=eastwest;fontSize=16;" vertex="1" parent="zBhF5LTNXpOMRVjiwemU-160">
          <mxGeometry y="173" width="490.0833740234375" height="26" as="geometry" />
        </mxCell>
        <mxCell id="zBhF5LTNXpOMRVjiwemU-190" value="role" style="shape=partialRectangle;html=1;whiteSpace=wrap;connectable=0;strokeColor=inherit;overflow=hidden;fillColor=none;top=0;left=0;bottom=0;right=0;pointerEvents=1;fontSize=12;fontStyle=1" vertex="1" parent="zBhF5LTNXpOMRVjiwemU-189">
          <mxGeometry width="136" height="26" as="geometry">
            <mxRectangle width="136" height="26" as="alternateBounds" />
          </mxGeometry>
        </mxCell>
        <mxCell id="zBhF5LTNXpOMRVjiwemU-191" value="&lt;font style=&quot;font-size: 11px;&quot;&gt;ENUM (&#39;CUSTOMER&#39;, &#39;MERCHANT&#39;)&lt;/font&gt;" style="shape=partialRectangle;html=1;whiteSpace=wrap;connectable=0;strokeColor=inherit;overflow=hidden;fillColor=none;top=0;left=0;bottom=0;right=0;pointerEvents=1;fontSize=14;fontStyle=1" vertex="1" parent="zBhF5LTNXpOMRVjiwemU-189">
          <mxGeometry x="136" width="197" height="26" as="geometry">
            <mxRectangle width="197" height="26" as="alternateBounds" />
          </mxGeometry>
        </mxCell>
        <mxCell id="zBhF5LTNXpOMRVjiwemU-192" value="2 Values Only" style="shape=partialRectangle;html=1;whiteSpace=wrap;connectable=0;strokeColor=inherit;overflow=hidden;fillColor=none;top=0;left=0;bottom=0;right=0;pointerEvents=1;fontSize=14;" vertex="1" parent="zBhF5LTNXpOMRVjiwemU-189">
          <mxGeometry x="333" width="157" height="26" as="geometry">
            <mxRectangle width="157" height="26" as="alternateBounds" />
          </mxGeometry>
        </mxCell>
        <mxCell id="zBhF5LTNXpOMRVjiwemU-193" style="shape=tableRow;horizontal=0;startSize=0;swimlaneHead=0;swimlaneBody=0;strokeColor=inherit;top=0;left=0;bottom=0;right=0;collapsible=0;dropTarget=0;fillColor=none;points=[[0,0.5],[1,0.5]];portConstraint=eastwest;fontSize=16;" vertex="1" parent="zBhF5LTNXpOMRVjiwemU-160">
          <mxGeometry y="199" width="490.0833740234375" height="26" as="geometry" />
        </mxCell>
        <mxCell id="zBhF5LTNXpOMRVjiwemU-194" value="is_verified" style="shape=partialRectangle;html=1;whiteSpace=wrap;connectable=0;strokeColor=inherit;overflow=hidden;fillColor=none;top=0;left=0;bottom=0;right=0;pointerEvents=1;fontSize=12;fontStyle=1" vertex="1" parent="zBhF5LTNXpOMRVjiwemU-193">
          <mxGeometry width="136" height="26" as="geometry">
            <mxRectangle width="136" height="26" as="alternateBounds" />
          </mxGeometry>
        </mxCell>
        <mxCell id="zBhF5LTNXpOMRVjiwemU-195" value="&lt;span style=&quot;font-size: 12px; font-weight: 700;&quot;&gt;BOOLEAN&lt;/span&gt;" style="shape=partialRectangle;html=1;whiteSpace=wrap;connectable=0;strokeColor=inherit;overflow=hidden;fillColor=none;top=0;left=0;bottom=0;right=0;pointerEvents=1;fontSize=14;fontStyle=0" vertex="1" parent="zBhF5LTNXpOMRVjiwemU-193">
          <mxGeometry x="136" width="197" height="26" as="geometry">
            <mxRectangle width="197" height="26" as="alternateBounds" />
          </mxGeometry>
        </mxCell>
        <mxCell id="zBhF5LTNXpOMRVjiwemU-196" value="After email verification" style="shape=partialRectangle;html=1;whiteSpace=wrap;connectable=0;strokeColor=inherit;overflow=hidden;fillColor=none;top=0;left=0;bottom=0;right=0;pointerEvents=1;fontSize=14;" vertex="1" parent="zBhF5LTNXpOMRVjiwemU-193">
          <mxGeometry x="333" width="157" height="26" as="geometry">
            <mxRectangle width="157" height="26" as="alternateBounds" />
          </mxGeometry>
        </mxCell>
        <mxCell id="zBhF5LTNXpOMRVjiwemU-197" style="shape=tableRow;horizontal=0;startSize=0;swimlaneHead=0;swimlaneBody=0;strokeColor=inherit;top=0;left=0;bottom=0;right=0;collapsible=0;dropTarget=0;fillColor=none;points=[[0,0.5],[1,0.5]];portConstraint=eastwest;fontSize=16;" vertex="1" parent="zBhF5LTNXpOMRVjiwemU-160">
          <mxGeometry y="225" width="490.0833740234375" height="26" as="geometry" />
        </mxCell>
        <mxCell id="zBhF5LTNXpOMRVjiwemU-198" value="profile_complete" style="shape=partialRectangle;html=1;whiteSpace=wrap;connectable=0;strokeColor=inherit;overflow=hidden;fillColor=none;top=0;left=0;bottom=0;right=0;pointerEvents=1;fontSize=12;fontStyle=1" vertex="1" parent="zBhF5LTNXpOMRVjiwemU-197">
          <mxGeometry width="136" height="26" as="geometry">
            <mxRectangle width="136" height="26" as="alternateBounds" />
          </mxGeometry>
        </mxCell>
        <mxCell id="zBhF5LTNXpOMRVjiwemU-199" value="&lt;span style=&quot;font-size: 12px; font-weight: 700;&quot;&gt;BOOLEAN&lt;/span&gt;" style="shape=partialRectangle;html=1;whiteSpace=wrap;connectable=0;strokeColor=inherit;overflow=hidden;fillColor=none;top=0;left=0;bottom=0;right=0;pointerEvents=1;fontSize=14;fontStyle=0" vertex="1" parent="zBhF5LTNXpOMRVjiwemU-197">
          <mxGeometry x="136" width="197" height="26" as="geometry">
            <mxRectangle width="197" height="26" as="alternateBounds" />
          </mxGeometry>
        </mxCell>
        <mxCell id="zBhF5LTNXpOMRVjiwemU-200" value="After setup page" style="shape=partialRectangle;html=1;whiteSpace=wrap;connectable=0;strokeColor=inherit;overflow=hidden;fillColor=none;top=0;left=0;bottom=0;right=0;pointerEvents=1;fontSize=14;" vertex="1" parent="zBhF5LTNXpOMRVjiwemU-197">
          <mxGeometry x="333" width="157" height="26" as="geometry">
            <mxRectangle width="157" height="26" as="alternateBounds" />
          </mxGeometry>
        </mxCell>
        <mxCell id="JZR_VX84wcCbiScXoWuU-5" style="shape=tableRow;horizontal=0;startSize=0;swimlaneHead=0;swimlaneBody=0;strokeColor=inherit;top=0;left=0;bottom=0;right=0;collapsible=0;dropTarget=0;fillColor=none;points=[[0,0.5],[1,0.5]];portConstraint=eastwest;fontSize=16;" vertex="1" parent="zBhF5LTNXpOMRVjiwemU-160">
          <mxGeometry y="251" width="490.0833740234375" height="26" as="geometry" />
        </mxCell>
        <mxCell id="JZR_VX84wcCbiScXoWuU-6" value="created_at" style="shape=partialRectangle;html=1;whiteSpace=wrap;connectable=0;strokeColor=inherit;overflow=hidden;fillColor=none;top=0;left=0;bottom=0;right=0;pointerEvents=1;fontSize=12;fontStyle=1" vertex="1" parent="JZR_VX84wcCbiScXoWuU-5">
          <mxGeometry width="136" height="26" as="geometry">
            <mxRectangle width="136" height="26" as="alternateBounds" />
          </mxGeometry>
        </mxCell>
        <mxCell id="JZR_VX84wcCbiScXoWuU-7" value="TIMESTAMP" style="shape=partialRectangle;html=1;whiteSpace=wrap;connectable=0;strokeColor=inherit;overflow=hidden;fillColor=none;top=0;left=0;bottom=0;right=0;pointerEvents=1;fontSize=14;fontStyle=0" vertex="1" parent="JZR_VX84wcCbiScXoWuU-5">
          <mxGeometry x="136" width="197" height="26" as="geometry">
            <mxRectangle width="197" height="26" as="alternateBounds" />
          </mxGeometry>
        </mxCell>
        <mxCell id="JZR_VX84wcCbiScXoWuU-8" value="User creation date" style="shape=partialRectangle;html=1;whiteSpace=wrap;connectable=0;strokeColor=inherit;overflow=hidden;fillColor=none;top=0;left=0;bottom=0;right=0;pointerEvents=1;fontSize=14;" vertex="1" parent="JZR_VX84wcCbiScXoWuU-5">
          <mxGeometry x="333" width="157" height="26" as="geometry">
            <mxRectangle width="157" height="26" as="alternateBounds" />
          </mxGeometry>
        </mxCell>
        <mxCell id="BKTfwsJTgoyWICiSg3tw-3" value="customers" style="shape=table;startSize=30;container=1;collapsible=0;childLayout=tableLayout;strokeColor=default;fontSize=16;fontFamily=Lucida Console;fontStyle=3" vertex="1" parent="1">
          <mxGeometry x="155" y="-17" width="490.0833740234375" height="172.83349609375" as="geometry" />
        </mxCell>
        <mxCell id="BKTfwsJTgoyWICiSg3tw-4" value="" style="shape=tableRow;horizontal=0;startSize=0;swimlaneHead=0;swimlaneBody=0;strokeColor=inherit;top=0;left=0;bottom=0;right=0;collapsible=0;dropTarget=0;fillColor=none;points=[[0,0.5],[1,0.5]];portConstraint=eastwest;fontSize=16;" vertex="1" parent="BKTfwsJTgoyWICiSg3tw-3">
          <mxGeometry y="30" width="490.0833740234375" height="39" as="geometry" />
        </mxCell>
        <mxCell id="BKTfwsJTgoyWICiSg3tw-5" value="&lt;u&gt;&lt;b&gt;Field&lt;/b&gt;&lt;/u&gt;" style="shape=partialRectangle;html=1;whiteSpace=wrap;connectable=0;strokeColor=inherit;overflow=hidden;fillColor=none;top=0;left=0;bottom=0;right=0;pointerEvents=1;fontSize=16;" vertex="1" parent="BKTfwsJTgoyWICiSg3tw-4">
          <mxGeometry width="136" height="39" as="geometry">
            <mxRectangle width="136" height="39" as="alternateBounds" />
          </mxGeometry>
        </mxCell>
        <mxCell id="BKTfwsJTgoyWICiSg3tw-6" value="&lt;b&gt;&lt;u&gt;Type&lt;/u&gt;&lt;/b&gt;" style="shape=partialRectangle;html=1;whiteSpace=wrap;connectable=0;strokeColor=inherit;overflow=hidden;fillColor=none;top=0;left=0;bottom=0;right=0;pointerEvents=1;fontSize=16;" vertex="1" parent="BKTfwsJTgoyWICiSg3tw-4">
          <mxGeometry x="136" width="197" height="39" as="geometry">
            <mxRectangle width="197" height="39" as="alternateBounds" />
          </mxGeometry>
        </mxCell>
        <mxCell id="BKTfwsJTgoyWICiSg3tw-7" value="&lt;b&gt;&lt;u&gt;Notes&lt;/u&gt;&lt;/b&gt;" style="shape=partialRectangle;html=1;whiteSpace=wrap;connectable=0;strokeColor=inherit;overflow=hidden;fillColor=none;top=0;left=0;bottom=0;right=0;pointerEvents=1;fontSize=16;" vertex="1" parent="BKTfwsJTgoyWICiSg3tw-4">
          <mxGeometry x="333" width="157" height="39" as="geometry">
            <mxRectangle width="157" height="39" as="alternateBounds" />
          </mxGeometry>
        </mxCell>
        <mxCell id="BKTfwsJTgoyWICiSg3tw-8" style="shape=tableRow;horizontal=0;startSize=0;swimlaneHead=0;swimlaneBody=0;strokeColor=inherit;top=0;left=0;bottom=0;right=0;collapsible=0;dropTarget=0;fillColor=none;points=[[0,0.5],[1,0.5]];portConstraint=eastwest;fontSize=16;" vertex="1" parent="BKTfwsJTgoyWICiSg3tw-3">
          <mxGeometry y="69" width="490.0833740234375" height="26" as="geometry" />
        </mxCell>
        <mxCell id="BKTfwsJTgoyWICiSg3tw-9" value="&lt;b&gt;id&lt;/b&gt;" style="shape=partialRectangle;html=1;whiteSpace=wrap;connectable=0;strokeColor=#9673a6;overflow=hidden;fillColor=#e1d5e7;top=0;left=0;bottom=0;right=0;pointerEvents=1;fontSize=12;" vertex="1" parent="BKTfwsJTgoyWICiSg3tw-8">
          <mxGeometry width="136" height="26" as="geometry">
            <mxRectangle width="136" height="26" as="alternateBounds" />
          </mxGeometry>
        </mxCell>
        <mxCell id="BKTfwsJTgoyWICiSg3tw-10" value="UUID" style="shape=partialRectangle;html=1;whiteSpace=wrap;connectable=0;strokeColor=#9673a6;overflow=hidden;fillColor=#e1d5e7;top=0;left=0;bottom=0;right=0;pointerEvents=1;fontSize=12;fontStyle=1" vertex="1" parent="BKTfwsJTgoyWICiSg3tw-8">
          <mxGeometry x="136" width="197" height="26" as="geometry">
            <mxRectangle width="197" height="26" as="alternateBounds" />
          </mxGeometry>
        </mxCell>
        <mxCell id="BKTfwsJTgoyWICiSg3tw-11" value="&lt;div&gt;F. K to users.id&lt;/div&gt;" style="shape=partialRectangle;html=1;whiteSpace=wrap;connectable=0;strokeColor=#9673a6;overflow=hidden;fillColor=#e1d5e7;top=0;left=0;bottom=0;right=0;pointerEvents=1;fontSize=14;" vertex="1" parent="BKTfwsJTgoyWICiSg3tw-8">
          <mxGeometry x="333" width="157" height="26" as="geometry">
            <mxRectangle width="157" height="26" as="alternateBounds" />
          </mxGeometry>
        </mxCell>
        <mxCell id="BKTfwsJTgoyWICiSg3tw-12" style="shape=tableRow;horizontal=0;startSize=0;swimlaneHead=0;swimlaneBody=0;strokeColor=inherit;top=0;left=0;bottom=0;right=0;collapsible=0;dropTarget=0;fillColor=none;points=[[0,0.5],[1,0.5]];portConstraint=eastwest;fontSize=16;" vertex="1" parent="BKTfwsJTgoyWICiSg3tw-3">
          <mxGeometry y="95" width="490.0833740234375" height="26" as="geometry" />
        </mxCell>
        <mxCell id="BKTfwsJTgoyWICiSg3tw-13" value="&lt;b&gt;full_name&lt;/b&gt;" style="shape=partialRectangle;html=1;whiteSpace=wrap;connectable=0;strokeColor=inherit;overflow=hidden;fillColor=none;top=0;left=0;bottom=0;right=0;pointerEvents=1;fontSize=12;" vertex="1" parent="BKTfwsJTgoyWICiSg3tw-12">
          <mxGeometry width="136" height="26" as="geometry">
            <mxRectangle width="136" height="26" as="alternateBounds" />
          </mxGeometry>
        </mxCell>
        <mxCell id="BKTfwsJTgoyWICiSg3tw-14" value="VARCHAR" style="shape=partialRectangle;html=1;whiteSpace=wrap;connectable=0;strokeColor=inherit;overflow=hidden;fillColor=none;top=0;left=0;bottom=0;right=0;pointerEvents=1;fontSize=12;fontStyle=1" vertex="1" parent="BKTfwsJTgoyWICiSg3tw-12">
          <mxGeometry x="136" width="197" height="26" as="geometry">
            <mxRectangle width="197" height="26" as="alternateBounds" />
          </mxGeometry>
        </mxCell>
        <mxCell id="BKTfwsJTgoyWICiSg3tw-15" value="" style="shape=partialRectangle;html=1;whiteSpace=wrap;connectable=0;strokeColor=inherit;overflow=hidden;fillColor=none;top=0;left=0;bottom=0;right=0;pointerEvents=1;fontSize=14;" vertex="1" parent="BKTfwsJTgoyWICiSg3tw-12">
          <mxGeometry x="333" width="157" height="26" as="geometry">
            <mxRectangle width="157" height="26" as="alternateBounds" />
          </mxGeometry>
        </mxCell>
        <mxCell id="DI6yA5amRYQpdxYI4iEM-2" style="shape=tableRow;horizontal=0;startSize=0;swimlaneHead=0;swimlaneBody=0;strokeColor=inherit;top=0;left=0;bottom=0;right=0;collapsible=0;dropTarget=0;fillColor=none;points=[[0,0.5],[1,0.5]];portConstraint=eastwest;fontSize=16;" vertex="1" parent="BKTfwsJTgoyWICiSg3tw-3">
          <mxGeometry y="121" width="490.0833740234375" height="26" as="geometry" />
        </mxCell>
        <mxCell id="DI6yA5amRYQpdxYI4iEM-3" value="home_latitude" style="shape=partialRectangle;html=1;whiteSpace=wrap;connectable=0;strokeColor=inherit;overflow=hidden;fillColor=none;top=0;left=0;bottom=0;right=0;pointerEvents=1;fontSize=12;fontStyle=1" vertex="1" parent="DI6yA5amRYQpdxYI4iEM-2">
          <mxGeometry width="136" height="26" as="geometry">
            <mxRectangle width="136" height="26" as="alternateBounds" />
          </mxGeometry>
        </mxCell>
        <mxCell id="DI6yA5amRYQpdxYI4iEM-4" value="DOUBLE" style="shape=partialRectangle;html=1;whiteSpace=wrap;connectable=0;strokeColor=inherit;overflow=hidden;fillColor=none;top=0;left=0;bottom=0;right=0;pointerEvents=1;fontSize=12;fontStyle=1" vertex="1" parent="DI6yA5amRYQpdxYI4iEM-2">
          <mxGeometry x="136" width="197" height="26" as="geometry">
            <mxRectangle width="197" height="26" as="alternateBounds" />
          </mxGeometry>
        </mxCell>
        <mxCell id="DI6yA5amRYQpdxYI4iEM-5" value="Required" style="shape=partialRectangle;html=1;whiteSpace=wrap;connectable=0;strokeColor=inherit;overflow=hidden;fillColor=none;top=0;left=0;bottom=0;right=0;pointerEvents=1;fontSize=14;" vertex="1" parent="DI6yA5amRYQpdxYI4iEM-2">
          <mxGeometry x="333" width="157" height="26" as="geometry">
            <mxRectangle width="157" height="26" as="alternateBounds" />
          </mxGeometry>
        </mxCell>
        <mxCell id="DI6yA5amRYQpdxYI4iEM-6" style="shape=tableRow;horizontal=0;startSize=0;swimlaneHead=0;swimlaneBody=0;strokeColor=inherit;top=0;left=0;bottom=0;right=0;collapsible=0;dropTarget=0;fillColor=none;points=[[0,0.5],[1,0.5]];portConstraint=eastwest;fontSize=16;" vertex="1" parent="BKTfwsJTgoyWICiSg3tw-3">
          <mxGeometry y="147" width="490.0833740234375" height="26" as="geometry" />
        </mxCell>
        <mxCell id="DI6yA5amRYQpdxYI4iEM-7" value="home_longitude" style="shape=partialRectangle;html=1;whiteSpace=wrap;connectable=0;strokeColor=inherit;overflow=hidden;fillColor=none;top=0;left=0;bottom=0;right=0;pointerEvents=1;fontSize=12;fontStyle=1" vertex="1" parent="DI6yA5amRYQpdxYI4iEM-6">
          <mxGeometry width="136" height="26" as="geometry">
            <mxRectangle width="136" height="26" as="alternateBounds" />
          </mxGeometry>
        </mxCell>
        <mxCell id="DI6yA5amRYQpdxYI4iEM-8" value="DOUBLE" style="shape=partialRectangle;html=1;whiteSpace=wrap;connectable=0;strokeColor=inherit;overflow=hidden;fillColor=none;top=0;left=0;bottom=0;right=0;pointerEvents=1;fontSize=12;fontStyle=1" vertex="1" parent="DI6yA5amRYQpdxYI4iEM-6">
          <mxGeometry x="136" width="197" height="26" as="geometry">
            <mxRectangle width="197" height="26" as="alternateBounds" />
          </mxGeometry>
        </mxCell>
        <mxCell id="DI6yA5amRYQpdxYI4iEM-9" value="Required" style="shape=partialRectangle;html=1;whiteSpace=wrap;connectable=0;strokeColor=inherit;overflow=hidden;fillColor=none;top=0;left=0;bottom=0;right=0;pointerEvents=1;fontSize=14;" vertex="1" parent="DI6yA5amRYQpdxYI4iEM-6">
          <mxGeometry x="333" width="157" height="26" as="geometry">
            <mxRectangle width="157" height="26" as="alternateBounds" />
          </mxGeometry>
        </mxCell>
        <mxCell id="DI6yA5amRYQpdxYI4iEM-10" value="merchants" style="shape=table;startSize=30;container=1;collapsible=0;childLayout=tableLayout;strokeColor=default;fontSize=16;fontFamily=Lucida Console;fontStyle=3" vertex="1" parent="1">
          <mxGeometry x="848.9999999999999" y="-17" width="490.0833740234375" height="120.83349609375" as="geometry" />
        </mxCell>
        <mxCell id="DI6yA5amRYQpdxYI4iEM-11" value="" style="shape=tableRow;horizontal=0;startSize=0;swimlaneHead=0;swimlaneBody=0;strokeColor=inherit;top=0;left=0;bottom=0;right=0;collapsible=0;dropTarget=0;fillColor=none;points=[[0,0.5],[1,0.5]];portConstraint=eastwest;fontSize=16;" vertex="1" parent="DI6yA5amRYQpdxYI4iEM-10">
          <mxGeometry y="30" width="490.0833740234375" height="39" as="geometry" />
        </mxCell>
        <mxCell id="DI6yA5amRYQpdxYI4iEM-12" value="&lt;u&gt;&lt;b&gt;Field&lt;/b&gt;&lt;/u&gt;" style="shape=partialRectangle;html=1;whiteSpace=wrap;connectable=0;strokeColor=inherit;overflow=hidden;fillColor=none;top=0;left=0;bottom=0;right=0;pointerEvents=1;fontSize=16;" vertex="1" parent="DI6yA5amRYQpdxYI4iEM-11">
          <mxGeometry width="136" height="39" as="geometry">
            <mxRectangle width="136" height="39" as="alternateBounds" />
          </mxGeometry>
        </mxCell>
        <mxCell id="DI6yA5amRYQpdxYI4iEM-13" value="&lt;b&gt;&lt;u&gt;Type&lt;/u&gt;&lt;/b&gt;" style="shape=partialRectangle;html=1;whiteSpace=wrap;connectable=0;strokeColor=inherit;overflow=hidden;fillColor=none;top=0;left=0;bottom=0;right=0;pointerEvents=1;fontSize=16;" vertex="1" parent="DI6yA5amRYQpdxYI4iEM-11">
          <mxGeometry x="136" width="197" height="39" as="geometry">
            <mxRectangle width="197" height="39" as="alternateBounds" />
          </mxGeometry>
        </mxCell>
        <mxCell id="DI6yA5amRYQpdxYI4iEM-14" value="&lt;b&gt;&lt;u&gt;Notes&lt;/u&gt;&lt;/b&gt;" style="shape=partialRectangle;html=1;whiteSpace=wrap;connectable=0;strokeColor=inherit;overflow=hidden;fillColor=none;top=0;left=0;bottom=0;right=0;pointerEvents=1;fontSize=16;" vertex="1" parent="DI6yA5amRYQpdxYI4iEM-11">
          <mxGeometry x="333" width="157" height="39" as="geometry">
            <mxRectangle width="157" height="39" as="alternateBounds" />
          </mxGeometry>
        </mxCell>
        <mxCell id="DI6yA5amRYQpdxYI4iEM-15" style="shape=tableRow;horizontal=0;startSize=0;swimlaneHead=0;swimlaneBody=0;strokeColor=#9673a6;top=0;left=0;bottom=0;right=0;collapsible=0;dropTarget=0;fillColor=#e1d5e7;points=[[0,0.5],[1,0.5]];portConstraint=eastwest;fontSize=16;" vertex="1" parent="DI6yA5amRYQpdxYI4iEM-10">
          <mxGeometry y="69" width="490.0833740234375" height="26" as="geometry" />
        </mxCell>
        <mxCell id="DI6yA5amRYQpdxYI4iEM-16" value="&lt;b&gt;id&lt;/b&gt;" style="shape=partialRectangle;html=1;whiteSpace=wrap;connectable=0;strokeColor=inherit;overflow=hidden;fillColor=none;top=0;left=0;bottom=0;right=0;pointerEvents=1;fontSize=12;" vertex="1" parent="DI6yA5amRYQpdxYI4iEM-15">
          <mxGeometry width="136" height="26" as="geometry">
            <mxRectangle width="136" height="26" as="alternateBounds" />
          </mxGeometry>
        </mxCell>
        <mxCell id="DI6yA5amRYQpdxYI4iEM-17" value="UUID" style="shape=partialRectangle;html=1;whiteSpace=wrap;connectable=0;strokeColor=inherit;overflow=hidden;fillColor=none;top=0;left=0;bottom=0;right=0;pointerEvents=1;fontSize=12;fontStyle=1" vertex="1" parent="DI6yA5amRYQpdxYI4iEM-15">
          <mxGeometry x="136" width="197" height="26" as="geometry">
            <mxRectangle width="197" height="26" as="alternateBounds" />
          </mxGeometry>
        </mxCell>
        <mxCell id="DI6yA5amRYQpdxYI4iEM-18" value="&lt;div&gt;F. K to users.id&lt;/div&gt;" style="shape=partialRectangle;html=1;whiteSpace=wrap;connectable=0;strokeColor=inherit;overflow=hidden;fillColor=none;top=0;left=0;bottom=0;right=0;pointerEvents=1;fontSize=14;" vertex="1" parent="DI6yA5amRYQpdxYI4iEM-15">
          <mxGeometry x="333" width="157" height="26" as="geometry">
            <mxRectangle width="157" height="26" as="alternateBounds" />
          </mxGeometry>
        </mxCell>
        <mxCell id="DI6yA5amRYQpdxYI4iEM-19" style="shape=tableRow;horizontal=0;startSize=0;swimlaneHead=0;swimlaneBody=0;strokeColor=inherit;top=0;left=0;bottom=0;right=0;collapsible=0;dropTarget=0;fillColor=none;points=[[0,0.5],[1,0.5]];portConstraint=eastwest;fontSize=16;" vertex="1" parent="DI6yA5amRYQpdxYI4iEM-10">
          <mxGeometry y="95" width="490.0833740234375" height="26" as="geometry" />
        </mxCell>
        <mxCell id="DI6yA5amRYQpdxYI4iEM-20" value="&lt;b&gt;full_name&lt;/b&gt;" style="shape=partialRectangle;html=1;whiteSpace=wrap;connectable=0;strokeColor=inherit;overflow=hidden;fillColor=none;top=0;left=0;bottom=0;right=0;pointerEvents=1;fontSize=12;" vertex="1" parent="DI6yA5amRYQpdxYI4iEM-19">
          <mxGeometry width="136" height="26" as="geometry">
            <mxRectangle width="136" height="26" as="alternateBounds" />
          </mxGeometry>
        </mxCell>
        <mxCell id="DI6yA5amRYQpdxYI4iEM-21" value="VARCHAR" style="shape=partialRectangle;html=1;whiteSpace=wrap;connectable=0;strokeColor=inherit;overflow=hidden;fillColor=none;top=0;left=0;bottom=0;right=0;pointerEvents=1;fontSize=12;fontStyle=1" vertex="1" parent="DI6yA5amRYQpdxYI4iEM-19">
          <mxGeometry x="136" width="197" height="26" as="geometry">
            <mxRectangle width="197" height="26" as="alternateBounds" />
          </mxGeometry>
        </mxCell>
        <mxCell id="DI6yA5amRYQpdxYI4iEM-22" value="" style="shape=partialRectangle;html=1;whiteSpace=wrap;connectable=0;strokeColor=inherit;overflow=hidden;fillColor=none;top=0;left=0;bottom=0;right=0;pointerEvents=1;fontSize=14;" vertex="1" parent="DI6yA5amRYQpdxYI4iEM-19">
          <mxGeometry x="333" width="157" height="26" as="geometry">
            <mxRectangle width="157" height="26" as="alternateBounds" />
          </mxGeometry>
        </mxCell>
        <mxCell id="_PIaMZyt-WBJ93KkxoSu-22" style="edgeStyle=orthogonalEdgeStyle;rounded=0;orthogonalLoop=1;jettySize=auto;html=1;exitX=0;exitY=0.5;exitDx=0;exitDy=0;entryX=1;entryY=0.5;entryDx=0;entryDy=0;" edge="1" parent="1" source="DI6yA5amRYQpdxYI4iEM-15" target="zBhF5LTNXpOMRVjiwemU-173">
          <mxGeometry relative="1" as="geometry">
            <mxPoint x="648.0033740234373" y="370.0000000000001" as="targetPoint" />
            <mxPoint x="859.8399999999997" y="47" as="sourcePoint" />
            <Array as="points">
              <mxPoint x="823" y="65" />
              <mxPoint x="823" y="376" />
            </Array>
          </mxGeometry>
        </mxCell>
        <mxCell id="_PIaMZyt-WBJ93KkxoSu-131" value="shops" style="shape=table;startSize=30;container=1;collapsible=0;childLayout=tableLayout;strokeColor=default;fontSize=16;fontFamily=Lucida Console;fontStyle=3" vertex="1" parent="1">
          <mxGeometry x="1586" y="-42" width="490.0833740234375" height="354.83349609375" as="geometry" />
        </mxCell>
        <mxCell id="_PIaMZyt-WBJ93KkxoSu-132" value="" style="shape=tableRow;horizontal=0;startSize=0;swimlaneHead=0;swimlaneBody=0;strokeColor=inherit;top=0;left=0;bottom=0;right=0;collapsible=0;dropTarget=0;fillColor=none;points=[[0,0.5],[1,0.5]];portConstraint=eastwest;fontSize=16;" vertex="1" parent="_PIaMZyt-WBJ93KkxoSu-131">
          <mxGeometry y="30" width="490.0833740234375" height="39" as="geometry" />
        </mxCell>
        <mxCell id="_PIaMZyt-WBJ93KkxoSu-133" value="&lt;u&gt;&lt;b&gt;Field&lt;/b&gt;&lt;/u&gt;" style="shape=partialRectangle;html=1;whiteSpace=wrap;connectable=0;strokeColor=inherit;overflow=hidden;fillColor=none;top=0;left=0;bottom=0;right=0;pointerEvents=1;fontSize=16;" vertex="1" parent="_PIaMZyt-WBJ93KkxoSu-132">
          <mxGeometry width="136" height="39" as="geometry">
            <mxRectangle width="136" height="39" as="alternateBounds" />
          </mxGeometry>
        </mxCell>
        <mxCell id="_PIaMZyt-WBJ93KkxoSu-134" value="&lt;b&gt;&lt;u&gt;Type&lt;/u&gt;&lt;/b&gt;" style="shape=partialRectangle;html=1;whiteSpace=wrap;connectable=0;strokeColor=inherit;overflow=hidden;fillColor=none;top=0;left=0;bottom=0;right=0;pointerEvents=1;fontSize=16;" vertex="1" parent="_PIaMZyt-WBJ93KkxoSu-132">
          <mxGeometry x="136" width="197" height="39" as="geometry">
            <mxRectangle width="197" height="39" as="alternateBounds" />
          </mxGeometry>
        </mxCell>
        <mxCell id="_PIaMZyt-WBJ93KkxoSu-135" value="&lt;b&gt;&lt;u&gt;Notes&lt;/u&gt;&lt;/b&gt;" style="shape=partialRectangle;html=1;whiteSpace=wrap;connectable=0;strokeColor=inherit;overflow=hidden;fillColor=none;top=0;left=0;bottom=0;right=0;pointerEvents=1;fontSize=16;" vertex="1" parent="_PIaMZyt-WBJ93KkxoSu-132">
          <mxGeometry x="333" width="157" height="39" as="geometry">
            <mxRectangle width="157" height="39" as="alternateBounds" />
          </mxGeometry>
        </mxCell>
        <mxCell id="_PIaMZyt-WBJ93KkxoSu-136" style="shape=tableRow;horizontal=0;startSize=0;swimlaneHead=0;swimlaneBody=0;strokeColor=#82b366;top=0;left=0;bottom=0;right=0;collapsible=0;dropTarget=0;fillColor=#d5e8d4;points=[[0,0.5],[1,0.5]];portConstraint=eastwest;fontSize=16;" vertex="1" parent="_PIaMZyt-WBJ93KkxoSu-131">
          <mxGeometry y="69" width="490.0833740234375" height="26" as="geometry" />
        </mxCell>
        <mxCell id="_PIaMZyt-WBJ93KkxoSu-137" value="&lt;b&gt;id&lt;/b&gt;" style="shape=partialRectangle;html=1;whiteSpace=wrap;connectable=0;strokeColor=inherit;overflow=hidden;fillColor=none;top=0;left=0;bottom=0;right=0;pointerEvents=1;fontSize=12;" vertex="1" parent="_PIaMZyt-WBJ93KkxoSu-136">
          <mxGeometry width="136" height="26" as="geometry">
            <mxRectangle width="136" height="26" as="alternateBounds" />
          </mxGeometry>
        </mxCell>
        <mxCell id="_PIaMZyt-WBJ93KkxoSu-138" value="UUID" style="shape=partialRectangle;html=1;whiteSpace=wrap;connectable=0;strokeColor=inherit;overflow=hidden;fillColor=none;top=0;left=0;bottom=0;right=0;pointerEvents=1;fontSize=12;fontStyle=1" vertex="1" parent="_PIaMZyt-WBJ93KkxoSu-136">
          <mxGeometry x="136" width="197" height="26" as="geometry">
            <mxRectangle width="197" height="26" as="alternateBounds" />
          </mxGeometry>
        </mxCell>
        <mxCell id="_PIaMZyt-WBJ93KkxoSu-139" value="&lt;div&gt;Primary key&lt;/div&gt;" style="shape=partialRectangle;html=1;whiteSpace=wrap;connectable=0;strokeColor=inherit;overflow=hidden;fillColor=none;top=0;left=0;bottom=0;right=0;pointerEvents=1;fontSize=14;" vertex="1" parent="_PIaMZyt-WBJ93KkxoSu-136">
          <mxGeometry x="333" width="157" height="26" as="geometry">
            <mxRectangle width="157" height="26" as="alternateBounds" />
          </mxGeometry>
        </mxCell>
        <mxCell id="_PIaMZyt-WBJ93KkxoSu-140" style="shape=tableRow;horizontal=0;startSize=0;swimlaneHead=0;swimlaneBody=0;strokeColor=#9673a6;top=0;left=0;bottom=0;right=0;collapsible=0;dropTarget=0;fillColor=#e1d5e7;points=[[0,0.5],[1,0.5]];portConstraint=eastwest;fontSize=16;" vertex="1" parent="_PIaMZyt-WBJ93KkxoSu-131">
          <mxGeometry y="95" width="490.0833740234375" height="26" as="geometry" />
        </mxCell>
        <mxCell id="_PIaMZyt-WBJ93KkxoSu-141" value="&lt;b&gt;merchant_id&lt;/b&gt;" style="shape=partialRectangle;html=1;whiteSpace=wrap;connectable=0;strokeColor=inherit;overflow=hidden;fillColor=none;top=0;left=0;bottom=0;right=0;pointerEvents=1;fontSize=12;" vertex="1" parent="_PIaMZyt-WBJ93KkxoSu-140">
          <mxGeometry width="136" height="26" as="geometry">
            <mxRectangle width="136" height="26" as="alternateBounds" />
          </mxGeometry>
        </mxCell>
        <mxCell id="_PIaMZyt-WBJ93KkxoSu-142" value="UUID" style="shape=partialRectangle;html=1;whiteSpace=wrap;connectable=0;strokeColor=inherit;overflow=hidden;fillColor=none;top=0;left=0;bottom=0;right=0;pointerEvents=1;fontSize=12;fontStyle=1" vertex="1" parent="_PIaMZyt-WBJ93KkxoSu-140">
          <mxGeometry x="136" width="197" height="26" as="geometry">
            <mxRectangle width="197" height="26" as="alternateBounds" />
          </mxGeometry>
        </mxCell>
        <mxCell id="_PIaMZyt-WBJ93KkxoSu-143" value="F. K to merchants.id" style="shape=partialRectangle;html=1;whiteSpace=wrap;connectable=0;strokeColor=inherit;overflow=hidden;fillColor=none;top=0;left=0;bottom=0;right=0;pointerEvents=1;fontSize=14;" vertex="1" parent="_PIaMZyt-WBJ93KkxoSu-140">
          <mxGeometry x="333" width="157" height="26" as="geometry">
            <mxRectangle width="157" height="26" as="alternateBounds" />
          </mxGeometry>
        </mxCell>
        <mxCell id="_PIaMZyt-WBJ93KkxoSu-148" style="shape=tableRow;horizontal=0;startSize=0;swimlaneHead=0;swimlaneBody=0;strokeColor=inherit;top=0;left=0;bottom=0;right=0;collapsible=0;dropTarget=0;fillColor=none;points=[[0,0.5],[1,0.5]];portConstraint=eastwest;fontSize=16;" vertex="1" parent="_PIaMZyt-WBJ93KkxoSu-131">
          <mxGeometry y="121" width="490.0833740234375" height="26" as="geometry" />
        </mxCell>
        <mxCell id="_PIaMZyt-WBJ93KkxoSu-149" value="&lt;b&gt;name&lt;/b&gt;" style="shape=partialRectangle;html=1;whiteSpace=wrap;connectable=0;strokeColor=inherit;overflow=hidden;fillColor=none;top=0;left=0;bottom=0;right=0;pointerEvents=1;fontSize=12;" vertex="1" parent="_PIaMZyt-WBJ93KkxoSu-148">
          <mxGeometry width="136" height="26" as="geometry">
            <mxRectangle width="136" height="26" as="alternateBounds" />
          </mxGeometry>
        </mxCell>
        <mxCell id="_PIaMZyt-WBJ93KkxoSu-150" value="VARCHAR" style="shape=partialRectangle;html=1;whiteSpace=wrap;connectable=0;strokeColor=inherit;overflow=hidden;fillColor=none;top=0;left=0;bottom=0;right=0;pointerEvents=1;fontSize=12;fontStyle=1" vertex="1" parent="_PIaMZyt-WBJ93KkxoSu-148">
          <mxGeometry x="136" width="197" height="26" as="geometry">
            <mxRectangle width="197" height="26" as="alternateBounds" />
          </mxGeometry>
        </mxCell>
        <mxCell id="_PIaMZyt-WBJ93KkxoSu-151" value="&lt;div&gt;Shop name&lt;/div&gt;" style="shape=partialRectangle;html=1;whiteSpace=wrap;connectable=0;strokeColor=inherit;overflow=hidden;fillColor=none;top=0;left=0;bottom=0;right=0;pointerEvents=1;fontSize=14;" vertex="1" parent="_PIaMZyt-WBJ93KkxoSu-148">
          <mxGeometry x="333" width="157" height="26" as="geometry">
            <mxRectangle width="157" height="26" as="alternateBounds" />
          </mxGeometry>
        </mxCell>
        <mxCell id="BIlWEWUSb-Hw1gL5TzwJ-1" style="shape=tableRow;horizontal=0;startSize=0;swimlaneHead=0;swimlaneBody=0;strokeColor=inherit;top=0;left=0;bottom=0;right=0;collapsible=0;dropTarget=0;fillColor=none;points=[[0,0.5],[1,0.5]];portConstraint=eastwest;fontSize=16;" vertex="1" parent="_PIaMZyt-WBJ93KkxoSu-131">
          <mxGeometry y="147" width="490.0833740234375" height="26" as="geometry" />
        </mxCell>
        <mxCell id="BIlWEWUSb-Hw1gL5TzwJ-2" value="&lt;b&gt;number&lt;/b&gt;" style="shape=partialRectangle;html=1;whiteSpace=wrap;connectable=0;strokeColor=inherit;overflow=hidden;fillColor=none;top=0;left=0;bottom=0;right=0;pointerEvents=1;fontSize=12;" vertex="1" parent="BIlWEWUSb-Hw1gL5TzwJ-1">
          <mxGeometry width="136" height="26" as="geometry">
            <mxRectangle width="136" height="26" as="alternateBounds" />
          </mxGeometry>
        </mxCell>
        <mxCell id="BIlWEWUSb-Hw1gL5TzwJ-3" value="VARCHAR" style="shape=partialRectangle;html=1;whiteSpace=wrap;connectable=0;strokeColor=inherit;overflow=hidden;fillColor=none;top=0;left=0;bottom=0;right=0;pointerEvents=1;fontSize=12;fontStyle=1" vertex="1" parent="BIlWEWUSb-Hw1gL5TzwJ-1">
          <mxGeometry x="136" width="197" height="26" as="geometry">
            <mxRectangle width="197" height="26" as="alternateBounds" />
          </mxGeometry>
        </mxCell>
        <mxCell id="BIlWEWUSb-Hw1gL5TzwJ-4" value="Shop Number" style="shape=partialRectangle;html=1;whiteSpace=wrap;connectable=0;strokeColor=inherit;overflow=hidden;fillColor=none;top=0;left=0;bottom=0;right=0;pointerEvents=1;fontSize=14;" vertex="1" parent="BIlWEWUSb-Hw1gL5TzwJ-1">
          <mxGeometry x="333" width="157" height="26" as="geometry">
            <mxRectangle width="157" height="26" as="alternateBounds" />
          </mxGeometry>
        </mxCell>
        <mxCell id="_PIaMZyt-WBJ93KkxoSu-152" style="shape=tableRow;horizontal=0;startSize=0;swimlaneHead=0;swimlaneBody=0;strokeColor=inherit;top=0;left=0;bottom=0;right=0;collapsible=0;dropTarget=0;fillColor=none;points=[[0,0.5],[1,0.5]];portConstraint=eastwest;fontSize=16;" vertex="1" parent="_PIaMZyt-WBJ93KkxoSu-131">
          <mxGeometry y="173" width="490.0833740234375" height="26" as="geometry" />
        </mxCell>
        <mxCell id="_PIaMZyt-WBJ93KkxoSu-153" value="&lt;b&gt;category&lt;/b&gt;" style="shape=partialRectangle;html=1;whiteSpace=wrap;connectable=0;strokeColor=inherit;overflow=hidden;fillColor=none;top=0;left=0;bottom=0;right=0;pointerEvents=1;fontSize=12;" vertex="1" parent="_PIaMZyt-WBJ93KkxoSu-152">
          <mxGeometry width="136" height="26" as="geometry">
            <mxRectangle width="136" height="26" as="alternateBounds" />
          </mxGeometry>
        </mxCell>
        <mxCell id="_PIaMZyt-WBJ93KkxoSu-154" value="VARCHAR" style="shape=partialRectangle;html=1;whiteSpace=wrap;connectable=0;strokeColor=inherit;overflow=hidden;fillColor=none;top=0;left=0;bottom=0;right=0;pointerEvents=1;fontSize=12;fontStyle=1" vertex="1" parent="_PIaMZyt-WBJ93KkxoSu-152">
          <mxGeometry x="136" width="197" height="26" as="geometry">
            <mxRectangle width="197" height="26" as="alternateBounds" />
          </mxGeometry>
        </mxCell>
        <mxCell id="_PIaMZyt-WBJ93KkxoSu-155" value="Bakery, Books, etc." style="shape=partialRectangle;html=1;whiteSpace=wrap;connectable=0;strokeColor=inherit;overflow=hidden;fillColor=none;top=0;left=0;bottom=0;right=0;pointerEvents=1;fontSize=14;" vertex="1" parent="_PIaMZyt-WBJ93KkxoSu-152">
          <mxGeometry x="333" width="157" height="26" as="geometry">
            <mxRectangle width="157" height="26" as="alternateBounds" />
          </mxGeometry>
        </mxCell>
        <mxCell id="3MoLuXrop0LMkySwhdEF-1" style="shape=tableRow;horizontal=0;startSize=0;swimlaneHead=0;swimlaneBody=0;strokeColor=inherit;top=0;left=0;bottom=0;right=0;collapsible=0;dropTarget=0;fillColor=none;points=[[0,0.5],[1,0.5]];portConstraint=eastwest;fontSize=16;" vertex="1" parent="_PIaMZyt-WBJ93KkxoSu-131">
          <mxGeometry y="199" width="490.0833740234375" height="26" as="geometry" />
        </mxCell>
        <mxCell id="3MoLuXrop0LMkySwhdEF-2" value="&lt;b&gt;description&lt;/b&gt;" style="shape=partialRectangle;html=1;whiteSpace=wrap;connectable=0;strokeColor=inherit;overflow=hidden;fillColor=none;top=0;left=0;bottom=0;right=0;pointerEvents=1;fontSize=12;" vertex="1" parent="3MoLuXrop0LMkySwhdEF-1">
          <mxGeometry width="136" height="26" as="geometry">
            <mxRectangle width="136" height="26" as="alternateBounds" />
          </mxGeometry>
        </mxCell>
        <mxCell id="3MoLuXrop0LMkySwhdEF-3" value="TEXT" style="shape=partialRectangle;html=1;whiteSpace=wrap;connectable=0;strokeColor=inherit;overflow=hidden;fillColor=none;top=0;left=0;bottom=0;right=0;pointerEvents=1;fontSize=12;fontStyle=1" vertex="1" parent="3MoLuXrop0LMkySwhdEF-1">
          <mxGeometry x="136" width="197" height="26" as="geometry">
            <mxRectangle width="197" height="26" as="alternateBounds" />
          </mxGeometry>
        </mxCell>
        <mxCell id="3MoLuXrop0LMkySwhdEF-4" value="Optional" style="shape=partialRectangle;html=1;whiteSpace=wrap;connectable=0;strokeColor=inherit;overflow=hidden;fillColor=none;top=0;left=0;bottom=0;right=0;pointerEvents=1;fontSize=14;" vertex="1" parent="3MoLuXrop0LMkySwhdEF-1">
          <mxGeometry x="333" width="157" height="26" as="geometry">
            <mxRectangle width="157" height="26" as="alternateBounds" />
          </mxGeometry>
        </mxCell>
        <mxCell id="BIlWEWUSb-Hw1gL5TzwJ-5" style="shape=tableRow;horizontal=0;startSize=0;swimlaneHead=0;swimlaneBody=0;strokeColor=#9673a6;top=0;left=0;bottom=0;right=0;collapsible=0;dropTarget=0;fillColor=#e1d5e7;points=[[0,0.5],[1,0.5]];portConstraint=eastwest;fontSize=16;" vertex="1" parent="_PIaMZyt-WBJ93KkxoSu-131">
          <mxGeometry y="225" width="490.0833740234375" height="26" as="geometry" />
        </mxCell>
        <mxCell id="BIlWEWUSb-Hw1gL5TzwJ-6" value="&lt;b&gt;geolocation_id&lt;/b&gt;" style="shape=partialRectangle;html=1;whiteSpace=wrap;connectable=0;strokeColor=inherit;overflow=hidden;fillColor=none;top=0;left=0;bottom=0;right=0;pointerEvents=1;fontSize=12;" vertex="1" parent="BIlWEWUSb-Hw1gL5TzwJ-5">
          <mxGeometry width="136" height="26" as="geometry">
            <mxRectangle width="136" height="26" as="alternateBounds" />
          </mxGeometry>
        </mxCell>
        <mxCell id="BIlWEWUSb-Hw1gL5TzwJ-7" value="UUID" style="shape=partialRectangle;html=1;whiteSpace=wrap;connectable=0;strokeColor=inherit;overflow=hidden;fillColor=none;top=0;left=0;bottom=0;right=0;pointerEvents=1;fontSize=12;fontStyle=1" vertex="1" parent="BIlWEWUSb-Hw1gL5TzwJ-5">
          <mxGeometry x="136" width="197" height="26" as="geometry">
            <mxRectangle width="197" height="26" as="alternateBounds" />
          </mxGeometry>
        </mxCell>
        <mxCell id="BIlWEWUSb-Hw1gL5TzwJ-8" value="F. K to&amp;nbsp;geolocations.id" style="shape=partialRectangle;html=1;whiteSpace=wrap;connectable=0;strokeColor=inherit;overflow=hidden;fillColor=none;top=0;left=0;bottom=0;right=0;pointerEvents=1;fontSize=14;" vertex="1" parent="BIlWEWUSb-Hw1gL5TzwJ-5">
          <mxGeometry x="333" width="157" height="26" as="geometry">
            <mxRectangle width="157" height="26" as="alternateBounds" />
          </mxGeometry>
        </mxCell>
        <mxCell id="3MoLuXrop0LMkySwhdEF-5" style="shape=tableRow;horizontal=0;startSize=0;swimlaneHead=0;swimlaneBody=0;strokeColor=inherit;top=0;left=0;bottom=0;right=0;collapsible=0;dropTarget=0;fillColor=none;points=[[0,0.5],[1,0.5]];portConstraint=eastwest;fontSize=16;" vertex="1" parent="_PIaMZyt-WBJ93KkxoSu-131">
          <mxGeometry y="251" width="490.0833740234375" height="26" as="geometry" />
        </mxCell>
        <mxCell id="3MoLuXrop0LMkySwhdEF-6" value="&lt;b&gt;address&lt;/b&gt;" style="shape=partialRectangle;html=1;whiteSpace=wrap;connectable=0;strokeColor=inherit;overflow=hidden;fillColor=none;top=0;left=0;bottom=0;right=0;pointerEvents=1;fontSize=12;" vertex="1" parent="3MoLuXrop0LMkySwhdEF-5">
          <mxGeometry width="136" height="26" as="geometry">
            <mxRectangle width="136" height="26" as="alternateBounds" />
          </mxGeometry>
        </mxCell>
        <mxCell id="3MoLuXrop0LMkySwhdEF-7" value="TEXT" style="shape=partialRectangle;html=1;whiteSpace=wrap;connectable=0;strokeColor=inherit;overflow=hidden;fillColor=none;top=0;left=0;bottom=0;right=0;pointerEvents=1;fontSize=12;fontStyle=1" vertex="1" parent="3MoLuXrop0LMkySwhdEF-5">
          <mxGeometry x="136" width="197" height="26" as="geometry">
            <mxRectangle width="197" height="26" as="alternateBounds" />
          </mxGeometry>
        </mxCell>
        <mxCell id="3MoLuXrop0LMkySwhdEF-8" style="shape=partialRectangle;html=1;whiteSpace=wrap;connectable=0;strokeColor=inherit;overflow=hidden;fillColor=none;top=0;left=0;bottom=0;right=0;pointerEvents=1;fontSize=14;" vertex="1" parent="3MoLuXrop0LMkySwhdEF-5">
          <mxGeometry x="333" width="157" height="26" as="geometry">
            <mxRectangle width="157" height="26" as="alternateBounds" />
          </mxGeometry>
        </mxCell>
        <mxCell id="3MoLuXrop0LMkySwhdEF-9" style="shape=tableRow;horizontal=0;startSize=0;swimlaneHead=0;swimlaneBody=0;strokeColor=inherit;top=0;left=0;bottom=0;right=0;collapsible=0;dropTarget=0;fillColor=none;points=[[0,0.5],[1,0.5]];portConstraint=eastwest;fontSize=16;" vertex="1" parent="_PIaMZyt-WBJ93KkxoSu-131">
          <mxGeometry y="277" width="490.0833740234375" height="26" as="geometry" />
        </mxCell>
        <mxCell id="3MoLuXrop0LMkySwhdEF-10" value="&lt;b&gt;opening_hours&lt;/b&gt;" style="shape=partialRectangle;html=1;whiteSpace=wrap;connectable=0;strokeColor=inherit;overflow=hidden;fillColor=none;top=0;left=0;bottom=0;right=0;pointerEvents=1;fontSize=12;" vertex="1" parent="3MoLuXrop0LMkySwhdEF-9">
          <mxGeometry width="136" height="26" as="geometry">
            <mxRectangle width="136" height="26" as="alternateBounds" />
          </mxGeometry>
        </mxCell>
        <mxCell id="3MoLuXrop0LMkySwhdEF-11" value="VARCHAR" style="shape=partialRectangle;html=1;whiteSpace=wrap;connectable=0;strokeColor=inherit;overflow=hidden;fillColor=none;top=0;left=0;bottom=0;right=0;pointerEvents=1;fontSize=12;fontStyle=1" vertex="1" parent="3MoLuXrop0LMkySwhdEF-9">
          <mxGeometry x="136" width="197" height="26" as="geometry">
            <mxRectangle width="197" height="26" as="alternateBounds" />
          </mxGeometry>
        </mxCell>
        <mxCell id="3MoLuXrop0LMkySwhdEF-12" value="Optional" style="shape=partialRectangle;html=1;whiteSpace=wrap;connectable=0;strokeColor=inherit;overflow=hidden;fillColor=none;top=0;left=0;bottom=0;right=0;pointerEvents=1;fontSize=14;" vertex="1" parent="3MoLuXrop0LMkySwhdEF-9">
          <mxGeometry x="333" width="157" height="26" as="geometry">
            <mxRectangle width="157" height="26" as="alternateBounds" />
          </mxGeometry>
        </mxCell>
        <mxCell id="3MoLuXrop0LMkySwhdEF-13" style="shape=tableRow;horizontal=0;startSize=0;swimlaneHead=0;swimlaneBody=0;strokeColor=inherit;top=0;left=0;bottom=0;right=0;collapsible=0;dropTarget=0;fillColor=none;points=[[0,0.5],[1,0.5]];portConstraint=eastwest;fontSize=16;" vertex="1" parent="_PIaMZyt-WBJ93KkxoSu-131">
          <mxGeometry y="303" width="490.0833740234375" height="26" as="geometry" />
        </mxCell>
        <mxCell id="3MoLuXrop0LMkySwhdEF-14" value="&lt;b&gt;is_delivery_available&lt;/b&gt;" style="shape=partialRectangle;html=1;whiteSpace=wrap;connectable=0;strokeColor=inherit;overflow=hidden;fillColor=none;top=0;left=0;bottom=0;right=0;pointerEvents=1;fontSize=12;" vertex="1" parent="3MoLuXrop0LMkySwhdEF-13">
          <mxGeometry width="136" height="26" as="geometry">
            <mxRectangle width="136" height="26" as="alternateBounds" />
          </mxGeometry>
        </mxCell>
        <mxCell id="3MoLuXrop0LMkySwhdEF-15" value="BOOLEAN" style="shape=partialRectangle;html=1;whiteSpace=wrap;connectable=0;strokeColor=inherit;overflow=hidden;fillColor=none;top=0;left=0;bottom=0;right=0;pointerEvents=1;fontSize=12;fontStyle=1" vertex="1" parent="3MoLuXrop0LMkySwhdEF-13">
          <mxGeometry x="136" width="197" height="26" as="geometry">
            <mxRectangle width="197" height="26" as="alternateBounds" />
          </mxGeometry>
        </mxCell>
        <mxCell id="3MoLuXrop0LMkySwhdEF-16" value="Default False" style="shape=partialRectangle;html=1;whiteSpace=wrap;connectable=0;strokeColor=inherit;overflow=hidden;fillColor=none;top=0;left=0;bottom=0;right=0;pointerEvents=1;fontSize=14;" vertex="1" parent="3MoLuXrop0LMkySwhdEF-13">
          <mxGeometry x="333" width="157" height="26" as="geometry">
            <mxRectangle width="157" height="26" as="alternateBounds" />
          </mxGeometry>
        </mxCell>
        <mxCell id="OpB11ogPnKixoTM5cPiM-1" style="shape=tableRow;horizontal=0;startSize=0;swimlaneHead=0;swimlaneBody=0;strokeColor=inherit;top=0;left=0;bottom=0;right=0;collapsible=0;dropTarget=0;fillColor=none;points=[[0,0.5],[1,0.5]];portConstraint=eastwest;fontSize=16;" vertex="1" parent="_PIaMZyt-WBJ93KkxoSu-131">
          <mxGeometry y="329" width="490.0833740234375" height="26" as="geometry" />
        </mxCell>
        <mxCell id="OpB11ogPnKixoTM5cPiM-2" value="&lt;b&gt;delivery_number&lt;/b&gt;" style="shape=partialRectangle;html=1;whiteSpace=wrap;connectable=0;strokeColor=inherit;overflow=hidden;fillColor=none;top=0;left=0;bottom=0;right=0;pointerEvents=1;fontSize=12;" vertex="1" parent="OpB11ogPnKixoTM5cPiM-1">
          <mxGeometry width="136" height="26" as="geometry">
            <mxRectangle width="136" height="26" as="alternateBounds" />
          </mxGeometry>
        </mxCell>
        <mxCell id="OpB11ogPnKixoTM5cPiM-3" value="VARCHAR" style="shape=partialRectangle;html=1;whiteSpace=wrap;connectable=0;strokeColor=inherit;overflow=hidden;fillColor=none;top=0;left=0;bottom=0;right=0;pointerEvents=1;fontSize=12;fontStyle=1" vertex="1" parent="OpB11ogPnKixoTM5cPiM-1">
          <mxGeometry x="136" width="197" height="26" as="geometry">
            <mxRectangle width="197" height="26" as="alternateBounds" />
          </mxGeometry>
        </mxCell>
        <mxCell id="OpB11ogPnKixoTM5cPiM-4" style="shape=partialRectangle;html=1;whiteSpace=wrap;connectable=0;strokeColor=inherit;overflow=hidden;fillColor=none;top=0;left=0;bottom=0;right=0;pointerEvents=1;fontSize=14;" vertex="1" parent="OpB11ogPnKixoTM5cPiM-1">
          <mxGeometry x="333" width="157" height="26" as="geometry">
            <mxRectangle width="157" height="26" as="alternateBounds" />
          </mxGeometry>
        </mxCell>
        <mxCell id="BIlWEWUSb-Hw1gL5TzwJ-9" value="" style="endArrow=classic;html=1;rounded=0;entryX=1;entryY=0.5;entryDx=0;entryDy=0;exitX=0;exitY=0.5;exitDx=0;exitDy=0;" edge="1" parent="1" source="_PIaMZyt-WBJ93KkxoSu-140" target="DI6yA5amRYQpdxYI4iEM-15">
          <mxGeometry width="50" height="50" relative="1" as="geometry">
            <mxPoint x="1409" y="258" as="sourcePoint" />
            <mxPoint x="1459" y="208" as="targetPoint" />
          </mxGeometry>
        </mxCell>
        <mxCell id="BIlWEWUSb-Hw1gL5TzwJ-11" value="geolocations" style="shape=table;startSize=30;container=1;collapsible=0;childLayout=tableLayout;strokeColor=default;fontSize=16;fontFamily=Lucida Console;fontStyle=3" vertex="1" parent="1">
          <mxGeometry x="2328" y="114" width="533" height="146.83" as="geometry" />
        </mxCell>
        <mxCell id="BIlWEWUSb-Hw1gL5TzwJ-12" value="" style="shape=tableRow;horizontal=0;startSize=0;swimlaneHead=0;swimlaneBody=0;strokeColor=inherit;top=0;left=0;bottom=0;right=0;collapsible=0;dropTarget=0;fillColor=none;points=[[0,0.5],[1,0.5]];portConstraint=eastwest;fontSize=16;" vertex="1" parent="BIlWEWUSb-Hw1gL5TzwJ-11">
          <mxGeometry y="30" width="533" height="39" as="geometry" />
        </mxCell>
        <mxCell id="BIlWEWUSb-Hw1gL5TzwJ-13" value="&lt;u&gt;&lt;b&gt;Field&lt;/b&gt;&lt;/u&gt;" style="shape=partialRectangle;html=1;whiteSpace=wrap;connectable=0;strokeColor=inherit;overflow=hidden;fillColor=none;top=0;left=0;bottom=0;right=0;pointerEvents=1;fontSize=16;" vertex="1" parent="BIlWEWUSb-Hw1gL5TzwJ-12">
          <mxGeometry width="148" height="39" as="geometry">
            <mxRectangle width="148" height="39" as="alternateBounds" />
          </mxGeometry>
        </mxCell>
        <mxCell id="BIlWEWUSb-Hw1gL5TzwJ-14" value="&lt;b&gt;&lt;u&gt;Type&lt;/u&gt;&lt;/b&gt;" style="shape=partialRectangle;html=1;whiteSpace=wrap;connectable=0;strokeColor=inherit;overflow=hidden;fillColor=none;top=0;left=0;bottom=0;right=0;pointerEvents=1;fontSize=16;" vertex="1" parent="BIlWEWUSb-Hw1gL5TzwJ-12">
          <mxGeometry x="148" width="194" height="39" as="geometry">
            <mxRectangle width="194" height="39" as="alternateBounds" />
          </mxGeometry>
        </mxCell>
        <mxCell id="BIlWEWUSb-Hw1gL5TzwJ-15" value="&lt;b&gt;&lt;u&gt;Notes&lt;/u&gt;&lt;/b&gt;" style="shape=partialRectangle;html=1;whiteSpace=wrap;connectable=0;strokeColor=inherit;overflow=hidden;fillColor=none;top=0;left=0;bottom=0;right=0;pointerEvents=1;fontSize=16;" vertex="1" parent="BIlWEWUSb-Hw1gL5TzwJ-12">
          <mxGeometry x="342" width="191" height="39" as="geometry">
            <mxRectangle width="191" height="39" as="alternateBounds" />
          </mxGeometry>
        </mxCell>
        <mxCell id="BIlWEWUSb-Hw1gL5TzwJ-16" style="shape=tableRow;horizontal=0;startSize=0;swimlaneHead=0;swimlaneBody=0;strokeColor=#82b366;top=0;left=0;bottom=0;right=0;collapsible=0;dropTarget=0;fillColor=#d5e8d4;points=[[0,0.5],[1,0.5]];portConstraint=eastwest;fontSize=16;" vertex="1" parent="BIlWEWUSb-Hw1gL5TzwJ-11">
          <mxGeometry y="69" width="533" height="26" as="geometry" />
        </mxCell>
        <mxCell id="BIlWEWUSb-Hw1gL5TzwJ-17" value="&lt;b&gt;id&lt;/b&gt;" style="shape=partialRectangle;html=1;whiteSpace=wrap;connectable=0;strokeColor=inherit;overflow=hidden;fillColor=none;top=0;left=0;bottom=0;right=0;pointerEvents=1;fontSize=12;" vertex="1" parent="BIlWEWUSb-Hw1gL5TzwJ-16">
          <mxGeometry width="148" height="26" as="geometry">
            <mxRectangle width="148" height="26" as="alternateBounds" />
          </mxGeometry>
        </mxCell>
        <mxCell id="BIlWEWUSb-Hw1gL5TzwJ-18" value="UUID" style="shape=partialRectangle;html=1;whiteSpace=wrap;connectable=0;strokeColor=inherit;overflow=hidden;fillColor=none;top=0;left=0;bottom=0;right=0;pointerEvents=1;fontSize=12;fontStyle=1" vertex="1" parent="BIlWEWUSb-Hw1gL5TzwJ-16">
          <mxGeometry x="148" width="194" height="26" as="geometry">
            <mxRectangle width="194" height="26" as="alternateBounds" />
          </mxGeometry>
        </mxCell>
        <mxCell id="BIlWEWUSb-Hw1gL5TzwJ-19" value="&lt;div&gt;Primary key&lt;/div&gt;" style="shape=partialRectangle;html=1;whiteSpace=wrap;connectable=0;strokeColor=inherit;overflow=hidden;fillColor=none;top=0;left=0;bottom=0;right=0;pointerEvents=1;fontSize=14;align=center;" vertex="1" parent="BIlWEWUSb-Hw1gL5TzwJ-16">
          <mxGeometry x="342" width="191" height="26" as="geometry">
            <mxRectangle width="191" height="26" as="alternateBounds" />
          </mxGeometry>
        </mxCell>
        <mxCell id="BIlWEWUSb-Hw1gL5TzwJ-20" style="shape=tableRow;horizontal=0;startSize=0;swimlaneHead=0;swimlaneBody=0;strokeColor=inherit;top=0;left=0;bottom=0;right=0;collapsible=0;dropTarget=0;fillColor=none;points=[[0,0.5],[1,0.5]];portConstraint=eastwest;fontSize=16;" vertex="1" parent="BIlWEWUSb-Hw1gL5TzwJ-11">
          <mxGeometry y="95" width="533" height="26" as="geometry" />
        </mxCell>
        <mxCell id="BIlWEWUSb-Hw1gL5TzwJ-21" value="&lt;b&gt;latitude&lt;/b&gt;" style="shape=partialRectangle;html=1;whiteSpace=wrap;connectable=0;strokeColor=inherit;overflow=hidden;fillColor=none;top=0;left=0;bottom=0;right=0;pointerEvents=1;fontSize=12;" vertex="1" parent="BIlWEWUSb-Hw1gL5TzwJ-20">
          <mxGeometry width="148" height="26" as="geometry">
            <mxRectangle width="148" height="26" as="alternateBounds" />
          </mxGeometry>
        </mxCell>
        <mxCell id="BIlWEWUSb-Hw1gL5TzwJ-22" value="DOUBLE" style="shape=partialRectangle;html=1;whiteSpace=wrap;connectable=0;strokeColor=inherit;overflow=hidden;fillColor=none;top=0;left=0;bottom=0;right=0;pointerEvents=1;fontSize=12;fontStyle=1" vertex="1" parent="BIlWEWUSb-Hw1gL5TzwJ-20">
          <mxGeometry x="148" width="194" height="26" as="geometry">
            <mxRectangle width="194" height="26" as="alternateBounds" />
          </mxGeometry>
        </mxCell>
        <mxCell id="BIlWEWUSb-Hw1gL5TzwJ-23" value="" style="shape=partialRectangle;html=1;whiteSpace=wrap;connectable=0;strokeColor=inherit;overflow=hidden;fillColor=none;top=0;left=0;bottom=0;right=0;pointerEvents=1;fontSize=14;align=center;" vertex="1" parent="BIlWEWUSb-Hw1gL5TzwJ-20">
          <mxGeometry x="342" width="191" height="26" as="geometry">
            <mxRectangle width="191" height="26" as="alternateBounds" />
          </mxGeometry>
        </mxCell>
        <mxCell id="BIlWEWUSb-Hw1gL5TzwJ-25" style="shape=tableRow;horizontal=0;startSize=0;swimlaneHead=0;swimlaneBody=0;strokeColor=inherit;top=0;left=0;bottom=0;right=0;collapsible=0;dropTarget=0;fillColor=none;points=[[0,0.5],[1,0.5]];portConstraint=eastwest;fontSize=16;" vertex="1" parent="BIlWEWUSb-Hw1gL5TzwJ-11">
          <mxGeometry y="121" width="533" height="26" as="geometry" />
        </mxCell>
        <mxCell id="BIlWEWUSb-Hw1gL5TzwJ-26" value="&lt;b&gt;longitude&lt;/b&gt;" style="shape=partialRectangle;html=1;whiteSpace=wrap;connectable=0;strokeColor=inherit;overflow=hidden;fillColor=none;top=0;left=0;bottom=0;right=0;pointerEvents=1;fontSize=12;" vertex="1" parent="BIlWEWUSb-Hw1gL5TzwJ-25">
          <mxGeometry width="148" height="26" as="geometry">
            <mxRectangle width="148" height="26" as="alternateBounds" />
          </mxGeometry>
        </mxCell>
        <mxCell id="BIlWEWUSb-Hw1gL5TzwJ-27" value="DOUBLE" style="shape=partialRectangle;html=1;whiteSpace=wrap;connectable=0;strokeColor=inherit;overflow=hidden;fillColor=none;top=0;left=0;bottom=0;right=0;pointerEvents=1;fontSize=12;fontStyle=1" vertex="1" parent="BIlWEWUSb-Hw1gL5TzwJ-25">
          <mxGeometry x="148" width="194" height="26" as="geometry">
            <mxRectangle width="194" height="26" as="alternateBounds" />
          </mxGeometry>
        </mxCell>
        <mxCell id="BIlWEWUSb-Hw1gL5TzwJ-28" value="" style="shape=partialRectangle;html=1;whiteSpace=wrap;connectable=0;strokeColor=inherit;overflow=hidden;fillColor=none;top=0;left=0;bottom=0;right=0;pointerEvents=1;fontSize=14;" vertex="1" parent="BIlWEWUSb-Hw1gL5TzwJ-25">
          <mxGeometry x="342" width="191" height="26" as="geometry">
            <mxRectangle width="191" height="26" as="alternateBounds" />
          </mxGeometry>
        </mxCell>
        <mxCell id="BIlWEWUSb-Hw1gL5TzwJ-24" style="edgeStyle=orthogonalEdgeStyle;rounded=0;orthogonalLoop=1;jettySize=auto;html=1;" edge="1" parent="1" source="BIlWEWUSb-Hw1gL5TzwJ-5" target="BIlWEWUSb-Hw1gL5TzwJ-16">
          <mxGeometry relative="1" as="geometry" />
        </mxCell>
        <mxCell id="BIlWEWUSb-Hw1gL5TzwJ-29" value="items" style="shape=table;startSize=30;container=1;collapsible=0;childLayout=tableLayout;strokeColor=default;fontSize=16;fontFamily=Lucida Console;fontStyle=3" vertex="1" parent="1">
          <mxGeometry x="2328" y="-645" width="533" height="302.83000000000004" as="geometry" />
        </mxCell>
        <mxCell id="BIlWEWUSb-Hw1gL5TzwJ-30" value="" style="shape=tableRow;horizontal=0;startSize=0;swimlaneHead=0;swimlaneBody=0;strokeColor=inherit;top=0;left=0;bottom=0;right=0;collapsible=0;dropTarget=0;fillColor=none;points=[[0,0.5],[1,0.5]];portConstraint=eastwest;fontSize=16;" vertex="1" parent="BIlWEWUSb-Hw1gL5TzwJ-29">
          <mxGeometry y="30" width="533" height="39" as="geometry" />
        </mxCell>
        <mxCell id="BIlWEWUSb-Hw1gL5TzwJ-31" value="&lt;u&gt;&lt;b&gt;Field&lt;/b&gt;&lt;/u&gt;" style="shape=partialRectangle;html=1;whiteSpace=wrap;connectable=0;strokeColor=inherit;overflow=hidden;fillColor=none;top=0;left=0;bottom=0;right=0;pointerEvents=1;fontSize=16;" vertex="1" parent="BIlWEWUSb-Hw1gL5TzwJ-30">
          <mxGeometry width="148" height="39" as="geometry">
            <mxRectangle width="148" height="39" as="alternateBounds" />
          </mxGeometry>
        </mxCell>
        <mxCell id="BIlWEWUSb-Hw1gL5TzwJ-32" value="&lt;b&gt;&lt;u&gt;Type&lt;/u&gt;&lt;/b&gt;" style="shape=partialRectangle;html=1;whiteSpace=wrap;connectable=0;strokeColor=inherit;overflow=hidden;fillColor=none;top=0;left=0;bottom=0;right=0;pointerEvents=1;fontSize=16;" vertex="1" parent="BIlWEWUSb-Hw1gL5TzwJ-30">
          <mxGeometry x="148" width="194" height="39" as="geometry">
            <mxRectangle width="194" height="39" as="alternateBounds" />
          </mxGeometry>
        </mxCell>
        <mxCell id="BIlWEWUSb-Hw1gL5TzwJ-33" value="&lt;b&gt;&lt;u&gt;Notes&lt;/u&gt;&lt;/b&gt;" style="shape=partialRectangle;html=1;whiteSpace=wrap;connectable=0;strokeColor=inherit;overflow=hidden;fillColor=none;top=0;left=0;bottom=0;right=0;pointerEvents=1;fontSize=16;" vertex="1" parent="BIlWEWUSb-Hw1gL5TzwJ-30">
          <mxGeometry x="342" width="191" height="39" as="geometry">
            <mxRectangle width="191" height="39" as="alternateBounds" />
          </mxGeometry>
        </mxCell>
        <mxCell id="BIlWEWUSb-Hw1gL5TzwJ-34" style="shape=tableRow;horizontal=0;startSize=0;swimlaneHead=0;swimlaneBody=0;strokeColor=#82b366;top=0;left=0;bottom=0;right=0;collapsible=0;dropTarget=0;fillColor=#d5e8d4;points=[[0,0.5],[1,0.5]];portConstraint=eastwest;fontSize=16;" vertex="1" parent="BIlWEWUSb-Hw1gL5TzwJ-29">
          <mxGeometry y="69" width="533" height="26" as="geometry" />
        </mxCell>
        <mxCell id="BIlWEWUSb-Hw1gL5TzwJ-35" value="&lt;b&gt;id&lt;/b&gt;" style="shape=partialRectangle;html=1;whiteSpace=wrap;connectable=0;strokeColor=inherit;overflow=hidden;fillColor=none;top=0;left=0;bottom=0;right=0;pointerEvents=1;fontSize=12;" vertex="1" parent="BIlWEWUSb-Hw1gL5TzwJ-34">
          <mxGeometry width="148" height="26" as="geometry">
            <mxRectangle width="148" height="26" as="alternateBounds" />
          </mxGeometry>
        </mxCell>
        <mxCell id="BIlWEWUSb-Hw1gL5TzwJ-36" value="UUID" style="shape=partialRectangle;html=1;whiteSpace=wrap;connectable=0;strokeColor=inherit;overflow=hidden;fillColor=none;top=0;left=0;bottom=0;right=0;pointerEvents=1;fontSize=12;fontStyle=1" vertex="1" parent="BIlWEWUSb-Hw1gL5TzwJ-34">
          <mxGeometry x="148" width="194" height="26" as="geometry">
            <mxRectangle width="194" height="26" as="alternateBounds" />
          </mxGeometry>
        </mxCell>
        <mxCell id="BIlWEWUSb-Hw1gL5TzwJ-37" value="&lt;div&gt;Primary key&lt;/div&gt;" style="shape=partialRectangle;html=1;whiteSpace=wrap;connectable=0;strokeColor=inherit;overflow=hidden;fillColor=none;top=0;left=0;bottom=0;right=0;pointerEvents=1;fontSize=14;align=center;" vertex="1" parent="BIlWEWUSb-Hw1gL5TzwJ-34">
          <mxGeometry x="342" width="191" height="26" as="geometry">
            <mxRectangle width="191" height="26" as="alternateBounds" />
          </mxGeometry>
        </mxCell>
        <mxCell id="BIlWEWUSb-Hw1gL5TzwJ-38" style="shape=tableRow;horizontal=0;startSize=0;swimlaneHead=0;swimlaneBody=0;strokeColor=#9673a6;top=0;left=0;bottom=0;right=0;collapsible=0;dropTarget=0;fillColor=#e1d5e7;points=[[0,0.5],[1,0.5]];portConstraint=eastwest;fontSize=16;" vertex="1" parent="BIlWEWUSb-Hw1gL5TzwJ-29">
          <mxGeometry y="95" width="533" height="26" as="geometry" />
        </mxCell>
        <mxCell id="BIlWEWUSb-Hw1gL5TzwJ-39" value="&lt;b&gt;shop_id&lt;/b&gt;" style="shape=partialRectangle;html=1;whiteSpace=wrap;connectable=0;strokeColor=inherit;overflow=hidden;fillColor=none;top=0;left=0;bottom=0;right=0;pointerEvents=1;fontSize=12;" vertex="1" parent="BIlWEWUSb-Hw1gL5TzwJ-38">
          <mxGeometry width="148" height="26" as="geometry">
            <mxRectangle width="148" height="26" as="alternateBounds" />
          </mxGeometry>
        </mxCell>
        <mxCell id="BIlWEWUSb-Hw1gL5TzwJ-40" value="UUID" style="shape=partialRectangle;html=1;whiteSpace=wrap;connectable=0;strokeColor=inherit;overflow=hidden;fillColor=none;top=0;left=0;bottom=0;right=0;pointerEvents=1;fontSize=12;fontStyle=1" vertex="1" parent="BIlWEWUSb-Hw1gL5TzwJ-38">
          <mxGeometry x="148" width="194" height="26" as="geometry">
            <mxRectangle width="194" height="26" as="alternateBounds" />
          </mxGeometry>
        </mxCell>
        <mxCell id="BIlWEWUSb-Hw1gL5TzwJ-41" value="F. K to shops.id" style="shape=partialRectangle;html=1;whiteSpace=wrap;connectable=0;strokeColor=inherit;overflow=hidden;fillColor=none;top=0;left=0;bottom=0;right=0;pointerEvents=1;fontSize=14;align=center;" vertex="1" parent="BIlWEWUSb-Hw1gL5TzwJ-38">
          <mxGeometry x="342" width="191" height="26" as="geometry">
            <mxRectangle width="191" height="26" as="alternateBounds" />
          </mxGeometry>
        </mxCell>
        <mxCell id="BIlWEWUSb-Hw1gL5TzwJ-132" style="shape=tableRow;horizontal=0;startSize=0;swimlaneHead=0;swimlaneBody=0;strokeColor=inherit;top=0;left=0;bottom=0;right=0;collapsible=0;dropTarget=0;fillColor=none;points=[[0,0.5],[1,0.5]];portConstraint=eastwest;fontSize=16;" vertex="1" parent="BIlWEWUSb-Hw1gL5TzwJ-29">
          <mxGeometry y="121" width="533" height="26" as="geometry" />
        </mxCell>
        <mxCell id="BIlWEWUSb-Hw1gL5TzwJ-133" value="&lt;b&gt;type&lt;/b&gt;" style="shape=partialRectangle;html=1;whiteSpace=wrap;connectable=0;strokeColor=inherit;overflow=hidden;fillColor=none;top=0;left=0;bottom=0;right=0;pointerEvents=1;fontSize=12;" vertex="1" parent="BIlWEWUSb-Hw1gL5TzwJ-132">
          <mxGeometry width="148" height="26" as="geometry">
            <mxRectangle width="148" height="26" as="alternateBounds" />
          </mxGeometry>
        </mxCell>
        <mxCell id="BIlWEWUSb-Hw1gL5TzwJ-134" value="&lt;font&gt;ENUM (&#39;BRANDED&#39;, &#39;LOCAL&#39;)&lt;/font&gt;" style="shape=partialRectangle;html=1;whiteSpace=wrap;connectable=0;strokeColor=inherit;overflow=hidden;fillColor=none;top=0;left=0;bottom=0;right=0;pointerEvents=1;fontSize=12;fontStyle=1" vertex="1" parent="BIlWEWUSb-Hw1gL5TzwJ-132">
          <mxGeometry x="148" width="194" height="26" as="geometry">
            <mxRectangle width="194" height="26" as="alternateBounds" />
          </mxGeometry>
        </mxCell>
        <mxCell id="BIlWEWUSb-Hw1gL5TzwJ-135" value="Branded reviews disabled" style="shape=partialRectangle;html=1;whiteSpace=wrap;connectable=0;strokeColor=inherit;overflow=hidden;fillColor=none;top=0;left=0;bottom=0;right=0;pointerEvents=1;fontSize=14;" vertex="1" parent="BIlWEWUSb-Hw1gL5TzwJ-132">
          <mxGeometry x="342" width="191" height="26" as="geometry">
            <mxRectangle width="191" height="26" as="alternateBounds" />
          </mxGeometry>
        </mxCell>
        <mxCell id="BIlWEWUSb-Hw1gL5TzwJ-42" style="shape=tableRow;horizontal=0;startSize=0;swimlaneHead=0;swimlaneBody=0;strokeColor=inherit;top=0;left=0;bottom=0;right=0;collapsible=0;dropTarget=0;fillColor=none;points=[[0,0.5],[1,0.5]];portConstraint=eastwest;fontSize=16;" vertex="1" parent="BIlWEWUSb-Hw1gL5TzwJ-29">
          <mxGeometry y="147" width="533" height="26" as="geometry" />
        </mxCell>
        <mxCell id="BIlWEWUSb-Hw1gL5TzwJ-43" value="&lt;b&gt;name&lt;/b&gt;" style="shape=partialRectangle;html=1;whiteSpace=wrap;connectable=0;strokeColor=inherit;overflow=hidden;fillColor=none;top=0;left=0;bottom=0;right=0;pointerEvents=1;fontSize=12;" vertex="1" parent="BIlWEWUSb-Hw1gL5TzwJ-42">
          <mxGeometry width="148" height="26" as="geometry">
            <mxRectangle width="148" height="26" as="alternateBounds" />
          </mxGeometry>
        </mxCell>
        <mxCell id="BIlWEWUSb-Hw1gL5TzwJ-44" value="VARCHAR" style="shape=partialRectangle;html=1;whiteSpace=wrap;connectable=0;strokeColor=inherit;overflow=hidden;fillColor=none;top=0;left=0;bottom=0;right=0;pointerEvents=1;fontSize=12;fontStyle=1" vertex="1" parent="BIlWEWUSb-Hw1gL5TzwJ-42">
          <mxGeometry x="148" width="194" height="26" as="geometry">
            <mxRectangle width="194" height="26" as="alternateBounds" />
          </mxGeometry>
        </mxCell>
        <mxCell id="BIlWEWUSb-Hw1gL5TzwJ-45" value="&lt;div&gt;Item name&lt;/div&gt;" style="shape=partialRectangle;html=1;whiteSpace=wrap;connectable=0;strokeColor=inherit;overflow=hidden;fillColor=none;top=0;left=0;bottom=0;right=0;pointerEvents=1;fontSize=14;" vertex="1" parent="BIlWEWUSb-Hw1gL5TzwJ-42">
          <mxGeometry x="342" width="191" height="26" as="geometry">
            <mxRectangle width="191" height="26" as="alternateBounds" />
          </mxGeometry>
        </mxCell>
        <mxCell id="BIlWEWUSb-Hw1gL5TzwJ-47" style="shape=tableRow;horizontal=0;startSize=0;swimlaneHead=0;swimlaneBody=0;strokeColor=inherit;top=0;left=0;bottom=0;right=0;collapsible=0;dropTarget=0;fillColor=none;points=[[0,0.5],[1,0.5]];portConstraint=eastwest;fontSize=16;" vertex="1" parent="BIlWEWUSb-Hw1gL5TzwJ-29">
          <mxGeometry y="173" width="533" height="26" as="geometry" />
        </mxCell>
        <mxCell id="BIlWEWUSb-Hw1gL5TzwJ-48" value="&lt;b&gt;description&lt;/b&gt;" style="shape=partialRectangle;html=1;whiteSpace=wrap;connectable=0;strokeColor=inherit;overflow=hidden;fillColor=none;top=0;left=0;bottom=0;right=0;pointerEvents=1;fontSize=12;" vertex="1" parent="BIlWEWUSb-Hw1gL5TzwJ-47">
          <mxGeometry width="148" height="26" as="geometry">
            <mxRectangle width="148" height="26" as="alternateBounds" />
          </mxGeometry>
        </mxCell>
        <mxCell id="BIlWEWUSb-Hw1gL5TzwJ-49" value="TEXT" style="shape=partialRectangle;html=1;whiteSpace=wrap;connectable=0;strokeColor=inherit;overflow=hidden;fillColor=none;top=0;left=0;bottom=0;right=0;pointerEvents=1;fontSize=12;fontStyle=1" vertex="1" parent="BIlWEWUSb-Hw1gL5TzwJ-47">
          <mxGeometry x="148" width="194" height="26" as="geometry">
            <mxRectangle width="194" height="26" as="alternateBounds" />
          </mxGeometry>
        </mxCell>
        <mxCell id="BIlWEWUSb-Hw1gL5TzwJ-50" style="shape=partialRectangle;html=1;whiteSpace=wrap;connectable=0;strokeColor=inherit;overflow=hidden;fillColor=none;top=0;left=0;bottom=0;right=0;pointerEvents=1;fontSize=14;" vertex="1" parent="BIlWEWUSb-Hw1gL5TzwJ-47">
          <mxGeometry x="342" width="191" height="26" as="geometry">
            <mxRectangle width="191" height="26" as="alternateBounds" />
          </mxGeometry>
        </mxCell>
        <mxCell id="BIlWEWUSb-Hw1gL5TzwJ-51" style="shape=tableRow;horizontal=0;startSize=0;swimlaneHead=0;swimlaneBody=0;strokeColor=inherit;top=0;left=0;bottom=0;right=0;collapsible=0;dropTarget=0;fillColor=none;points=[[0,0.5],[1,0.5]];portConstraint=eastwest;fontSize=16;" vertex="1" parent="BIlWEWUSb-Hw1gL5TzwJ-29">
          <mxGeometry y="199" width="533" height="26" as="geometry" />
        </mxCell>
        <mxCell id="BIlWEWUSb-Hw1gL5TzwJ-52" value="&lt;b&gt;price&lt;/b&gt;" style="shape=partialRectangle;html=1;whiteSpace=wrap;connectable=0;strokeColor=inherit;overflow=hidden;fillColor=none;top=0;left=0;bottom=0;right=0;pointerEvents=1;fontSize=12;" vertex="1" parent="BIlWEWUSb-Hw1gL5TzwJ-51">
          <mxGeometry width="148" height="26" as="geometry">
            <mxRectangle width="148" height="26" as="alternateBounds" />
          </mxGeometry>
        </mxCell>
        <mxCell id="BIlWEWUSb-Hw1gL5TzwJ-53" value="DECIMAL" style="shape=partialRectangle;html=1;whiteSpace=wrap;connectable=0;strokeColor=inherit;overflow=hidden;fillColor=none;top=0;left=0;bottom=0;right=0;pointerEvents=1;fontSize=12;fontStyle=1" vertex="1" parent="BIlWEWUSb-Hw1gL5TzwJ-51">
          <mxGeometry x="148" width="194" height="26" as="geometry">
            <mxRectangle width="194" height="26" as="alternateBounds" />
          </mxGeometry>
        </mxCell>
        <mxCell id="BIlWEWUSb-Hw1gL5TzwJ-54" style="shape=partialRectangle;html=1;whiteSpace=wrap;connectable=0;strokeColor=inherit;overflow=hidden;fillColor=none;top=0;left=0;bottom=0;right=0;pointerEvents=1;fontSize=14;" vertex="1" parent="BIlWEWUSb-Hw1gL5TzwJ-51">
          <mxGeometry x="342" width="191" height="26" as="geometry">
            <mxRectangle width="191" height="26" as="alternateBounds" />
          </mxGeometry>
        </mxCell>
        <mxCell id="BIlWEWUSb-Hw1gL5TzwJ-55" style="shape=tableRow;horizontal=0;startSize=0;swimlaneHead=0;swimlaneBody=0;strokeColor=inherit;top=0;left=0;bottom=0;right=0;collapsible=0;dropTarget=0;fillColor=none;points=[[0,0.5],[1,0.5]];portConstraint=eastwest;fontSize=16;" vertex="1" parent="BIlWEWUSb-Hw1gL5TzwJ-29">
          <mxGeometry y="225" width="533" height="26" as="geometry" />
        </mxCell>
        <mxCell id="BIlWEWUSb-Hw1gL5TzwJ-56" value="&lt;b&gt;stock_quantity&lt;/b&gt;" style="shape=partialRectangle;html=1;whiteSpace=wrap;connectable=0;strokeColor=inherit;overflow=hidden;fillColor=none;top=0;left=0;bottom=0;right=0;pointerEvents=1;fontSize=12;" vertex="1" parent="BIlWEWUSb-Hw1gL5TzwJ-55">
          <mxGeometry width="148" height="26" as="geometry">
            <mxRectangle width="148" height="26" as="alternateBounds" />
          </mxGeometry>
        </mxCell>
        <mxCell id="BIlWEWUSb-Hw1gL5TzwJ-57" value="INT" style="shape=partialRectangle;html=1;whiteSpace=wrap;connectable=0;strokeColor=inherit;overflow=hidden;fillColor=none;top=0;left=0;bottom=0;right=0;pointerEvents=1;fontSize=12;fontStyle=1" vertex="1" parent="BIlWEWUSb-Hw1gL5TzwJ-55">
          <mxGeometry x="148" width="194" height="26" as="geometry">
            <mxRectangle width="194" height="26" as="alternateBounds" />
          </mxGeometry>
        </mxCell>
        <mxCell id="BIlWEWUSb-Hw1gL5TzwJ-58" style="shape=partialRectangle;html=1;whiteSpace=wrap;connectable=0;strokeColor=inherit;overflow=hidden;fillColor=none;top=0;left=0;bottom=0;right=0;pointerEvents=1;fontSize=14;" vertex="1" parent="BIlWEWUSb-Hw1gL5TzwJ-55">
          <mxGeometry x="342" width="191" height="26" as="geometry">
            <mxRectangle width="191" height="26" as="alternateBounds" />
          </mxGeometry>
        </mxCell>
        <mxCell id="BIlWEWUSb-Hw1gL5TzwJ-59" style="shape=tableRow;horizontal=0;startSize=0;swimlaneHead=0;swimlaneBody=0;strokeColor=inherit;top=0;left=0;bottom=0;right=0;collapsible=0;dropTarget=0;fillColor=none;points=[[0,0.5],[1,0.5]];portConstraint=eastwest;fontSize=16;" vertex="1" parent="BIlWEWUSb-Hw1gL5TzwJ-29">
          <mxGeometry y="251" width="533" height="26" as="geometry" />
        </mxCell>
        <mxCell id="BIlWEWUSb-Hw1gL5TzwJ-60" value="&lt;b&gt;discount_percentage&lt;/b&gt;" style="shape=partialRectangle;html=1;whiteSpace=wrap;connectable=0;strokeColor=inherit;overflow=hidden;fillColor=none;top=0;left=0;bottom=0;right=0;pointerEvents=1;fontSize=12;" vertex="1" parent="BIlWEWUSb-Hw1gL5TzwJ-59">
          <mxGeometry width="148" height="26" as="geometry">
            <mxRectangle width="148" height="26" as="alternateBounds" />
          </mxGeometry>
        </mxCell>
        <mxCell id="BIlWEWUSb-Hw1gL5TzwJ-61" value="INT" style="shape=partialRectangle;html=1;whiteSpace=wrap;connectable=0;strokeColor=inherit;overflow=hidden;fillColor=none;top=0;left=0;bottom=0;right=0;pointerEvents=1;fontSize=12;fontStyle=1" vertex="1" parent="BIlWEWUSb-Hw1gL5TzwJ-59">
          <mxGeometry x="148" width="194" height="26" as="geometry">
            <mxRectangle width="194" height="26" as="alternateBounds" />
          </mxGeometry>
        </mxCell>
        <mxCell id="BIlWEWUSb-Hw1gL5TzwJ-62" value="Default 0" style="shape=partialRectangle;html=1;whiteSpace=wrap;connectable=0;strokeColor=inherit;overflow=hidden;fillColor=none;top=0;left=0;bottom=0;right=0;pointerEvents=1;fontSize=14;" vertex="1" parent="BIlWEWUSb-Hw1gL5TzwJ-59">
          <mxGeometry x="342" width="191" height="26" as="geometry">
            <mxRectangle width="191" height="26" as="alternateBounds" />
          </mxGeometry>
        </mxCell>
        <mxCell id="BIlWEWUSb-Hw1gL5TzwJ-63" style="shape=tableRow;horizontal=0;startSize=0;swimlaneHead=0;swimlaneBody=0;strokeColor=inherit;top=0;left=0;bottom=0;right=0;collapsible=0;dropTarget=0;fillColor=none;points=[[0,0.5],[1,0.5]];portConstraint=eastwest;fontSize=16;" vertex="1" parent="BIlWEWUSb-Hw1gL5TzwJ-29">
          <mxGeometry y="277" width="533" height="26" as="geometry" />
        </mxCell>
        <mxCell id="BIlWEWUSb-Hw1gL5TzwJ-64" value="&lt;b&gt;image_url&lt;/b&gt;" style="shape=partialRectangle;html=1;whiteSpace=wrap;connectable=0;strokeColor=inherit;overflow=hidden;fillColor=none;top=0;left=0;bottom=0;right=0;pointerEvents=1;fontSize=12;" vertex="1" parent="BIlWEWUSb-Hw1gL5TzwJ-63">
          <mxGeometry width="148" height="26" as="geometry">
            <mxRectangle width="148" height="26" as="alternateBounds" />
          </mxGeometry>
        </mxCell>
        <mxCell id="BIlWEWUSb-Hw1gL5TzwJ-65" value="TEXT" style="shape=partialRectangle;html=1;whiteSpace=wrap;connectable=0;strokeColor=inherit;overflow=hidden;fillColor=none;top=0;left=0;bottom=0;right=0;pointerEvents=1;fontSize=12;fontStyle=1" vertex="1" parent="BIlWEWUSb-Hw1gL5TzwJ-63">
          <mxGeometry x="148" width="194" height="26" as="geometry">
            <mxRectangle width="194" height="26" as="alternateBounds" />
          </mxGeometry>
        </mxCell>
        <mxCell id="BIlWEWUSb-Hw1gL5TzwJ-66" value="Optional" style="shape=partialRectangle;html=1;whiteSpace=wrap;connectable=0;strokeColor=inherit;overflow=hidden;fillColor=none;top=0;left=0;bottom=0;right=0;pointerEvents=1;fontSize=14;" vertex="1" parent="BIlWEWUSb-Hw1gL5TzwJ-63">
          <mxGeometry x="342" width="191" height="26" as="geometry">
            <mxRectangle width="191" height="26" as="alternateBounds" />
          </mxGeometry>
        </mxCell>
        <mxCell id="BIlWEWUSb-Hw1gL5TzwJ-46" style="edgeStyle=orthogonalEdgeStyle;rounded=0;orthogonalLoop=1;jettySize=auto;html=1;entryX=1;entryY=0.5;entryDx=0;entryDy=0;" edge="1" parent="1" source="BIlWEWUSb-Hw1gL5TzwJ-38" target="_PIaMZyt-WBJ93KkxoSu-136">
          <mxGeometry relative="1" as="geometry" />
        </mxCell>
        <mxCell id="BIlWEWUSb-Hw1gL5TzwJ-67" value="subscriptions" style="shape=table;startSize=30;container=1;collapsible=0;childLayout=tableLayout;strokeColor=default;fontSize=16;fontFamily=Lucida Console;fontStyle=3" vertex="1" parent="1">
          <mxGeometry x="852" y="-847" width="533" height="172.83" as="geometry" />
        </mxCell>
        <mxCell id="BIlWEWUSb-Hw1gL5TzwJ-68" value="" style="shape=tableRow;horizontal=0;startSize=0;swimlaneHead=0;swimlaneBody=0;strokeColor=inherit;top=0;left=0;bottom=0;right=0;collapsible=0;dropTarget=0;fillColor=none;points=[[0,0.5],[1,0.5]];portConstraint=eastwest;fontSize=16;" vertex="1" parent="BIlWEWUSb-Hw1gL5TzwJ-67">
          <mxGeometry y="30" width="533" height="39" as="geometry" />
        </mxCell>
        <mxCell id="BIlWEWUSb-Hw1gL5TzwJ-69" value="&lt;u&gt;&lt;b&gt;Field&lt;/b&gt;&lt;/u&gt;" style="shape=partialRectangle;html=1;whiteSpace=wrap;connectable=0;strokeColor=inherit;overflow=hidden;fillColor=none;top=0;left=0;bottom=0;right=0;pointerEvents=1;fontSize=16;" vertex="1" parent="BIlWEWUSb-Hw1gL5TzwJ-68">
          <mxGeometry width="148" height="39" as="geometry">
            <mxRectangle width="148" height="39" as="alternateBounds" />
          </mxGeometry>
        </mxCell>
        <mxCell id="BIlWEWUSb-Hw1gL5TzwJ-70" value="&lt;b&gt;&lt;u&gt;Type&lt;/u&gt;&lt;/b&gt;" style="shape=partialRectangle;html=1;whiteSpace=wrap;connectable=0;strokeColor=inherit;overflow=hidden;fillColor=none;top=0;left=0;bottom=0;right=0;pointerEvents=1;fontSize=16;" vertex="1" parent="BIlWEWUSb-Hw1gL5TzwJ-68">
          <mxGeometry x="148" width="194" height="39" as="geometry">
            <mxRectangle width="194" height="39" as="alternateBounds" />
          </mxGeometry>
        </mxCell>
        <mxCell id="BIlWEWUSb-Hw1gL5TzwJ-71" value="&lt;b&gt;&lt;u&gt;Notes&lt;/u&gt;&lt;/b&gt;" style="shape=partialRectangle;html=1;whiteSpace=wrap;connectable=0;strokeColor=inherit;overflow=hidden;fillColor=none;top=0;left=0;bottom=0;right=0;pointerEvents=1;fontSize=16;" vertex="1" parent="BIlWEWUSb-Hw1gL5TzwJ-68">
          <mxGeometry x="342" width="191" height="39" as="geometry">
            <mxRectangle width="191" height="39" as="alternateBounds" />
          </mxGeometry>
        </mxCell>
        <mxCell id="BIlWEWUSb-Hw1gL5TzwJ-72" style="shape=tableRow;horizontal=0;startSize=0;swimlaneHead=0;swimlaneBody=0;strokeColor=#82b366;top=0;left=0;bottom=0;right=0;collapsible=0;dropTarget=0;fillColor=#d5e8d4;points=[[0,0.5],[1,0.5]];portConstraint=eastwest;fontSize=16;" vertex="1" parent="BIlWEWUSb-Hw1gL5TzwJ-67">
          <mxGeometry y="69" width="533" height="26" as="geometry" />
        </mxCell>
        <mxCell id="BIlWEWUSb-Hw1gL5TzwJ-73" value="&lt;b&gt;id&lt;/b&gt;" style="shape=partialRectangle;html=1;whiteSpace=wrap;connectable=0;strokeColor=inherit;overflow=hidden;fillColor=none;top=0;left=0;bottom=0;right=0;pointerEvents=1;fontSize=12;" vertex="1" parent="BIlWEWUSb-Hw1gL5TzwJ-72">
          <mxGeometry width="148" height="26" as="geometry">
            <mxRectangle width="148" height="26" as="alternateBounds" />
          </mxGeometry>
        </mxCell>
        <mxCell id="BIlWEWUSb-Hw1gL5TzwJ-74" value="UUID" style="shape=partialRectangle;html=1;whiteSpace=wrap;connectable=0;strokeColor=inherit;overflow=hidden;fillColor=none;top=0;left=0;bottom=0;right=0;pointerEvents=1;fontSize=12;fontStyle=1" vertex="1" parent="BIlWEWUSb-Hw1gL5TzwJ-72">
          <mxGeometry x="148" width="194" height="26" as="geometry">
            <mxRectangle width="194" height="26" as="alternateBounds" />
          </mxGeometry>
        </mxCell>
        <mxCell id="BIlWEWUSb-Hw1gL5TzwJ-75" value="&lt;div&gt;Primary key&lt;/div&gt;" style="shape=partialRectangle;html=1;whiteSpace=wrap;connectable=0;strokeColor=inherit;overflow=hidden;fillColor=none;top=0;left=0;bottom=0;right=0;pointerEvents=1;fontSize=14;align=center;" vertex="1" parent="BIlWEWUSb-Hw1gL5TzwJ-72">
          <mxGeometry x="342" width="191" height="26" as="geometry">
            <mxRectangle width="191" height="26" as="alternateBounds" />
          </mxGeometry>
        </mxCell>
        <mxCell id="BIlWEWUSb-Hw1gL5TzwJ-76" style="shape=tableRow;horizontal=0;startSize=0;swimlaneHead=0;swimlaneBody=0;strokeColor=#9673a6;top=0;left=0;bottom=0;right=0;collapsible=0;dropTarget=0;fillColor=#e1d5e7;points=[[0,0.5],[1,0.5]];portConstraint=eastwest;fontSize=16;" vertex="1" parent="BIlWEWUSb-Hw1gL5TzwJ-67">
          <mxGeometry y="95" width="533" height="26" as="geometry" />
        </mxCell>
        <mxCell id="BIlWEWUSb-Hw1gL5TzwJ-77" value="&lt;b&gt;customer_id&lt;/b&gt;" style="shape=partialRectangle;html=1;whiteSpace=wrap;connectable=0;strokeColor=inherit;overflow=hidden;fillColor=none;top=0;left=0;bottom=0;right=0;pointerEvents=1;fontSize=12;" vertex="1" parent="BIlWEWUSb-Hw1gL5TzwJ-76">
          <mxGeometry width="148" height="26" as="geometry">
            <mxRectangle width="148" height="26" as="alternateBounds" />
          </mxGeometry>
        </mxCell>
        <mxCell id="BIlWEWUSb-Hw1gL5TzwJ-78" value="UUID" style="shape=partialRectangle;html=1;whiteSpace=wrap;connectable=0;strokeColor=inherit;overflow=hidden;fillColor=none;top=0;left=0;bottom=0;right=0;pointerEvents=1;fontSize=12;fontStyle=1" vertex="1" parent="BIlWEWUSb-Hw1gL5TzwJ-76">
          <mxGeometry x="148" width="194" height="26" as="geometry">
            <mxRectangle width="194" height="26" as="alternateBounds" />
          </mxGeometry>
        </mxCell>
        <mxCell id="BIlWEWUSb-Hw1gL5TzwJ-79" value="&lt;span style=&quot;white-space: normal;&quot;&gt;F. K to customers.id&lt;/span&gt;" style="shape=partialRectangle;html=1;whiteSpace=wrap;connectable=0;strokeColor=inherit;overflow=hidden;fillColor=none;top=0;left=0;bottom=0;right=0;pointerEvents=1;fontSize=14;align=center;" vertex="1" parent="BIlWEWUSb-Hw1gL5TzwJ-76">
          <mxGeometry x="342" width="191" height="26" as="geometry">
            <mxRectangle width="191" height="26" as="alternateBounds" />
          </mxGeometry>
        </mxCell>
        <mxCell id="BIlWEWUSb-Hw1gL5TzwJ-80" style="shape=tableRow;horizontal=0;startSize=0;swimlaneHead=0;swimlaneBody=0;strokeColor=#9673a6;top=0;left=0;bottom=0;right=0;collapsible=0;dropTarget=0;fillColor=#e1d5e7;points=[[0,0.5],[1,0.5]];portConstraint=eastwest;fontSize=16;" vertex="1" parent="BIlWEWUSb-Hw1gL5TzwJ-67">
          <mxGeometry y="121" width="533" height="26" as="geometry" />
        </mxCell>
        <mxCell id="BIlWEWUSb-Hw1gL5TzwJ-81" value="&lt;b&gt;shop_id&lt;/b&gt;" style="shape=partialRectangle;html=1;whiteSpace=wrap;connectable=0;strokeColor=inherit;overflow=hidden;fillColor=none;top=0;left=0;bottom=0;right=0;pointerEvents=1;fontSize=12;" vertex="1" parent="BIlWEWUSb-Hw1gL5TzwJ-80">
          <mxGeometry width="148" height="26" as="geometry">
            <mxRectangle width="148" height="26" as="alternateBounds" />
          </mxGeometry>
        </mxCell>
        <mxCell id="BIlWEWUSb-Hw1gL5TzwJ-82" value="UUID" style="shape=partialRectangle;html=1;whiteSpace=wrap;connectable=0;strokeColor=inherit;overflow=hidden;fillColor=none;top=0;left=0;bottom=0;right=0;pointerEvents=1;fontSize=12;fontStyle=1" vertex="1" parent="BIlWEWUSb-Hw1gL5TzwJ-80">
          <mxGeometry x="148" width="194" height="26" as="geometry">
            <mxRectangle width="194" height="26" as="alternateBounds" />
          </mxGeometry>
        </mxCell>
        <mxCell id="BIlWEWUSb-Hw1gL5TzwJ-83" value="&lt;div&gt;F. K to shops.id&lt;/div&gt;" style="shape=partialRectangle;html=1;whiteSpace=wrap;connectable=0;strokeColor=inherit;overflow=hidden;fillColor=none;top=0;left=0;bottom=0;right=0;pointerEvents=1;fontSize=14;" vertex="1" parent="BIlWEWUSb-Hw1gL5TzwJ-80">
          <mxGeometry x="342" width="191" height="26" as="geometry">
            <mxRectangle width="191" height="26" as="alternateBounds" />
          </mxGeometry>
        </mxCell>
        <mxCell id="BIlWEWUSb-Hw1gL5TzwJ-84" style="shape=tableRow;horizontal=0;startSize=0;swimlaneHead=0;swimlaneBody=0;strokeColor=inherit;top=0;left=0;bottom=0;right=0;collapsible=0;dropTarget=0;fillColor=none;points=[[0,0.5],[1,0.5]];portConstraint=eastwest;fontSize=16;" vertex="1" parent="BIlWEWUSb-Hw1gL5TzwJ-67">
          <mxGeometry y="147" width="533" height="26" as="geometry" />
        </mxCell>
        <mxCell id="BIlWEWUSb-Hw1gL5TzwJ-85" value="&lt;b&gt;created_at&lt;/b&gt;" style="shape=partialRectangle;html=1;whiteSpace=wrap;connectable=0;strokeColor=inherit;overflow=hidden;fillColor=none;top=0;left=0;bottom=0;right=0;pointerEvents=1;fontSize=12;" vertex="1" parent="BIlWEWUSb-Hw1gL5TzwJ-84">
          <mxGeometry width="148" height="26" as="geometry">
            <mxRectangle width="148" height="26" as="alternateBounds" />
          </mxGeometry>
        </mxCell>
        <mxCell id="BIlWEWUSb-Hw1gL5TzwJ-86" value="TIMESTAMP" style="shape=partialRectangle;html=1;whiteSpace=wrap;connectable=0;strokeColor=inherit;overflow=hidden;fillColor=none;top=0;left=0;bottom=0;right=0;pointerEvents=1;fontSize=12;fontStyle=1" vertex="1" parent="BIlWEWUSb-Hw1gL5TzwJ-84">
          <mxGeometry x="148" width="194" height="26" as="geometry">
            <mxRectangle width="194" height="26" as="alternateBounds" />
          </mxGeometry>
        </mxCell>
        <mxCell id="BIlWEWUSb-Hw1gL5TzwJ-87" value="&lt;div&gt;When they subscribed&lt;/div&gt;" style="shape=partialRectangle;html=1;whiteSpace=wrap;connectable=0;strokeColor=inherit;overflow=hidden;fillColor=none;top=0;left=0;bottom=0;right=0;pointerEvents=1;fontSize=14;" vertex="1" parent="BIlWEWUSb-Hw1gL5TzwJ-84">
          <mxGeometry x="342" width="191" height="26" as="geometry">
            <mxRectangle width="191" height="26" as="alternateBounds" />
          </mxGeometry>
        </mxCell>
        <mxCell id="BIlWEWUSb-Hw1gL5TzwJ-89" value="notifications" style="shape=table;startSize=30;container=1;collapsible=0;childLayout=tableLayout;strokeColor=default;fontSize=16;fontFamily=Lucida Console;fontStyle=3" vertex="1" parent="1">
          <mxGeometry x="852" y="-495" width="533" height="224.83" as="geometry" />
        </mxCell>
        <mxCell id="BIlWEWUSb-Hw1gL5TzwJ-90" value="" style="shape=tableRow;horizontal=0;startSize=0;swimlaneHead=0;swimlaneBody=0;strokeColor=inherit;top=0;left=0;bottom=0;right=0;collapsible=0;dropTarget=0;fillColor=none;points=[[0,0.5],[1,0.5]];portConstraint=eastwest;fontSize=16;" vertex="1" parent="BIlWEWUSb-Hw1gL5TzwJ-89">
          <mxGeometry y="30" width="533" height="39" as="geometry" />
        </mxCell>
        <mxCell id="BIlWEWUSb-Hw1gL5TzwJ-91" value="&lt;u&gt;&lt;b&gt;Field&lt;/b&gt;&lt;/u&gt;" style="shape=partialRectangle;html=1;whiteSpace=wrap;connectable=0;strokeColor=inherit;overflow=hidden;fillColor=none;top=0;left=0;bottom=0;right=0;pointerEvents=1;fontSize=16;" vertex="1" parent="BIlWEWUSb-Hw1gL5TzwJ-90">
          <mxGeometry width="148" height="39" as="geometry">
            <mxRectangle width="148" height="39" as="alternateBounds" />
          </mxGeometry>
        </mxCell>
        <mxCell id="BIlWEWUSb-Hw1gL5TzwJ-92" value="&lt;b&gt;&lt;u&gt;Type&lt;/u&gt;&lt;/b&gt;" style="shape=partialRectangle;html=1;whiteSpace=wrap;connectable=0;strokeColor=inherit;overflow=hidden;fillColor=none;top=0;left=0;bottom=0;right=0;pointerEvents=1;fontSize=16;" vertex="1" parent="BIlWEWUSb-Hw1gL5TzwJ-90">
          <mxGeometry x="148" width="194" height="39" as="geometry">
            <mxRectangle width="194" height="39" as="alternateBounds" />
          </mxGeometry>
        </mxCell>
        <mxCell id="BIlWEWUSb-Hw1gL5TzwJ-93" value="&lt;b&gt;&lt;u&gt;Notes&lt;/u&gt;&lt;/b&gt;" style="shape=partialRectangle;html=1;whiteSpace=wrap;connectable=0;strokeColor=inherit;overflow=hidden;fillColor=none;top=0;left=0;bottom=0;right=0;pointerEvents=1;fontSize=16;" vertex="1" parent="BIlWEWUSb-Hw1gL5TzwJ-90">
          <mxGeometry x="342" width="191" height="39" as="geometry">
            <mxRectangle width="191" height="39" as="alternateBounds" />
          </mxGeometry>
        </mxCell>
        <mxCell id="BIlWEWUSb-Hw1gL5TzwJ-94" style="shape=tableRow;horizontal=0;startSize=0;swimlaneHead=0;swimlaneBody=0;strokeColor=#82b366;top=0;left=0;bottom=0;right=0;collapsible=0;dropTarget=0;fillColor=#d5e8d4;points=[[0,0.5],[1,0.5]];portConstraint=eastwest;fontSize=16;" vertex="1" parent="BIlWEWUSb-Hw1gL5TzwJ-89">
          <mxGeometry y="69" width="533" height="26" as="geometry" />
        </mxCell>
        <mxCell id="BIlWEWUSb-Hw1gL5TzwJ-95" value="&lt;b&gt;id&lt;/b&gt;" style="shape=partialRectangle;html=1;whiteSpace=wrap;connectable=0;strokeColor=inherit;overflow=hidden;fillColor=none;top=0;left=0;bottom=0;right=0;pointerEvents=1;fontSize=12;" vertex="1" parent="BIlWEWUSb-Hw1gL5TzwJ-94">
          <mxGeometry width="148" height="26" as="geometry">
            <mxRectangle width="148" height="26" as="alternateBounds" />
          </mxGeometry>
        </mxCell>
        <mxCell id="BIlWEWUSb-Hw1gL5TzwJ-96" value="UUID" style="shape=partialRectangle;html=1;whiteSpace=wrap;connectable=0;strokeColor=inherit;overflow=hidden;fillColor=none;top=0;left=0;bottom=0;right=0;pointerEvents=1;fontSize=12;fontStyle=1" vertex="1" parent="BIlWEWUSb-Hw1gL5TzwJ-94">
          <mxGeometry x="148" width="194" height="26" as="geometry">
            <mxRectangle width="194" height="26" as="alternateBounds" />
          </mxGeometry>
        </mxCell>
        <mxCell id="BIlWEWUSb-Hw1gL5TzwJ-97" value="&lt;div&gt;Primary key&lt;/div&gt;" style="shape=partialRectangle;html=1;whiteSpace=wrap;connectable=0;strokeColor=inherit;overflow=hidden;fillColor=none;top=0;left=0;bottom=0;right=0;pointerEvents=1;fontSize=14;align=center;" vertex="1" parent="BIlWEWUSb-Hw1gL5TzwJ-94">
          <mxGeometry x="342" width="191" height="26" as="geometry">
            <mxRectangle width="191" height="26" as="alternateBounds" />
          </mxGeometry>
        </mxCell>
        <mxCell id="BIlWEWUSb-Hw1gL5TzwJ-98" style="shape=tableRow;horizontal=0;startSize=0;swimlaneHead=0;swimlaneBody=0;strokeColor=#9673a6;top=0;left=0;bottom=0;right=0;collapsible=0;dropTarget=0;fillColor=#e1d5e7;points=[[0,0.5],[1,0.5]];portConstraint=eastwest;fontSize=16;" vertex="1" parent="BIlWEWUSb-Hw1gL5TzwJ-89">
          <mxGeometry y="95" width="533" height="26" as="geometry" />
        </mxCell>
        <mxCell id="BIlWEWUSb-Hw1gL5TzwJ-99" value="&lt;b&gt;shop_id&lt;/b&gt;" style="shape=partialRectangle;html=1;whiteSpace=wrap;connectable=0;strokeColor=inherit;overflow=hidden;fillColor=none;top=0;left=0;bottom=0;right=0;pointerEvents=1;fontSize=12;" vertex="1" parent="BIlWEWUSb-Hw1gL5TzwJ-98">
          <mxGeometry width="148" height="26" as="geometry">
            <mxRectangle width="148" height="26" as="alternateBounds" />
          </mxGeometry>
        </mxCell>
        <mxCell id="BIlWEWUSb-Hw1gL5TzwJ-100" value="UUID" style="shape=partialRectangle;html=1;whiteSpace=wrap;connectable=0;strokeColor=inherit;overflow=hidden;fillColor=none;top=0;left=0;bottom=0;right=0;pointerEvents=1;fontSize=12;fontStyle=1" vertex="1" parent="BIlWEWUSb-Hw1gL5TzwJ-98">
          <mxGeometry x="148" width="194" height="26" as="geometry">
            <mxRectangle width="194" height="26" as="alternateBounds" />
          </mxGeometry>
        </mxCell>
        <mxCell id="BIlWEWUSb-Hw1gL5TzwJ-101" value="F. K to shops.id" style="shape=partialRectangle;html=1;whiteSpace=wrap;connectable=0;strokeColor=inherit;overflow=hidden;fillColor=none;top=0;left=0;bottom=0;right=0;pointerEvents=1;fontSize=14;align=center;" vertex="1" parent="BIlWEWUSb-Hw1gL5TzwJ-98">
          <mxGeometry x="342" width="191" height="26" as="geometry">
            <mxRectangle width="191" height="26" as="alternateBounds" />
          </mxGeometry>
        </mxCell>
        <mxCell id="BIlWEWUSb-Hw1gL5TzwJ-120" style="shape=tableRow;horizontal=0;startSize=0;swimlaneHead=0;swimlaneBody=0;strokeColor=inherit;top=0;left=0;bottom=0;right=0;collapsible=0;dropTarget=0;fillColor=none;points=[[0,0.5],[1,0.5]];portConstraint=eastwest;fontSize=16;" vertex="1" parent="BIlWEWUSb-Hw1gL5TzwJ-89">
          <mxGeometry y="121" width="533" height="26" as="geometry" />
        </mxCell>
        <mxCell id="BIlWEWUSb-Hw1gL5TzwJ-121" value="&lt;b&gt;title&lt;/b&gt;" style="shape=partialRectangle;html=1;whiteSpace=wrap;connectable=0;strokeColor=inherit;overflow=hidden;fillColor=none;top=0;left=0;bottom=0;right=0;pointerEvents=1;fontSize=12;" vertex="1" parent="BIlWEWUSb-Hw1gL5TzwJ-120">
          <mxGeometry width="148" height="26" as="geometry">
            <mxRectangle width="148" height="26" as="alternateBounds" />
          </mxGeometry>
        </mxCell>
        <mxCell id="BIlWEWUSb-Hw1gL5TzwJ-122" value="VARCHAR" style="shape=partialRectangle;html=1;whiteSpace=wrap;connectable=0;strokeColor=inherit;overflow=hidden;fillColor=none;top=0;left=0;bottom=0;right=0;pointerEvents=1;fontSize=12;fontStyle=1" vertex="1" parent="BIlWEWUSb-Hw1gL5TzwJ-120">
          <mxGeometry x="148" width="194" height="26" as="geometry">
            <mxRectangle width="194" height="26" as="alternateBounds" />
          </mxGeometry>
        </mxCell>
        <mxCell id="BIlWEWUSb-Hw1gL5TzwJ-123" value="E.g., &quot;50% off today!&quot;" style="shape=partialRectangle;html=1;whiteSpace=wrap;connectable=0;strokeColor=inherit;overflow=hidden;fillColor=none;top=0;left=0;bottom=0;right=0;pointerEvents=1;fontSize=14;" vertex="1" parent="BIlWEWUSb-Hw1gL5TzwJ-120">
          <mxGeometry x="342" width="191" height="26" as="geometry">
            <mxRectangle width="191" height="26" as="alternateBounds" />
          </mxGeometry>
        </mxCell>
        <mxCell id="BIlWEWUSb-Hw1gL5TzwJ-106" style="shape=tableRow;horizontal=0;startSize=0;swimlaneHead=0;swimlaneBody=0;strokeColor=inherit;top=0;left=0;bottom=0;right=0;collapsible=0;dropTarget=0;fillColor=none;points=[[0,0.5],[1,0.5]];portConstraint=eastwest;fontSize=16;" vertex="1" parent="BIlWEWUSb-Hw1gL5TzwJ-89">
          <mxGeometry y="147" width="533" height="26" as="geometry" />
        </mxCell>
        <mxCell id="BIlWEWUSb-Hw1gL5TzwJ-107" value="&lt;b&gt;message&lt;/b&gt;" style="shape=partialRectangle;html=1;whiteSpace=wrap;connectable=0;strokeColor=inherit;overflow=hidden;fillColor=none;top=0;left=0;bottom=0;right=0;pointerEvents=1;fontSize=12;" vertex="1" parent="BIlWEWUSb-Hw1gL5TzwJ-106">
          <mxGeometry width="148" height="26" as="geometry">
            <mxRectangle width="148" height="26" as="alternateBounds" />
          </mxGeometry>
        </mxCell>
        <mxCell id="BIlWEWUSb-Hw1gL5TzwJ-108" value="TEXT" style="shape=partialRectangle;html=1;whiteSpace=wrap;connectable=0;strokeColor=inherit;overflow=hidden;fillColor=none;top=0;left=0;bottom=0;right=0;pointerEvents=1;fontSize=12;fontStyle=1" vertex="1" parent="BIlWEWUSb-Hw1gL5TzwJ-106">
          <mxGeometry x="148" width="194" height="26" as="geometry">
            <mxRectangle width="194" height="26" as="alternateBounds" />
          </mxGeometry>
        </mxCell>
        <mxCell id="BIlWEWUSb-Hw1gL5TzwJ-109" value="&lt;div&gt;When they subscribed&lt;/div&gt;" style="shape=partialRectangle;html=1;whiteSpace=wrap;connectable=0;strokeColor=inherit;overflow=hidden;fillColor=none;top=0;left=0;bottom=0;right=0;pointerEvents=1;fontSize=14;" vertex="1" parent="BIlWEWUSb-Hw1gL5TzwJ-106">
          <mxGeometry x="342" width="191" height="26" as="geometry">
            <mxRectangle width="191" height="26" as="alternateBounds" />
          </mxGeometry>
        </mxCell>
        <mxCell id="BIlWEWUSb-Hw1gL5TzwJ-110" style="shape=tableRow;horizontal=0;startSize=0;swimlaneHead=0;swimlaneBody=0;strokeColor=inherit;top=0;left=0;bottom=0;right=0;collapsible=0;dropTarget=0;fillColor=none;points=[[0,0.5],[1,0.5]];portConstraint=eastwest;fontSize=16;" vertex="1" parent="BIlWEWUSb-Hw1gL5TzwJ-89">
          <mxGeometry y="173" width="533" height="26" as="geometry" />
        </mxCell>
        <mxCell id="BIlWEWUSb-Hw1gL5TzwJ-111" value="&lt;b&gt;created_at&lt;/b&gt;" style="shape=partialRectangle;html=1;whiteSpace=wrap;connectable=0;strokeColor=inherit;overflow=hidden;fillColor=none;top=0;left=0;bottom=0;right=0;pointerEvents=1;fontSize=12;" vertex="1" parent="BIlWEWUSb-Hw1gL5TzwJ-110">
          <mxGeometry width="148" height="26" as="geometry">
            <mxRectangle width="148" height="26" as="alternateBounds" />
          </mxGeometry>
        </mxCell>
        <mxCell id="BIlWEWUSb-Hw1gL5TzwJ-112" value="TIMESTAMP" style="shape=partialRectangle;html=1;whiteSpace=wrap;connectable=0;strokeColor=inherit;overflow=hidden;fillColor=none;top=0;left=0;bottom=0;right=0;pointerEvents=1;fontSize=12;fontStyle=1" vertex="1" parent="BIlWEWUSb-Hw1gL5TzwJ-110">
          <mxGeometry x="148" width="194" height="26" as="geometry">
            <mxRectangle width="194" height="26" as="alternateBounds" />
          </mxGeometry>
        </mxCell>
        <mxCell id="BIlWEWUSb-Hw1gL5TzwJ-113" style="shape=partialRectangle;html=1;whiteSpace=wrap;connectable=0;strokeColor=inherit;overflow=hidden;fillColor=none;top=0;left=0;bottom=0;right=0;pointerEvents=1;fontSize=14;" vertex="1" parent="BIlWEWUSb-Hw1gL5TzwJ-110">
          <mxGeometry x="342" width="191" height="26" as="geometry">
            <mxRectangle width="191" height="26" as="alternateBounds" />
          </mxGeometry>
        </mxCell>
        <mxCell id="BIlWEWUSb-Hw1gL5TzwJ-114" style="shape=tableRow;horizontal=0;startSize=0;swimlaneHead=0;swimlaneBody=0;strokeColor=#9673a6;top=0;left=0;bottom=0;right=0;collapsible=0;dropTarget=0;fillColor=#e1d5e7;points=[[0,0.5],[1,0.5]];portConstraint=eastwest;fontSize=16;" vertex="1" parent="BIlWEWUSb-Hw1gL5TzwJ-89">
          <mxGeometry y="199" width="533" height="26" as="geometry" />
        </mxCell>
        <mxCell id="BIlWEWUSb-Hw1gL5TzwJ-115" value="&lt;b&gt;sent_by&lt;/b&gt;" style="shape=partialRectangle;html=1;whiteSpace=wrap;connectable=0;strokeColor=inherit;overflow=hidden;fillColor=none;top=0;left=0;bottom=0;right=0;pointerEvents=1;fontSize=12;" vertex="1" parent="BIlWEWUSb-Hw1gL5TzwJ-114">
          <mxGeometry width="148" height="26" as="geometry">
            <mxRectangle width="148" height="26" as="alternateBounds" />
          </mxGeometry>
        </mxCell>
        <mxCell id="BIlWEWUSb-Hw1gL5TzwJ-116" value="UUID" style="shape=partialRectangle;html=1;whiteSpace=wrap;connectable=0;strokeColor=inherit;overflow=hidden;fillColor=none;top=0;left=0;bottom=0;right=0;pointerEvents=1;fontSize=12;fontStyle=1" vertex="1" parent="BIlWEWUSb-Hw1gL5TzwJ-114">
          <mxGeometry x="148" width="194" height="26" as="geometry">
            <mxRectangle width="194" height="26" as="alternateBounds" />
          </mxGeometry>
        </mxCell>
        <mxCell id="BIlWEWUSb-Hw1gL5TzwJ-117" value="F. K to merchants.id" style="shape=partialRectangle;html=1;whiteSpace=wrap;connectable=0;strokeColor=inherit;overflow=hidden;fillColor=none;top=0;left=0;bottom=0;right=0;pointerEvents=1;fontSize=14;" vertex="1" parent="BIlWEWUSb-Hw1gL5TzwJ-114">
          <mxGeometry x="342" width="191" height="26" as="geometry">
            <mxRectangle width="191" height="26" as="alternateBounds" />
          </mxGeometry>
        </mxCell>
        <mxCell id="BIlWEWUSb-Hw1gL5TzwJ-118" style="edgeStyle=orthogonalEdgeStyle;rounded=0;orthogonalLoop=1;jettySize=auto;html=1;entryX=0;entryY=0.5;entryDx=0;entryDy=0;" edge="1" parent="1" source="BIlWEWUSb-Hw1gL5TzwJ-80" target="_PIaMZyt-WBJ93KkxoSu-136">
          <mxGeometry relative="1" as="geometry" />
        </mxCell>
        <mxCell id="BIlWEWUSb-Hw1gL5TzwJ-124" style="edgeStyle=orthogonalEdgeStyle;rounded=0;orthogonalLoop=1;jettySize=auto;html=1;" edge="1" parent="1" source="BIlWEWUSb-Hw1gL5TzwJ-98">
          <mxGeometry relative="1" as="geometry">
            <mxPoint x="1487.000110973011" y="-387" as="targetPoint" />
          </mxGeometry>
        </mxCell>
        <mxCell id="BIlWEWUSb-Hw1gL5TzwJ-125" style="edgeStyle=orthogonalEdgeStyle;rounded=0;orthogonalLoop=1;jettySize=auto;html=1;" edge="1" parent="1" source="BIlWEWUSb-Hw1gL5TzwJ-114">
          <mxGeometry relative="1" as="geometry">
            <mxPoint x="1426" y="65" as="targetPoint" />
          </mxGeometry>
        </mxCell>
        <mxCell id="BIlWEWUSb-Hw1gL5TzwJ-126" style="edgeStyle=orthogonalEdgeStyle;rounded=0;orthogonalLoop=1;jettySize=auto;html=1;" edge="1" parent="1" source="BKTfwsJTgoyWICiSg3tw-8">
          <mxGeometry relative="1" as="geometry">
            <mxPoint x="730.0724991508152" y="375.79706606657646" as="targetPoint" />
          </mxGeometry>
        </mxCell>
        <mxCell id="BIlWEWUSb-Hw1gL5TzwJ-127" style="edgeStyle=orthogonalEdgeStyle;rounded=0;orthogonalLoop=1;jettySize=auto;html=1;" edge="1" parent="1" source="BIlWEWUSb-Hw1gL5TzwJ-76">
          <mxGeometry relative="1" as="geometry">
            <mxPoint x="672.0001220703125" y="61.3333740234375" as="targetPoint" />
          </mxGeometry>
        </mxCell>
      </root>
    </mxGraphModel>
  </diagram>
</mxfile>
